<?xml version="1.0" encoding="utf-8"?>
<!-- Generator: Adobe Illustrator 19.0.0, SVG Export Plug-In . SVG Version: 6.00 Build 0)  -->
<svg version="1.1" id="Layer_1" xmlns="http://www.w3.org/2000/svg" xmlns:xlink="http://www.w3.org/1999/xlink" x="0px" y="0px"
	 width="24px" height="24px" viewBox="-467 269 24 24" style="enable-background:new -467 269 24 24;" xml:space="preserve">
<style type="text/css">
	.st0{fill:#FFFFFF;}
</style>
<g id="XMLID_1_">
	<path id="XMLID_98_" class="st0" d="M-465.7,271h2.5l2.7,11.5c-1.3,0.1-2.2,1.2-2.1,2.5c0.1,1.2,1.1,2.1,2.3,2.1h13
		c0.4,0,0.8-0.3,0.8-0.8s-0.3-0.8-0.8-0.8h-13c-0.4,0-0.8-0.3-0.8-0.8c0-0.4,0.3-0.8,0.8-0.8h12.9c1.1,0,2-0.7,2.2-1.8l1.6-6.9
		c0.3-1.2-0.5-2.5-1.7-2.8c-0.2,0-0.3-0.1-0.5-0.1h-15.5l-0.6-2.2c-0.1-0.4-0.4-0.6-0.8-0.6h-3c-0.4,0-0.8,0.3-0.8,0.8
		S-466.2,271-465.7,271z M-445.8,274.1c0.4,0,0.8,0.4,0.8,0.8v0.1l-1.6,6.9c-0.1,0.3-0.4,0.6-0.7,0.6H-459l-2-8.4H-445.8z"/>
	<path id="XMLID_95_" class="st0" d="M-451.9,290.2c0,1.3,1,2.3,2.3,2.3c1.3,0,2.3-1,2.3-2.3c0-1.3-1-2.3-2.3-2.3
		C-450.9,287.9-451.9,288.9-451.9,290.2z M-448.9,290.2c0,0.4-0.3,0.8-0.8,0.8c-0.4,0-0.8-0.3-0.8-0.8c0-0.4,0.3-0.8,0.8-0.8
		S-448.9,289.8-448.9,290.2z"/>
	<path id="XMLID_94_" class="st0" d="M-460.4,290.2c0,1.3,1,2.3,2.3,2.3c1.3,0,2.3-1,2.3-2.3c0-1.3-1-2.3-2.3-2.3
		C-459.3,287.9-460.4,288.9-460.4,290.2z M-457.3,290.2c0,0.4-0.3,0.8-0.8,0.8s-0.8-0.3-0.8-0.8c0-0.4,0.3-0.8,0.8-0.8
		S-457.3,289.8-457.3,290.2z"/>
</g>
</svg>
