<?xml version="1.0" encoding="utf-8"?>
<!-- Generator: Adobe Illustrator 19.0.0, SVG Export Plug-In . SVG Version: 6.00 Build 0)  -->
<svg version="1.1" id="Layer_1" xmlns="http://www.w3.org/2000/svg" xmlns:xlink="http://www.w3.org/1999/xlink" x="0px" y="0px"
	 width="11px" height="6px" viewBox="0 0 11 6" style="enable-background:new 0 0 11 6;" xml:space="preserve">
<style type="text/css">
	.Drop_x0020_Shadow{fill:none;}
	.Outer_x0020_Glow_x0020_5_x0020_pt{fill:none;}
	.Jive_GS{fill:#A6D0E4;}
	.st0{fill:#222222;}
</style>
<g>
	<g>
		<path id="XMLID_1_" class="st0" d="M9.6,0.9L9.3,0.6C9.2,0.6,9.1,0.5,9,0.5c-0.1,0-0.2,0-0.3,0.1L5.5,3.8L2.3,0.6
			C2.2,0.5,2.1,0.5,2,0.5c-0.1,0-0.2,0-0.3,0.1L1.4,0.9c-0.2,0.2-0.2,0.5,0,0.7l3.8,3.8c0.1,0.1,0.2,0.1,0.3,0.1h0
			c0.1,0,0.2-0.1,0.3-0.1l3.8-3.8c0.1-0.1,0.1-0.2,0.1-0.3C9.7,1.1,9.7,1,9.6,0.9z"/>
	</g>
</g>
</svg>
