<?xml version="1.0" encoding="utf-8"?>
<!-- Generator: Adobe Illustrator 19.0.0, SVG Export Plug-In . SVG Version: 6.00 Build 0)  -->
<svg version="1.1" id="Layer_1" xmlns="http://www.w3.org/2000/svg" xmlns:xlink="http://www.w3.org/1999/xlink" x="0px" y="0px"
	 width="25px" height="21px" viewBox="0 0 25 21" style="enable-background:new 0 0 25 21;" xml:space="preserve">
<style type="text/css">
	.Drop_x0020_Shadow{fill:none;}
	.Round_x0020_Corners_x0020_2_x0020_pt{fill:#FFFFFF;stroke:#231F20;stroke-miterlimit:10;}
	.Live_x0020_Reflect_x0020_X{fill:none;}
	.Bevel_x0020_Soft{fill:url(#SVGID_1_);}
	.Dusk{fill:#FFFFFF;}
	.Foliage_GS{fill:#FFDD00;}
	.Pompadour_GS{fill-rule:evenodd;clip-rule:evenodd;fill:#44ADE2;}
</style>
<linearGradient id="SVGID_1_" gradientUnits="userSpaceOnUse" x1="0" y1="0" x2="0.7071" y2="0.7071">
	<stop  offset="0" style="stop-color:#DEDFE3"/>
	<stop  offset="0.1783" style="stop-color:#DADBDF"/>
	<stop  offset="0.3611" style="stop-color:#CECFD3"/>
	<stop  offset="0.546" style="stop-color:#B9BCBF"/>
	<stop  offset="0.7324" style="stop-color:#9CA0A2"/>
	<stop  offset="0.9181" style="stop-color:#787D7E"/>
	<stop  offset="1" style="stop-color:#656B6C"/>
</linearGradient>
<g>
	<path id="XMLID_3_" d="M1.2,3.9h3.8c0,1,0.8,1.9,1.9,1.9h1.9c1,0,1.9-0.8,1.9-1.9h13.2c0.5,0,0.9-0.4,0.9-0.9S24.4,2,23.8,2H10.6
		c0-1-0.8-1.9-1.9-1.9H6.8c-1,0-1.9,0.8-1.9,1.9H1.2C0.6,2,0.2,2.4,0.2,2.9C0.2,3.5,0.6,3.9,1.2,3.9z"/>
	<path id="XMLID_2_" d="M23.8,9.6h-5.7c0-1-0.8-1.9-1.9-1.9h-1.9c-1,0-1.9,0.8-1.9,1.9H1.2c-0.5,0-0.9,0.4-0.9,0.9
		c0,0.5,0.4,0.9,0.9,0.9h11.3c0,1,0.8,1.9,1.9,1.9h1.9c1,0,1.9-0.8,1.9-1.9h5.7c0.5,0,0.9-0.4,0.9-0.9S24.4,9.6,23.8,9.6z"/>
	<path id="XMLID_1_" d="M23.8,17.1H10.6c0-1-0.8-1.9-1.9-1.9H6.8c-1,0-1.9,0.8-1.9,1.9H1.2c-0.5,0-0.9,0.4-0.9,0.9
		c0,0.5,0.4,0.9,0.9,0.9h3.8c0,1,0.8,1.9,1.9,1.9h1.9c1,0,1.9-0.8,1.9-1.9h13.2c0.5,0,0.9-0.4,0.9-0.9
		C24.8,17.5,24.4,17.1,23.8,17.1z"/>
</g>
</svg>
