<?xml version="1.0" encoding="utf-8"?>
<!-- Generator: Adobe Illustrator 19.0.0, SVG Export Plug-In . SVG Version: 6.00 Build 0)  -->
<svg version="1.1" id="Layer_1" xmlns="http://www.w3.org/2000/svg" xmlns:xlink="http://www.w3.org/1999/xlink" x="0px" y="0px"
	 width="17px" height="17px" viewBox="0 0 17 17" style="enable-background:new 0 0 17 17;" xml:space="preserve">
<style type="text/css">
	.st0{fill:#7fad39;}
</style>
<g id="XMLID_3513_">
	<path id="XMLID_3517_" class="st0" d="M7,7.8H1.2C0.8,7.8,0.5,7.4,0.5,7V1.2c0-0.4,0.3-0.7,0.7-0.7H7c0.4,0,0.7,0.3,0.7,0.7V7
		C7.8,7.4,7.4,7.8,7,7.8z"/>
	<path id="XMLID_3516_" class="st0" d="M7,16.5H1.2c-0.4,0-0.7-0.3-0.7-0.7V10c0-0.4,0.3-0.7,0.7-0.7H7c0.4,0,0.7,0.3,0.7,0.7v5.8
		C7.8,16.2,7.4,16.5,7,16.5z"/>
	<path id="XMLID_3515_" class="st0" d="M15.8,7.8H10C9.6,7.8,9.2,7.4,9.2,7V1.2c0-0.4,0.3-0.7,0.7-0.7h5.8c0.4,0,0.7,0.3,0.7,0.7V7
		C16.5,7.4,16.2,7.8,15.8,7.8z"/>
	<path id="XMLID_3514_" class="st0" d="M15.8,16.5H10c-0.4,0-0.7-0.3-0.7-0.7V10c0-0.4,0.3-0.7,0.7-0.7h5.8c0.4,0,0.7,0.3,0.7,0.7
		v5.8C16.5,16.2,16.2,16.5,15.8,16.5z"/>
</g>
</svg>
