<?xml version="1.0" encoding="utf-8"?>
<!-- Generator: Adobe Illustrator 19.0.0, SVG Export Plug-In . SVG Version: 6.00 Build 0)  -->
<svg version="1.1" id="Layer_1" xmlns="http://www.w3.org/2000/svg" xmlns:xlink="http://www.w3.org/1999/xlink" x="0px" y="0px"
	 width="21px" height="17px" viewBox="0 0 21 17" style="enable-background:new 0 0 21 17;" xml:space="preserve">
<style type="text/css">
	.Drop_x0020_Shadow{fill:none;}
	.Outer_x0020_Glow_x0020_5_x0020_pt{fill:none;}
	.Jive_GS{fill:#A6D0E4;}
	.st0{fill:#7fad39;}
</style>
<g id="XMLID_3518_">
	<path id="XMLID_3525_" class="st0" d="M19.5,15.8H6.1c-0.6,0-1-0.4-1-1s0.4-1,1-1h13.4c0.6,0,1,0.4,1,1S20.1,15.8,19.5,15.8z"/>
	<path id="XMLID_3523_" class="st0" d="M19.5,9.5H6.1c-0.6,0-1-0.4-1-1c0-0.6,0.4-1,1-1h13.4c0.6,0,1,0.4,1,1
		C20.5,9.1,20.1,9.5,19.5,9.5z"/>
	<path id="XMLID_3522_" class="st0" d="M19.5,3.2H6.1c-0.6,0-1-0.4-1-1s0.4-1,1-1h13.4c0.6,0,1,0.4,1,1S20.1,3.2,19.5,3.2z"/>
	<circle id="XMLID_3521_" class="st0" cx="1.8" cy="2.3" r="1.3"/>
	<circle id="XMLID_3520_" class="st0" cx="1.8" cy="8.5" r="1.3"/>
	<circle id="XMLID_3519_" class="st0" cx="1.8" cy="14.7" r="1.3"/>
</g>
</svg>
