<?xml version="1.0" standalone="no"?>
<!DOCTYPE svg PUBLIC "-//W3C//DTD SVG 1.1//EN" "http://www.w3.org/Graphics/SVG/1.1/DTD/svg11.dtd" >
<svg xmlns="http://www.w3.org/2000/svg" xmlns:xlink="http://www.w3.org/1999/xlink" version="1.1">
<metadata>
Created by FontForge 20201107 at Tue Mar 24 19:18:51 2020
 By 
Copyright 2019 The Manrope Project Authors (https://github.com/sharanda/manrope)
</metadata>
<defs>
<font id="Manrope-Bold" horiz-adv-x="1251" >
  <font-face 
    font-family="Manrope"
    font-weight="700"
    font-stretch="normal"
    units-per-em="2000"
    panose-1="0 0 0 0 0 0 0 0 0 0"
    ascent="1600"
    descent="-400"
    x-height="1080"
    cap-height="1440"
    bbox="-305 -610 2504 2395.28"
    underline-thickness="50"
    underline-position="-125"
    unicode-range="U+000D-FB02"
  />
<missing-glyph horiz-adv-x="1480" 
d="M200 1414h1080v26h-1080v-26zM200 1298h1080v32h-1080v-32zM200 1184h1080v36h-1080v-36zM200 1066h1080v42h-1080v-42zM200 952h1080v44h-1080v-44zM200 838h1080v48h-1080v-48zM200 720h1080v56h-1080v-56zM200 606h1080v60h-1080v-60zM200 490h1080v66h-1080v-66z
M200 374h1080v70h-1080v-70zM200 260h1080v74h-1080v-74zM200 144h1080v80h-1080v-80zM200 0h1080v114h-1080v-114z" />
    <glyph glyph-name="parenleft_c_parenright.liga" unicode="&#x28;c&#x29;" horiz-adv-x="1973" 
d="M986 -118q171 0 321 64t264 177.5t178 263.5t64 321t-64 321t-178 263.5t-264 177.5t-321 64t-320.5 -64t-263.5 -177.5t-178 -263.5t-64 -321t64 -321t178 -263.5t263.5 -177.5t320.5 -64zM986 108q-124 0 -233 46.5t-191.5 129t-129 191.5t-46.5 233q0 125 46.5 233.5
t129 191t191.5 129t233 46.5q125 0 233.5 -46.5t191 -129t129 -191t46.5 -233.5q0 -124 -46.5 -233t-129 -191.5t-191 -129t-233.5 -46.5zM1002 282q76 0 130 17t99 50q93 69 131 192l-188 40q-10 -27 -23 -48.5t-36 -42.5q-39 -35 -111 -35q-103 0 -155 74q-27 38 -38.5 84
t-11.5 96q0 49 10.5 96.5t39.5 84.5q27 34 65 53.5t87 19.5q64 0 111 -38q47 -40 66 -100l184 50q-16 70 -55.5 121.5t-94.5 85.5q-50 31 -97.5 42t-103.5 11q-106 0 -180 -33.5t-129 -101.5q-98 -119 -98 -291q0 -81 23 -154.5t75 -139.5q107 -133 300 -133z" />
    <glyph glyph-name="space_less_three_space.liga" unicode="&#x20;&#x3c;&#x33;&#x20;" horiz-adv-x="2322" 
d="M1160 -30q83 0 139 59l349 370q74 79 99.5 174.5t9 189.5t-69 173t-134.5 126.5t-187 47.5q-43 0 -96 -12.5t-110 -47.5q-97 60 -204 60q-104 0 -186 -47.5t-134.5 -125.5t-69.5 -172.5t8 -190t100 -175.5l351 -370q56 -59 135 -59zM1160 161l-348 368q-50 51 -60 117.5
t13 129.5t72.5 104t118.5 41q99 0 204 -112q103 112 206 112q67 0 116.5 -40t74 -102t15 -129t-60.5 -121z" />
    <glyph glyph-name="f_f" unicode="ff" horiz-adv-x="1429" 
d="M234 0h241v891h261v189h-261v69q0 56 33.5 90.5t102.5 34.5h125v196h-135q-39 0 -91 -2.5t-105.5 -22t-99.5 -70.5q-55 -60 -63 -138t-8 -140v-17h-174v-189h174v-891zM907 0h241v891h261v189h-261v69q0 56 33.5 90.5t102.5 34.5h125v196h-135q-39 0 -91 -2.5t-105.5 -22
t-99.5 -70.5q-55 -60 -63 -138t-8 -140v-17h-174v-189h174v-891z" />
    <glyph glyph-name="f_f_l" unicode="ffl" horiz-adv-x="2052" 
d="M907 0h241v891h503v-891h241v1470h-241v-390h-503v69q0 56 33.5 90.5t102.5 34.5h125v196h-135q-39 0 -91 -2.5t-105.5 -22t-99.5 -70.5q-55 -60 -63 -138t-8 -140v-17h-174v-189h174v-891zM234 0h241v891h261v189h-261v69q0 56 33.5 90.5t102.5 34.5h125v196h-135
q-39 0 -91 -2.5t-105.5 -22t-99.5 -70.5q-55 -60 -63 -138t-8 -140v-17h-174v-189h174v-891z" />
    <glyph glyph-name="t_t.liga" unicode="tt" horiz-adv-x="1613" 
d="M773 0v202q-101 -15 -180 -8t-115 67q-19 31 -20.5 80.5t-1.5 113.5v436h317v189h-317v300h-240v-300h-196v-189h196v-450q0 -93 2 -165.5t39 -142.5q42 -77 123 -112.5t183.5 -38t209.5 17.5zM1519 0v202q-101 -15 -180 -8t-115 67q-19 31 -20.5 80.5t-1.5 113.5v436
h317v189h-317v300h-240v-300h-196v-189h196v-450q0 -93 2 -165.5t39 -142.5q42 -77 123 -112.5t183.5 -38t209.5 17.5z" />
    <glyph glyph-name="fi" unicode="fi" horiz-adv-x="1347" 
d="M234 0h241v891h261v189h-261v69q0 56 33.5 90.5t102.5 34.5h125v196h-135q-39 0 -91 -2.5t-105.5 -22t-99.5 -70.5q-55 -60 -63 -138t-8 -140v-17h-174v-189h174v-891zM946 1244h241v221h-241v-221zM946 0h241v1080h-241v-1080z" />
    <glyph glyph-name="fl" unicode="fl" horiz-adv-x="1379" 
d="M234 0h241v891h503v-891h241v1470h-241v-390h-503v69q0 56 33.5 90.5t102.5 34.5h125v196h-135q-39 0 -91 -2.5t-105.5 -22t-99.5 -70.5q-55 -60 -63 -138t-8 -140v-17h-174v-189h174v-891z" />
    <glyph glyph-name="hyphen_hyphen.liga" unicode="&#x2d;&#x2d;" horiz-adv-x="1080" 
d="M120 536h840v189h-840v-189z" />
    <glyph glyph-name="hyphen_greater.liga" unicode="&#x2d;&#x3e;" horiz-adv-x="2023" 
d="M280.038 537l0.0117188 189l1138 -0.0693359l-269.983 269.017l115.007 115.993l479.971 -481.029l-480.029 -479.971l-114.993 116.007l271.017 270.983z" />
    <glyph glyph-name="less_hyphen.liga" unicode="&#x3c;&#x2d;" horiz-adv-x="2023" 
d="M1742.96 537l-0.0117188 189l-1138 -0.0693359l269.983 269.017l-115.007 115.993l-479.971 -481.029l480.029 -479.971l114.993 116.007l-271.017 270.983z" />
    <glyph glyph-name="prnleft_grtr_prnright.liga" unicode="&#x28;&#x3e;&#x29;" horiz-adv-x="2300" 
d="M1150 -270q206 0 385.5 77t315.5 213t212.5 315.5t76.5 384.5q0 206 -76.5 385.5t-212.5 315.5t-315.5 212.5t-385.5 76.5q-205 0 -384.5 -76.5t-315.5 -212.5t-213 -315.5t-77 -385.5q0 -205 77 -384.5t213 -315.5t315.5 -213t384.5 -77zM1151 -44q-159 0 -297.5 59
t-244 164.5t-164.5 244t-59 297.5q0 158 59 296.5t164.5 243.5t244 164t297.5 59q158 0 296.5 -59t243.5 -164t164 -243.5t59 -296.5q0 -159 -59 -297.5t-164 -244t-243.5 -164.5t-296.5 -59zM1010 1070v-700l420 350z" />
    <glyph glyph-name=".notdef" horiz-adv-x="1480" 
d="M200 1414h1080v26h-1080v-26zM200 1298h1080v32h-1080v-32zM200 1184h1080v36h-1080v-36zM200 1066h1080v42h-1080v-42zM200 952h1080v44h-1080v-44zM200 838h1080v48h-1080v-48zM200 720h1080v56h-1080v-56zM200 606h1080v60h-1080v-60zM200 490h1080v66h-1080v-66z
M200 374h1080v70h-1080v-70zM200 260h1080v74h-1080v-74zM200 144h1080v80h-1080v-80zM200 0h1080v114h-1080v-114z" />
    <glyph glyph-name=".null" horiz-adv-x="1200" 
 />
    <glyph glyph-name="nonmarkingreturn" horiz-adv-x="1370" 
 />
    <glyph glyph-name="CR" unicode="&#xd;" horiz-adv-x="1200" 
 />
    <glyph glyph-name="space" unicode=" " horiz-adv-x="400" 
 />
    <glyph glyph-name="exclam" unicode="!" horiz-adv-x="721" 
d="M240 360h241v1080h-241v-1080zM240 0h241v221h-241v-221z" />
    <glyph glyph-name="quotedbl" unicode="&#x22;" horiz-adv-x="934" 
d="M120 1080h241v360h-241v-360zM493 1080h241v360h-241v-360z" />
    <glyph glyph-name="numbersign" unicode="#" horiz-adv-x="1863" 
d="M377 2h235l104 390h245l-104 -390h235l104 390h362l61 227h-363l64 235h362l61 226h-363l98 360h-235l-97 -360h-246l98 360h-235l-97 -360h-362l-62 -226h363l-62 -235h-363l-60 -227h363zM778 619l62 235h245l-63 -235h-244z" />
    <glyph glyph-name="dollar" unicode="$" horiz-adv-x="1256" 
d="M517 -199h241v177q192 29 306.5 147t114.5 294q0 152 -82.5 244.5t-269.5 147.5l-259 75q-103 30 -150.5 71.5t-47.5 101.5q0 80 74 133t183 51q114 -3 194.5 -68.5t101.5 -172.5l247 45q-39 167 -145.5 272t-266.5 136v183h-241v-178q-179 -26 -282.5 -135.5
t-103.5 -277.5q0 -275 303 -368l347 -108q84 -26 122 -66t38 -102q0 -89 -80 -148t-204 -59q-129 0 -221 72t-121 196l-238 -38q28 -179 145 -296t295 -149v-180z" />
    <glyph glyph-name="percent" unicode="%" horiz-adv-x="1801" 
d="M480 750q99 0 180.5 48.5t130.5 130t49 181.5t-49 181.5t-130.5 130t-180.5 48.5q-96 0 -178 -49t-132 -131t-50 -180q0 -100 49 -181.5t130.5 -130t180.5 -48.5zM340 0l1281 1279l-160 161l-1281 -1280zM480 956q-62 0 -108 46t-46 108t46 108t108 46t108 -46t46 -108
t-46 -108t-108 -46zM1321 -30q99 0 180.5 48.5t130.5 130t49 181.5t-49 181.5t-130.5 130t-180.5 48.5q-96 0 -178 -49t-132 -131t-50 -180q0 -100 48.5 -181.5t130.5 -130t181 -48.5zM1321 176q-62 0 -108 46t-46 108t46 108t108 46t108 -46t46 -108t-46 -108t-108 -46z
" />
    <glyph glyph-name="ampersand" unicode="&#x26;" horiz-adv-x="1337" 
d="M617 -30q43 0 84 4t86 14q62 12 123 42.5t112 78.5l139 -132l155 165l-179 164q8 33 11.5 83t3.5 105v261h-212v-176v-44.5t-1 -43.5l-362 335q-28 26 -54 50.5t-44 43.5q-28 31 -46 61t-18 80q0 111 96 157q49 23 113 23q40 0 80.5 -9.5t71.5 -38.5q34 -31 49 -77
l238 51q-13 48 -39 95t-65 84q-61 64 -147.5 92.5t-181.5 28.5q-50 0 -102.5 -7t-103.5 -26q-117 -44 -185 -144.5t-68 -225.5q0 -84 30.5 -146t89.5 -128q-25 -15 -48 -34t-43 -42q-52 -61 -76 -138.5t-24 -160.5q3 -85 29 -159.5t84 -137.5q71 -76 177.5 -112t226.5 -36z
M627 199q-62 0 -129 19.5t-103 65.5q-23 28 -37 63.5t-15 81.5q0 80 40 132q33 41 85 60l381 -350q-20 -16 -46.5 -31t-63.5 -26q-26 -9 -53.5 -12t-58.5 -3z" />
    <glyph glyph-name="quotesingle" unicode="'" horiz-adv-x="521" 
d="M120 1080h241v360h-241v-360z" />
    <glyph glyph-name="parenleft" unicode="(" horiz-adv-x="906" 
d="M646 -381l178 133q-180 215 -252 441t-74 467q2 242 73.5 467t252.5 442l-178 132q-116 -136 -199.5 -307t-126.5 -359t-40 -375q-3 -187 40 -375t126.5 -359t199.5 -307z" />
    <glyph glyph-name="parenright" unicode=")" horiz-adv-x="906" 
d="M260 -381l-178 133q180 215 252 441t74 467q-2 242 -73.5 467t-252.5 442l178 132q116 -136 199.5 -307t126.5 -359t40 -375q3 -187 -40 -375t-126.5 -359t-199.5 -307z" />
    <glyph glyph-name="asterisk" unicode="*" horiz-adv-x="929" 
d="M309 727l126 196l125 -196l173 125l-150 177l226 61l-66 203l-216 -89l15 236h-214l15 -236l-217 89l-66 -203l227 -61l-151 -177z" />
    <glyph glyph-name="plus" unicode="+" horiz-adv-x="1143" 
d="M478 268h189v358h356v189h-356v357h-189v-357h-358v-189h358v-358z" />
    <glyph glyph-name="comma" unicode="," horiz-adv-x="607" 
d="M120 -255q123 -20 185 47t62 198v267h-247v-257h128q8 -68 -18.5 -112t-95.5 -39z" />
    <glyph glyph-name="hyphen" unicode="-" horiz-adv-x="840" 
d="M120 536h600v189h-600v-189z" />
    <glyph glyph-name="period" unicode="." horiz-adv-x="607" 
d="M180 0h247v247h-247v-247z" />
    <glyph glyph-name="slash" unicode="/" horiz-adv-x="866" 
d="M504 1440h242l-384 -1440h-242z" />
    <glyph glyph-name="zero" unicode="0" horiz-adv-x="1316" 
d="M658 -30q154 0 270.5 65.5t182 182.5t65.5 270v464q0 154 -65.5 270.5t-182 182t-270.5 65.5t-270.5 -65.5t-182 -182t-65.5 -270.5v-464q0 -153 65.5 -270t182 -182.5t270.5 -65.5zM658 199q-76 0 -137.5 36.5t-98 98t-36.5 137.5v499q0 77 36.5 138.5t98 98t137.5 36.5
t137.5 -36.5t98 -98t36.5 -138.5v-499q0 -76 -36.5 -137.5t-98 -98t-137.5 -36.5z" />
    <glyph glyph-name="one" unicode="1" horiz-adv-x="876" 
d="M390 0h246v1440h-246l-270 -162v-266l270 165v-1177z" />
    <glyph glyph-name="two" unicode="2" horiz-adv-x="1191" 
d="M100 2h991v227h-618l369 327q82 72 137.5 131.5t83.5 129t28 172.5q0 141 -63.5 249.5t-172.5 170t-248 61.5q-149 0 -263 -59t-178 -166t-64 -251h248q-2 66 30 123t89.5 91.5t132.5 34.5q107 0 174.5 -71.5t67.5 -179.5q0 -53 -28.5 -110t-99.5 -121l-616 -549v-210z
" />
    <glyph glyph-name="three" unicode="3" horiz-adv-x="1163" 
d="M552 -27q135 0 246.5 62.5t178 170.5t66.5 244q0 109 -41 203t-119 159t-189 88l325 312v228h-883v-227h596l-416 -356l110 -190q62 34 125 34q109 0 178 -72t69 -179q0 -106 -70.5 -177t-176.5 -72q-79 -1 -146 45.5t-92 132.5l-233 -63q31 -104 101.5 -181.5
t166.5 -119.5t204 -42z" />
    <glyph glyph-name="four" unicode="4" horiz-adv-x="1217" 
d="M738 0h244v238h135v225h-135v375h-244v-375h-363l461 977h-275l-461 -977v-225h638v-238z" />
    <glyph glyph-name="five" unicode="5" horiz-adv-x="1172" 
d="M567 -30q136 0 250.5 65t184.5 174.5t70 244.5t-59.5 241.5t-164 167.5t-239.5 61q-55 0 -113.5 -16t-110.5 -48l22 354h568v226h-782l-44 -762l206 -66q29 34 83.5 64t137.5 30q69 0 127 -34t92.5 -91t34.5 -127q0 -69 -34 -126.5t-91.5 -92t-128.5 -34.5
q-81 0 -151.5 50.5t-92.5 137.5l-232 -62q30 -106 98.5 -186.5t164 -125.5t204.5 -45z" />
    <glyph glyph-name="six" unicode="6" horiz-adv-x="1243" 
d="M638 -30q136 0 249 64.5t181.5 174t68.5 244.5q0 136 -59.5 242.5t-164 168t-240.5 61.5q-163 0 -287 -108v146q0 73 35 137t97.5 103.5t146.5 39.5q59 0 114 -26t93 -71l174 169q-76 80 -173.5 116.5t-207.5 36.5q-157 0 -275 -66.5t-184 -187t-66 -284.5v-438
q0 -153 66 -271t178.5 -184.5t253.5 -66.5zM638 201q-70 0 -127 34.5t-91 92t-34 125.5q0 70 34.5 128t92 92.5t127.5 34.5t127.5 -34.5t91.5 -92.5t34 -128t-34.5 -127t-92.5 -91t-128 -34z" />
    <glyph glyph-name="seven" unicode="7" horiz-adv-x="1067" 
d="M213 0h260l494 1212v228h-887v-228h629z" />
    <glyph glyph-name="eight" unicode="8" horiz-adv-x="1225" 
d="M611 -30q144 0 255.5 58t175 161t63.5 236q0 103 -42 194.5t-121 153.5q124 119 124 290q0 124 -58.5 215t-161 141.5t-235.5 50.5t-235.5 -50.5t-160.5 -141.5t-58 -215q0 -87 32.5 -159.5t93.5 -130.5q-81 -63 -122 -154t-41 -194q0 -134 63 -236.5t174 -160.5t254 -58
zM611 883q-88 0 -143.5 44.5t-55.5 135.5t55.5 135.5t143.5 44.5q89 0 144.5 -44.5t55.5 -135.5t-55.5 -135.5t-144.5 -44.5zM611 197q-106 0 -171 58t-65 170q0 111 65 170t171 59q107 0 173 -59t66 -170q0 -112 -66 -170t-173 -58z" />
    <glyph glyph-name="nine" unicode="9" horiz-adv-x="1243" 
d="M605 1468q-136 0 -249 -64.5t-181.5 -174t-68.5 -244.5q0 -136 59.5 -242.5t164 -168t240.5 -61.5q163 0 287 108v-146q0 -73 -35 -137t-97.5 -103.5t-146.5 -39.5q-59 0 -114 26t-93 71l-174 -169q76 -80 173.5 -116.5t207.5 -36.5q157 0 275 66.5t184 187t66 284.5v438
q0 153 -66 271t-178.5 184.5t-253.5 66.5zM605 1237q70 0 127 -34.5t91 -92t34 -125.5q0 -70 -34.5 -128t-92 -92.5t-127.5 -34.5t-127.5 34.5t-91.5 92.5t-34 128t34.5 127t92.5 91t128 34z" />
    <glyph glyph-name="colon" unicode=":" horiz-adv-x="685" 
d="M220 130h247v247h-247v-247zM222 703h247v247h-247v-247z" />
    <glyph glyph-name="semicolon" unicode=";" horiz-adv-x="687" 
d="M220 -255q123 -20 185 47t62 198v267h-247v-257h128q8 -68 -18.5 -112t-95.5 -39zM220 833h247v247h-247v-247z" />
    <glyph glyph-name="less" unicode="&#x3c;" horiz-adv-x="1275" 
d="M760 150l150 149l-342 331l342 331l-150 149l-480 -480z" />
    <glyph glyph-name="equal" unicode="=" horiz-adv-x="1500" 
d="M240 814h1020v189h-1020v-189zM240 437h1020v189h-1020v-189z" />
    <glyph glyph-name="greater" unicode="&#x3e;" horiz-adv-x="1275" 
d="M515 150l-150 149l342 331l-342 331l150 149l480 -480z" />
    <glyph glyph-name="question" unicode="?" horiz-adv-x="1106" 
d="M401 391h255q0 58 5 90.5t33 79.5q25 41 66.5 76t88.5 86q68 72 112.5 157t44.5 188q0 69 -24 136t-68 118q-64 78 -162 112t-208 34q-72 0 -143 -21.5t-129 -62.5q-73 -51 -117.5 -136.5t-54.5 -185.5h254q-3 88 57 136q26 23 63.5 33t78.5 10q50 0 94 -15.5t72 -52.5
q18 -22 25 -50.5t7 -61.5q0 -52 -13.5 -96t-53.5 -89q-50 -53 -91 -85t-74 -63t-60 -84q-31 -55 -44.5 -119.5t-13.5 -133.5zM403 0h253v265h-253v-265z" />
    <glyph glyph-name="at" unicode="@" horiz-adv-x="1827" 
d="M911 -210q80 0 158.5 14t151.5 43l-63 178q-114 -46 -238 -46q-163 0 -287 63.5t-195 184.5t-76 291q-5 176 60 307t191.5 203.5t306.5 72.5q87 0 182 -25t178 -85t134.5 -163t49.5 -259q-1 -93 -20 -155.5t-96 -62.5q-49 0 -76 35.5t-27 112.5l3 377h-148v-35
q-43 29 -98.5 46t-106.5 17q-102 0 -185 -45t-131.5 -128t-48.5 -196q0 -110 46 -193t127.5 -129.5t187.5 -46.5q62 0 122.5 21t105.5 72q38 -49 99.5 -74t127.5 -25q170 0 244.5 107.5t76.5 304.5q2 143 -45.5 272t-143.5 229.5t-240 158.5t-335 58q-150 0 -284.5 -48.5
t-237.5 -146t-162 -243t-59 -340.5q0 -156 54.5 -288t155 -229.5t238 -151t303.5 -53.5zM905 357q-82 0 -127.5 47.5t-45.5 130.5q0 82 44.5 130.5t135.5 48.5q156 0 156 -179q0 -100 -47.5 -139t-115.5 -39z" />
    <glyph glyph-name="A" unicode="A" horiz-adv-x="1341" 
d="M40 0h248l98 312h568l99 -312h248l-454 1440h-353zM457 537l211 670l214 -670h-425z" />
    <glyph glyph-name="B" unicode="B" horiz-adv-x="1262" 
d="M140 0h629q213 0 323 118t110 310q0 109 -53.5 198t-157.5 133q67 40 105.5 113.5t38.5 171.5q0 97 -45.5 188t-139 149.5t-239.5 58.5h-571v-1440zM384 865v350h324q86 0 134 -50t48 -125q0 -86 -52.5 -130.5t-129.5 -44.5h-324zM384 227v413h362q101 0 157 -59t56 -146
q0 -96 -62.5 -152t-157.5 -56h-355z" />
    <glyph glyph-name="C" unicode="C" horiz-adv-x="1477" 
d="M749 -30q248 0 414.5 124.5t233.5 335.5l-243 67q-42 -140 -143 -220t-262 -80q-217 0 -326.5 143.5t-109.5 379.5q1 236 110 379.5t326 143.5q161 0 262 -80t143 -220l243 67q-67 212 -233.5 336t-414.5 124q-215 0 -369.5 -94.5t-237 -263t-82.5 -392.5
q0 -223 82.5 -392t237 -263.5t369.5 -94.5z" />
    <glyph glyph-name="D" unicode="D" horiz-adv-x="1401" 
d="M140 0h459q17 0 71.5 1t103.5 7q172 22 290 121.5t179 253.5t61 337t-61 337t-179 254t-290 121q-50 6 -103.5 7t-71.5 1h-459v-1440zM385 227v986h214q30 0 76 -1.5t83 -9.5q100 -19 164 -89t95.5 -172.5t31.5 -220.5q0 -113 -30 -216t-94.5 -174.5t-166.5 -91.5
q-37 -7 -83 -9t-76 -2h-214z" />
    <glyph glyph-name="E" unicode="E" horiz-adv-x="1170" 
d="M140 0h930v226h-689v407h569v226h-569v355h689v226h-930v-1440z" />
    <glyph glyph-name="F" unicode="F" horiz-adv-x="1047" 
d="M140 0h241v600h506v240h-506v359h626v241h-867v-1440z" />
    <glyph glyph-name="G" unicode="G" horiz-adv-x="1464" 
d="M734 -30q209 0 359 90.5t230.5 248.5t80.5 362q0 6 -1 37t-3 47h-510v-189h254q-28 -186 -130 -278.5t-265 -90.5q-217 3 -326 145t-108 378q1 158 49 276t144 183t241 63q143 -1 236.5 -77t134.5 -204l246 39q-55 222 -210.5 346t-421.5 124q-192 0 -344.5 -89
t-241 -257t-88.5 -404q0 -240 90.5 -407.5t243.5 -255t340 -87.5z" />
    <glyph glyph-name="H" unicode="H" horiz-adv-x="1443" 
d="M140 0h241v608h682v-608h240v1440h-240v-606h-682v606h-241v-1440z" />
    <glyph glyph-name="I" unicode="I" horiz-adv-x="561" 
d="M160 0h241v1440h-241v-1440z" />
    <glyph glyph-name="J" unicode="J" horiz-adv-x="1001" 
d="M428 -30q116 0 211 47t154 150q41 71 44.5 137.5t3.5 166.5v969h-244v-969q0 -59 -2.5 -103.5t-16.5 -76.5q-23 -50 -70 -72.5t-89 -22.5q-64 0 -117 44t-64 105l-238 -57q44 -145 153 -231.5t275 -86.5z" />
    <glyph glyph-name="K" unicode="K" horiz-adv-x="1294" 
d="M140 0h241v672l607 -672h306l-661 734l619 706h-296l-575 -668v668h-241v-1440z" />
    <glyph glyph-name="L" unicode="L" horiz-adv-x="1067" 
d="M160 0h877v226h-636v1214h-241v-1440z" />
    <glyph glyph-name="M" unicode="M" horiz-adv-x="1710" 
d="M140 0h226v923l441 -923h96l442 923v-923h225v1440h-217l-498 -1020l-498 1020h-217v-1440z" />
    <glyph glyph-name="N" unicode="N" horiz-adv-x="1436" 
d="M140 0h244v1015l668 -1015h244v1440h-244v-1015l-668 1015h-244v-1440z" />
    <glyph glyph-name="O" unicode="O" horiz-adv-x="1499" 
d="M749 -30q216 0 370.5 94.5t237 263.5t82.5 392q0 224 -82.5 392.5t-237 263t-370.5 94.5q-215 0 -369.5 -94.5t-237 -263t-82.5 -392.5q0 -223 82.5 -392t237 -263.5t369.5 -94.5zM749 197q-217 3 -326 145t-108 378q1 158 49 276t144 183.5t241 63.5q218 -3 326.5 -145
t108.5 -378q0 -157 -48.5 -275.5t-145 -183.5t-241.5 -64z" />
    <glyph glyph-name="P" unicode="P" horiz-adv-x="1277" 
d="M140 0h241v503h354q20 0 53.5 2t61.5 6q186 29 276.5 155.5t90.5 304.5q0 179 -89.5 305.5t-277.5 155.5q-28 5 -61 6.5t-54 1.5h-595v-1440zM381 728v486h344q20 0 45 -2t46 -7q60 -15 94.5 -53.5t49 -86.5t14.5 -94t-14.5 -94t-49 -86t-94.5 -53q-21 -6 -46 -8t-45 -2
h-344z" />
    <glyph glyph-name="Q" unicode="Q" horiz-adv-x="1499" 
d="M749 -30q119 0 220 30t182 85l116 -115l149 151l-114 114q137 194 137 485q0 224 -82.5 392.5t-237 263t-370.5 94.5q-215 0 -369.5 -94.5t-237 -263t-82.5 -392.5q0 -223 82.5 -392t237 -263.5t369.5 -94.5zM749 197q-217 3 -326 145t-108 378q1 158 49 276t144 183.5
t241 63.5q218 -3 326.5 -145t108.5 -378q0 -181 -62 -305l-115 115l-151 -151l125 -124q-97 -59 -232 -58z" />
    <glyph glyph-name="R" unicode="R" horiz-adv-x="1320" 
d="M140 0h241v503h342l244 -503h273l-266 546q123 55 183 167t60 258q0 179 -89.5 305.5t-277.5 155.5q-28 5 -61 6.5t-54 1.5h-595v-1440zM381 728v486h344q20 0 45 -2t46 -7q60 -15 94.5 -53.5t49 -86.5t14.5 -94t-14.5 -94t-49 -86t-94.5 -53q-21 -6 -46 -8t-45 -2h-344z
" />
    <glyph glyph-name="S" unicode="S" horiz-adv-x="1315" 
d="M673 -30q148 0 277 50t208.5 150t79.5 249q0 107 -39.5 177.5t-101 113.5t-127 67t-118.5 38l-258 72q-48 13 -96 32.5t-80 53t-32 86.5q0 56 37.5 98t99 65t133.5 21q111 -3 200 -65t112 -176l259 45q-48 200 -197 309.5t-371 111.5q-146 1 -265.5 -46.5t-190 -141.5
t-70.5 -233q0 -95 31.5 -159.5t81 -105.5t105 -65t103.5 -38l372 -110q160 -48 160 -166q0 -66 -42.5 -112.5t-110.5 -70.5t-145 -24q-130 0 -229.5 70t-131.5 198l-250 -38q23 -141 104.5 -243.5t208 -157.5t283.5 -55z" />
    <glyph glyph-name="T" unicode="T" horiz-adv-x="1213" 
d="M486 0h241v1214h466v226h-1173v-226h466v-1214z" />
    <glyph glyph-name="U" unicode="U" horiz-adv-x="1440" 
d="M720 -30q172 0 302.5 70t204 197t73.5 298v905h-244v-899q0 -107 -46.5 -184t-123 -118.5t-166.5 -41.5q-87 0 -164 41t-124.5 118t-47.5 185v899l-244 -2v-903q0 -171 73.5 -298t204.5 -197t302 -70z" />
    <glyph glyph-name="V" unicode="V" horiz-adv-x="1281" 
d="M464 0h353l454 1440h-248l-385 -1206l-380 1206h-248z" />
    <glyph glyph-name="W" unicode="W" horiz-adv-x="1951" 
d="M444 0h238l294 1024l294 -1024h238l420 1440h-253l-286 -1040l-287 1040l-253 -2l-286 -1038l-287 1040h-253z" />
    <glyph glyph-name="X" unicode="X" horiz-adv-x="1311" 
d="M20 0h297l340 523l339 -523h295l-486 728l474 712h-297l-325 -507l-328 507h-295l474 -712z" />
    <glyph glyph-name="Y" unicode="Y" horiz-adv-x="1223" 
d="M490 0h244v590l489 850h-281l-330 -574l-331 574h-281l490 -850v-590z" />
    <glyph glyph-name="Z" unicode="Z" horiz-adv-x="1327" 
d="M100 0h1110v227h-689l706 1179v34h-1077v-226h660l-710 -1181v-33z" />
    <glyph glyph-name="bracketleft" unicode="[" horiz-adv-x="847" 
d="M280 -424h437v214h-223v1790h223v214h-437v-2218z" />
    <glyph glyph-name="backslash" unicode="\" horiz-adv-x="866" 
d="M362 1440h-242l384 -1440h242z" />
    <glyph glyph-name="bracketright" unicode="]" horiz-adv-x="847" 
d="M567 -424h-437v214h223v1790h-223v214h437v-2218z" />
    <glyph glyph-name="asciicircum" unicode="^" horiz-adv-x="1361" 
d="M210.604 990.119l149.118 -149.882l330.729 342.263l331.271 -341.737l148.882 150.118l-480.381 479.619z" />
    <glyph glyph-name="underscore" unicode="_" horiz-adv-x="1320" 
d="M0 -244h1320v189h-1320v-189z" />
    <glyph glyph-name="grave" unicode="`" horiz-adv-x="1077" 
d="M458 1590h238l-76 240h-238z" />
    <glyph glyph-name="a" unicode="a" horiz-adv-x="1152" 
d="M442 -30q129 0 219.5 42.5t159.5 132.5v-145h211v663q0 70 -6 129.5t-35 116.5q-53 107 -162.5 154t-253.5 47q-190 0 -303 -83t-153 -220l220 -69q27 83 95 117t141 34q110 0 162 -44.5t59 -137.5q-142 -21 -263.5 -40.5t-206.5 -47.5q-128 -44 -187 -124.5t-59 -198.5
q0 -89 41.5 -163t122.5 -118.5t198 -44.5zM490 162q-85 0 -129.5 39t-44.5 98q0 53 34.5 86t96.5 56q57 19 137 33.5t209 34.5q-1 -38 -5 -84.5t-19 -83.5q-12 -37 -46.5 -79t-92.5 -71t-140 -29z" />
    <glyph glyph-name="b" unicode="b" horiz-adv-x="1232" 
d="M138 0h213v80q58 -52 135 -81t173 -29q150 0 260.5 75t171.5 204t61 291q0 164 -61.5 293t-174.5 203t-266 74q-81 0 -148 -21.5t-121 -61.5v413h-243v-1440zM622 186q-145 0 -208 98.5t-63 255.5q0 158 62.5 256t200.5 98q97 0 159.5 -47.5t93 -128t30.5 -178.5
q0 -99 -29.5 -179t-90.5 -127.5t-155 -47.5z" />
    <glyph glyph-name="c" unicode="c" horiz-adv-x="1151" 
d="M609 -30q181 0 306 88.5t175 253.5l-246 55q-28 -83 -83.5 -127t-151.5 -44q-136 0 -204.5 95t-69.5 249q1 149 66.5 246.5t207.5 97.5q83 0 148 -48.5t93 -135.5l240 65q-38 160 -166 252.5t-312 92.5q-164 0 -283 -73.5t-183.5 -202t-65.5 -294.5q1 -163 63.5 -292
t180.5 -203.5t285 -74.5z" />
    <glyph glyph-name="d" unicode="d" horiz-adv-x="1234" 
d="M573 -30q96 0 173 29t135 81v-80h213v1440h-243v-413q-54 40 -121 61.5t-148 21.5q-153 0 -265.5 -74t-174.5 -203t-62 -293q0 -162 61 -291t172 -204t260 -75zM610 186q-94 0 -155 47.5t-90.5 127.5t-29.5 179q0 98 30.5 178.5t93 128t159.5 47.5q138 0 200.5 -98
t62.5 -256q0 -157 -62.5 -255.5t-208.5 -98.5z" />
    <glyph glyph-name="e" unicode="e" horiz-adv-x="1204" 
d="M631 -30q156 0 285.5 80.5t191.5 227.5l-238 72q-72 -154 -253 -154q-123 0 -194 71.5t-85 205.5h782q14 195 -43 338t-174.5 221t-285.5 78q-159 0 -280 -71.5t-189 -202.5t-68 -308q0 -164 69.5 -290t193.5 -197t288 -71zM627 899q112 0 172.5 -58.5t76.5 -185.5h-532
q43 244 283 244z" />
    <glyph glyph-name="f" unicode="f" horiz-adv-x="756" 
d="M234 0h241v891h261v189h-261v69q0 56 33.5 90.5t102.5 34.5h125v196h-135q-39 0 -91 -2.5t-105.5 -22t-99.5 -70.5q-55 -60 -63 -138t-8 -140v-17h-174v-189h174v-891z" />
    <glyph glyph-name="g" unicode="g" horiz-adv-x="1232" 
d="M573 -30q84 0 153.5 22.5t124.5 62.5v-103q2 -115 -70.5 -174t-185.5 -59q-64 0 -121 29t-87 87l-222 -110q63 -110 178.5 -172.5t250.5 -62.5q183 0 314.5 74.5t168.5 231.5q8 36 11.5 73t3.5 79v1132h-211v-78q-57 52 -132 80t-167 28q-153 0 -265.5 -74t-174.5 -203
t-62 -293q0 -162 61 -291t172 -204t260 -75zM610 186q-94 0 -155 47.5t-90.5 127.5t-29.5 179q0 98 30.5 178.5t93 128t159.5 47.5q138 0 200.5 -98t62.5 -256q0 -157 -62.5 -255.5t-208.5 -98.5z" />
    <glyph glyph-name="h" unicode="h" 
d="M138 0h244v555q0 131 37.5 202.5t96 99t119.5 27.5q86 0 137 -37.5t75.5 -95t32 -119.5t7.5 -112v-520h244v603q0 38 -6.5 101t-28.5 133t-68 132.5t-124.5 102t-197.5 39.5q-117 0 -205.5 -40.5t-147.5 -110.5v480h-215v-1440z" />
    <glyph glyph-name="i" unicode="i" horiz-adv-x="561" 
d="M160 1244h241v221h-241v-221zM160 0h241v1080h-241v-1080z" />
    <glyph glyph-name="j" unicode="j" horiz-adv-x="577" 
d="M193 1244h240v221h-240v-221zM-20 -480h164q136 0 212.5 75t76.5 205v1280h-240v-1172q0 -80 -36.5 -121t-125.5 -41h-51v-226z" />
    <glyph glyph-name="k" unicode="k" horiz-adv-x="1076" 
d="M138 0h246v520l413 -520h319l-455 540l419 540h-301l-395 -520v880h-244z" />
    <glyph glyph-name="l" unicode="l" horiz-adv-x="561" 
d="M160 0h241v1470h-241v-1470z" />
    <glyph glyph-name="m" unicode="m" horiz-adv-x="1798" 
d="M138 0h243v665q0 101 55.5 164t147.5 63q95 0 150 -63t55 -176v-653h240v665q0 107 58.5 167t145.5 60q93 0 148.5 -62.5t55.5 -173.5v-656h241v717q0 176 -95.5 283t-274.5 107q-105 0 -192 -46t-137 -126q-43 79 -122 125.5t-193 46.5q-97 0 -178.5 -38.5
t-134.5 -105.5v117h-213v-1080z" />
    <glyph glyph-name="n" unicode="n" 
d="M138 0h244v555q0 131 37.5 202.5t96 99t119.5 27.5q86 0 137 -37.5t75.5 -95t32 -119.5t7.5 -112v-520h244v603q0 38 -6.5 101t-28.5 133t-68 132.5t-124.5 102t-197.5 39.5q-117 0 -205.5 -40.5t-147.5 -110.5v120h-215v-1080z" />
    <glyph glyph-name="o" unicode="o" horiz-adv-x="1236" 
d="M617 -30q162 0 283 72.5t188.5 201t67.5 296.5q0 167 -67 295.5t-188 201.5t-284 73q-159 0 -280 -72t-189 -200t-68 -298q0 -167 66.5 -295.5t187.5 -201.5t283 -73zM617 196q-139 0 -210.5 93.5t-71.5 250.5q0 153 68.5 248.5t213.5 95.5q142 0 213 -93.5t71 -250.5
q0 -152 -70.5 -248t-213.5 -96z" />
    <glyph glyph-name="p" unicode="p" horiz-adv-x="1232" 
d="M138 -480h243v535q55 -40 124.5 -62.5t153.5 -22.5q150 0 260.5 75t171.5 204t61 291q0 164 -61.5 293t-174.5 203t-266 74q-92 0 -167 -28t-132 -80v78h-213v-1560zM622 186q-145 0 -208 98.5t-63 255.5q0 158 62.5 256t200.5 98q97 0 159.5 -47.5t93 -128t30.5 -178.5
q0 -99 -29.5 -179t-90.5 -127.5t-155 -47.5z" />
    <glyph glyph-name="q" unicode="q" horiz-adv-x="1234" 
d="M573 -30q84 0 153.5 22.5t124.5 62.5v-535h243v1560h-213v-78q-57 52 -132 80t-167 28q-153 0 -265.5 -74t-174.5 -203t-62 -293q0 -162 61 -291t172 -204t260 -75zM610 186q-94 0 -155 47.5t-90.5 127.5t-29.5 179q0 98 30.5 178.5t93 128t159.5 47.5q138 0 200.5 -98
t62.5 -256q0 -157 -62.5 -255.5t-208.5 -98.5z" />
    <glyph glyph-name="r" unicode="r" horiz-adv-x="798" 
d="M140 0h242v549q0 94 34.5 167t108.5 113q50 29 112 34.5t111 -8.5v225q-73 11 -150 -2.5t-137 -54.5q-34 -21 -61 -50.5t-47 -65.5v173h-213v-1080z" />
    <glyph glyph-name="s" unicode="s" horiz-adv-x="1083" 
d="M557 -30q209 0 327.5 93t118.5 256q0 126 -79.5 198t-273.5 122q-126 32 -189.5 54t-84.5 44t-21 53q0 54 52 84.5t137 26.5q88 -5 141.5 -45t63.5 -109l246 44q-20 146 -143 232.5t-312 86.5q-193 0 -309 -90t-116 -242q0 -121 81.5 -191t284.5 -123
q122 -32 180.5 -53.5t76.5 -43.5t18 -59q0 -60 -48 -94.5t-134 -34.5q-99 0 -164.5 46t-83.5 126l-246 -38q27 -163 152 -253t325 -90z" />
    <glyph glyph-name="t" unicode="t" horiz-adv-x="866" 
d="M773 0v202q-101 -15 -180 -8t-115 67q-19 31 -20.5 80.5t-1.5 113.5v436h317v189h-317v300h-240v-300h-196v-189h196v-450q0 -93 2 -165.5t39 -142.5q42 -77 123 -112.5t183.5 -38t209.5 17.5z" />
    <glyph glyph-name="u" unicode="u" 
d="M545 -31q117 0 205.5 40.5t147.5 110.5v-120h213v1080h-242v-555q0 -131 -37.5 -202.5t-95.5 -99t-120 -27.5q-86 0 -137 37.5t-75.5 95t-32 119.5t-7.5 112v520h-244v-603q0 -38 6.5 -101t28.5 -133t68 -132.5t124.5 -102t197.5 -39.5z" />
    <glyph glyph-name="v" unicode="v" horiz-adv-x="1106" 
d="M432 0h242l392 1080h-242l-271 -783l-272 783h-241z" />
    <glyph glyph-name="w" unicode="w" horiz-adv-x="1605" 
d="M370 0h188l244 743l245 -743h188l330 1080h-236l-212 -693l-213 693h-203l-214 -693l-211 693l-236 2z" />
    <glyph glyph-name="x" unicode="x" horiz-adv-x="1108" 
d="M20 0h284l251 357l249 -357h284l-397 546l387 534h-284l-239 -345l-243 345h-284l387 -534z" />
    <glyph glyph-name="y" unicode="y" horiz-adv-x="1119" 
d="M282 -480h226l602 1560h-241l-293 -773l-302 773h-251l437 -1072z" />
    <glyph glyph-name="z" unicode="z" horiz-adv-x="1067" 
d="M40 0h923v211h-546l570 835v34h-889v-211h514l-572 -836v-33z" />
    <glyph glyph-name="braceleft" unicode="{" horiz-adv-x="898" 
d="M680 -424h137v226h-120q-28 0 -48.5 20.5t-20.5 49.5v585q0 92 -55 170l-42 58l42 58q55 78 55 170v584q0 29 20.5 49.5t48.5 20.5h120v227h-137q-129 0 -204.5 -76t-75.5 -204v-601q0 -20 -12 -38l-88 -126q-44 -64 0 -128l88 -126q12 -15 12 -38v-601q0 -130 75.5 -205
t204.5 -75z" />
    <glyph glyph-name="bar" unicode="|" horiz-adv-x="601" 
d="M180 0h241v1440h-241v-1440z" />
    <glyph glyph-name="braceright" unicode="}" horiz-adv-x="898" 
d="M218 -424h-137v226h120q28 0 48.5 20.5t20.5 49.5v585q0 92 55 170l42 58l-42 58q-55 78 -55 170v584q0 29 -20.5 49.5t-48.5 20.5h-120v227h137q129 0 204.5 -76t75.5 -204v-601q0 -20 12 -38l88 -126q44 -64 0 -128l-88 -126q-12 -15 -12 -38v-601q0 -130 -75.5 -205
t-204.5 -75z" />
    <glyph glyph-name="asciitilde" unicode="~" horiz-adv-x="1432" 
d="M951 409q110 0 173 54.5t80.5 146.5t-9.5 205h-215q19 -68 2.5 -114t-61.5 -46q-41 0 -90 29.5t-104.5 68.5t-117 68.5t-128.5 29.5q-110 0 -173 -54t-80.5 -146t10.5 -204h214q-19 65 -2.5 111t61.5 46q41 0 90 -29.5t104.5 -68t117 -68t128.5 -29.5z" />
    <glyph glyph-name="uni00A0" unicode="&#xa0;" horiz-adv-x="400" 
 />
    <glyph glyph-name="exclamdown" unicode="&#xa1;" horiz-adv-x="721" 
d="M240 720h241v-1080h-241v1080zM240 1080h241v-221h-241v221z" />
    <glyph glyph-name="cent" unicode="&#xa2;" horiz-adv-x="1151" 
d="M526 -58h189v187q139 24 235.5 109t139.5 224l-246 55q-28 -83 -83.5 -127t-151.5 -44q-136 0 -204.5 95t-69.5 249q1 149 66.5 246.5t207.5 97.5q83 0 148 -48.5t93 -135.5l240 65q-33 137 -132.5 224.5t-242.5 111.5v189h-189v-187q-139 -19 -238.5 -95.5t-153 -197
t-54.5 -270.5q1 -149 53 -270t152 -198.5t241 -96.5v-183z" />
    <glyph glyph-name="sterling" unicode="&#xa3;" horiz-adv-x="1142" 
d="M77 0h894v226h-475v383h304v227h-303v237q0 74 44.5 122t117.5 48t116.5 -55.5t73.5 -153.5l216 71q-55 160 -151.5 262.5t-253.5 102.5q-114 0 -206.5 -50.5t-147 -137.5t-54.5 -197v-249h-175v-227h175v-234q0 -59 -43.5 -104t-104.5 -45h-27v-226z" />
    <glyph glyph-name="currency" unicode="&#xa4;" horiz-adv-x="1341" 
d="M220 110l169 168q61 -39 132.5 -60.5t148.5 -21.5q78 0 149.5 21.5t133.5 60.5l168 -168l160 160l-168 168q39 62 61 134t22 150q0 77 -21.5 148t-60.5 132l167 167l-160 161l-167 -167q-62 39 -134 61t-150 22t-149.5 -22t-133.5 -61l-167 167l-160 -161l167 -167
q-38 -61 -59.5 -132t-21.5 -148q0 -78 22 -150t61 -133l-169 -169zM670 400q-88 0 -161 44t-116 117t-43 159q0 89 43 161.5t116 115.5t161 43q87 0 160 -43t117 -115.5t44 -161.5q0 -86 -43 -159t-116 -117t-162 -44z" />
    <glyph glyph-name="yen" unicode="&#xa5;" horiz-adv-x="1223" 
d="M202 197h288v-197h244v197h288v189h-288v138h288v189h-217l418 727h-281l-330 -574l-331 574h-281l419 -727h-217v-189h288v-138h-288v-189z" />
    <glyph glyph-name="brokenbar" unicode="&#xa6;" horiz-adv-x="601" 
d="M180 625h241v815h-241v-815zM180 -408h241v815h-241v-815z" />
    <glyph glyph-name="section" unicode="&#xa7;" horiz-adv-x="1083" 
d="M557 -280q122 0 218.5 40.5t152 119t55.5 193.5q0 81 -31 135t-92 92q70 33 108 95.5t38 150.5q0 134 -90 198.5t-263 111.5q-86 24 -153 41.5t-104.5 42.5t-37.5 72q0 53 44.5 80t106.5 27q73 0 121 -37.5t62 -117.5l246 44q-14 104 -75.5 175t-152 107.5t-192.5 36.5
q-97 0 -189 -35.5t-151 -108.5t-59 -188q0 -88 39.5 -145t117.5 -97q-77 -31 -129 -90.5t-52 -151.5q0 -118 93.5 -184t272.5 -113q102 -26 162 -45t86.5 -43.5t26.5 -67.5q0 -66 -50.5 -97.5t-113.5 -31.5q-74 0 -138.5 43t-84.5 129l-246 -38q31 -177 157.5 -260
t296.5 -83zM630 389q-91 25 -157 43t-102 42.5t-36 70.5q0 48 37.5 80t106.5 57q2 0 5 -1q102 -26 162 -45t86.5 -43.5t26.5 -67.5q0 -51 -30 -87.5t-71 -56.5z" />
    <glyph glyph-name="dieresis" unicode="&#xa8;" horiz-adv-x="1113" 
d="M653 1607h220v220h-220v-220zM240 1607h220v220h-220v-220z" />
    <glyph glyph-name="copyright" unicode="&#xa9;" horiz-adv-x="1773" 
d="M886 -118q171 0 321 64t264 177.5t178 263.5t64 321t-64 321t-178 263.5t-264 177.5t-321 64t-320.5 -64t-263.5 -177.5t-178 -263.5t-64 -321t64 -321t178 -263.5t263.5 -177.5t320.5 -64zM886 108q-124 0 -233 46.5t-191.5 129t-129 191.5t-46.5 233q0 125 46.5 233.5
t129 191t191.5 129t233 46.5q125 0 233.5 -46.5t191 -129t129 -191t46.5 -233.5q0 -124 -46.5 -233t-129 -191.5t-191 -129t-233.5 -46.5zM902 282q76 0 130 17t99 50q93 69 131 192l-188 40q-10 -27 -23 -48.5t-36 -42.5q-39 -35 -111 -35q-103 0 -155 74q-27 38 -38.5 84
t-11.5 96q0 49 10.5 96.5t39.5 84.5q27 34 65 53.5t87 19.5q64 0 111 -38q47 -40 66 -100l184 50q-16 70 -55.5 121.5t-94.5 85.5q-50 31 -97.5 42t-103.5 11q-106 0 -180 -33.5t-129 -101.5q-98 -119 -98 -291q0 -81 23 -154.5t75 -139.5q107 -133 300 -133z" />
    <glyph glyph-name="ordfeminine" unicode="&#xaa;" horiz-adv-x="1152" 
d="M442 -30q129 0 219.5 42.5t159.5 132.5v-145h211v663q0 70 -6 129.5t-35 116.5q-53 107 -162.5 154t-253.5 47q-190 0 -303 -83t-153 -220l220 -69q27 83 95 117t141 34q110 0 162 -44.5t59 -137.5q-142 -21 -263.5 -40.5t-206.5 -47.5q-128 -44 -187 -124.5t-59 -198.5
q0 -89 41.5 -163t122.5 -118.5t198 -44.5zM490 162q-85 0 -129.5 39t-44.5 98q0 53 34.5 86t96.5 56q57 19 137 33.5t209 34.5q-1 -38 -5 -84.5t-19 -83.5q-12 -37 -46.5 -79t-92.5 -71t-140 -29z" />
    <glyph glyph-name="guillemotleft" unicode="&#xab;" horiz-adv-x="1172" 
d="M920 97l129 101l-272 342l272 342l-129 101l-352 -443zM512 97l129 101l-273 342l273 342l-129 101l-352 -443z" />
    <glyph glyph-name="logicalnot" unicode="&#xac;" horiz-adv-x="1200" 
d="M891 372h189v423h-960v-189h771v-234z" />
    <glyph glyph-name="uni00AD" unicode="&#xad;" horiz-adv-x="840" 
d="M120 536h600v189h-600v-189z" />
    <glyph glyph-name="registered" unicode="&#xae;" horiz-adv-x="1310" 
d="M654 546q143 0 260 69.5t186.5 187t69.5 259.5q0 141 -69.5 258t-186.5 186.5t-260 69.5q-141 0 -258 -69.5t-186.5 -186.5t-69.5 -258q0 -142 69.5 -259.5t186.5 -187t258 -69.5zM656 706q-98 0 -179 48.5t-128.5 129.5t-47.5 178q0 98 47.5 178.5t128.5 128.5t179 48
q97 0 177.5 -48t129 -128.5t48.5 -178.5q0 -97 -48.5 -178t-129 -129.5t-177.5 -48.5zM489 826h87v162h103l79 -162h98l-88 178q42 23 62.5 59.5t20.5 79.5q-2 70 -44.5 113t-116.5 43h-201v-473zM576 1069v147h117q69 0 69 -73q0 -32 -19.5 -53t-49.5 -21h-117z" />
    <glyph glyph-name="macron" unicode="&#xaf;" horiz-adv-x="1013" 
d="M240 1680h533v187h-533v-187z" />
    <glyph glyph-name="degree" unicode="&#xb0;" horiz-adv-x="900" 
d="M420 750q99 0 180.5 48.5t130.5 130t49 181.5t-49 181.5t-130.5 130t-180.5 48.5q-96 0 -178 -49t-132 -131t-50 -180q0 -100 48.5 -181.5t130.5 -130t181 -48.5zM420 956q-62 0 -108 46t-46 108t46 108t108 46t108 -46t46 -108t-46 -108t-108 -46z" />
    <glyph glyph-name="plusminus" unicode="&#xb1;" horiz-adv-x="1200" 
d="M506 440h189v226h385v189h-385v225h-189v-225h-386v-189h386v-226zM120 129h960v189h-960v-189z" />
    <glyph glyph-name="uni00B2" unicode="&#xb2;" horiz-adv-x="824" 
d="M100 540h624v147h-382l223 199q52 46 87.5 82.5t53.5 80t18 108.5q0 89 -40 157.5t-109 107t-156 38.5q-142 0 -230 -81t-88 -218h161q-3 61 41.5 107t112.5 46q65 0 106 -44t41 -111q0 -31 -17.5 -66t-61.5 -75l-384 -342v-136z" />
    <glyph glyph-name="uni00B3" unicode="&#xb3;" horiz-adv-x="808" 
d="M378 518q85 0 155 39t112.5 107.5t42.5 154.5q0 101 -56 179.5t-158 101.5l200 192v148h-558v-148h368l-255 -218l72 -122q38 20 76 20q67 0 109.5 -44t42.5 -109q0 -64 -43 -108t-108 -44q-49 -1 -90 27t-57 83l-151 -41q29 -100 112.5 -159t185.5 -59z" />
    <glyph glyph-name="acute" unicode="&#xb4;" horiz-adv-x="1077" 
d="M619 1590l76 240h-238l-76 -240h238z" />
    <glyph glyph-name="uni00B5" unicode="&#xb5;" horiz-adv-x="1269" 
d="M138 -480h213v508q41 -28 94 -43.5t118 -15.5q116 0 205.5 40.5t147.5 112.5v-122h213v1080h-242v-555q0 -131 -37.5 -202.5t-95.5 -99t-119 -27.5q-87 0 -137.5 37.5t-75.5 95t-32.5 119.5t-7.5 112v520h-244v-1560z" />
    <glyph glyph-name="paragraph" unicode="&#xb6;" horiz-adv-x="1430" 
d="M673 -282h241v1722h-335q-10 0 -43 -1t-73 -7q-124 -18 -205.5 -83t-121 -162.5t-39.5 -215.5q0 -178 91.5 -306t274.5 -154q40 -6 73.5 -7t42.5 -1h94v-785zM1093 -282h241v1722h-241v-1722z" />
    <glyph glyph-name="periodcentered" unicode="&#xb7;" horiz-adv-x="533" 
d="M270 483q58 0 100.5 42t42.5 105t-42.5 105t-100.5 42q-63 0 -106.5 -42t-43.5 -105t43.5 -105t106.5 -42z" />
    <glyph glyph-name="cedilla" unicode="&#xb8;" horiz-adv-x="827" 
d="M378 -483q85 0 147.5 60t62.5 154q0 65 -32.5 111t-89.5 74l40 116l-146 -1l-71 -205q52 -15 91.5 -33t39.5 -57q0 -19 -16.5 -36.5t-46.5 -17.5q-22 0 -64 14l-53 -143q29 -16 63.5 -26t74.5 -10z" />
    <glyph glyph-name="uni00B9" unicode="&#xb9;" horiz-adv-x="688" 
d="M289 540h159v900h-159l-169 -101v-172l169 104v-731z" />
    <glyph glyph-name="ordmasculine" unicode="&#xba;" horiz-adv-x="1236" 
d="M617 -30q162 0 283 72.5t188.5 201t67.5 296.5q0 167 -67 295.5t-188 201.5t-284 73q-159 0 -280 -72t-189 -200t-68 -298q0 -167 66.5 -295.5t187.5 -201.5t283 -73zM617 196q-139 0 -210.5 93.5t-71.5 250.5q0 153 68.5 248.5t213.5 95.5q142 0 213 -93.5t71 -250.5
q0 -152 -70.5 -248t-213.5 -96z" />
    <glyph glyph-name="guillemotright" unicode="&#xbb;" horiz-adv-x="1172" 
d="M252 97l-129 101l272 342l-272 342l129 101l352 -443zM660 97l-129 101l273 342l-273 342l129 101l352 -443z" />
    <glyph glyph-name="onequarter" unicode="&#xbc;" horiz-adv-x="2071" 
d="M524 0l985 1345l-140 107l-986 -1347zM289 540h159v900h-159l-169 -101v-172l169 104v-731zM1591 0h157v146h83v147h-83v231h-157v-231h-219l287 607h-179l-287 -607v-147h398v-146z" />
    <glyph glyph-name="onehalf" unicode="&#xbd;" horiz-adv-x="2028" 
d="M524 0l985 1345l-140 107l-986 -1347zM289 540h159v900h-159l-169 -101v-172l169 104v-731zM1304 0h624v147h-382l223 199q52 46 87.5 82.5t53.5 80t18 108.5q0 89 -40 157.5t-109 107t-156 38.5q-142 0 -230 -81t-88 -218h161q-3 61 41.5 107t112.5 46q65 0 106 -44
t41 -111q0 -31 -17.5 -66t-61.5 -75l-384 -342v-136z" />
    <glyph glyph-name="threequarters" unicode="&#xbe;" horiz-adv-x="2056" 
d="M644 0l985 1345l-140 107l-986 -1347zM378 518q85 0 155 39t112.5 107.5t42.5 154.5q0 101 -56 179.5t-158 101.5l200 192v148h-558v-148h368l-255 -218l72 -122q38 20 76 20q67 0 109.5 -44t42.5 -109q0 -64 -43 -108t-108 -44q-49 -1 -90 27t-57 83l-151 -41
q29 -100 112.5 -159t185.5 -59zM1696 0h157v146h83v147h-83v231h-157v-231h-219l287 607h-179l-287 -607v-147h398v-146z" />
    <glyph glyph-name="questiondown" unicode="&#xbf;" horiz-adv-x="1106" 
d="M705 689h-255q0 -58 -5 -90.5t-33 -79.5q-25 -41 -66.5 -76t-88.5 -86q-68 -72 -112.5 -157t-44.5 -188q0 -69 24 -136t68 -118q64 -78 162 -112t208 -34q72 0 143 21.5t129 62.5q73 51 117.5 136.5t54.5 185.5h-254q3 -88 -57 -136q-26 -23 -63.5 -33t-78.5 -10
q-50 0 -94 15.5t-72 52.5q-18 22 -25 50.5t-7 61.5q0 52 13.5 96t53.5 89q50 53 91 85t74 63t60 84q31 55 44.5 119.5t13.5 133.5zM703 1080h-253v-265h253v265z" />
    <glyph glyph-name="Agrave" unicode="&#xc0;" horiz-adv-x="1341" 
d="M532 1590l-76 240h238l76 -240h-238zM1301 0h-248l-98 312h-568l-99 -312h-248l454 1440h353zM884 537l-211 670l-214 -670h425z" />
    <glyph glyph-name="Aacute" unicode="&#xc1;" horiz-adv-x="1341" 
d="M809 1590l76 240h-238l-76 -240h238zM40 0h248l98 312h568l99 -312h248l-454 1440h-353zM457 537l211 670l214 -670h-425z" />
    <glyph glyph-name="Acircumflex" unicode="&#xc2;" horiz-adv-x="1341" 
d="M419 1572l253 138l253 -138l88 153l-341 187l-341 -187zM40 0h248l98 312h568l99 -312h248l-454 1440h-353zM457 537l211 670l214 -670h-425z" />
    <glyph glyph-name="Atilde" unicode="&#xc3;" horiz-adv-x="1341" 
d="M838 1650q117 0 159.5 84t13.5 204h-152q14 -48 2 -80.5t-44 -32.5q-29 0 -64 21t-74 48.5t-83 48.5t-91 21q-117 0 -159.5 -83.5t-13.5 -203.5h152q-13 47 -1.5 79.5t43.5 32.5q29 0 64 -21t74 -48.5t83 -48.5t91 -21zM40 0h248l98 312h568l99 -312h248l-454 1440h-353z
M457 537l211 670l214 -670h-425z" />
    <glyph glyph-name="Adieresis" unicode="&#xc4;" horiz-adv-x="1341" 
d="M768 1607h220v220h-220v-220zM355 1607h220v220h-220v-220zM40 0h248l98 312h568l99 -312h248l-454 1440h-353zM457 537l211 670l214 -670h-425z" />
    <glyph glyph-name="Aring" unicode="&#xc5;" horiz-adv-x="1341" 
d="M672 1552q71 0 129.5 35t93 93.5t34.5 128.5q0 71 -34.5 129.5t-93 93t-129.5 34.5q-70 0 -128.5 -34.5t-93.5 -93t-35 -129.5q0 -70 35 -128.5t93.5 -93.5t128.5 -35zM672 1689q-49 0 -84.5 35.5t-35.5 84.5q0 50 35.5 85t84.5 35q50 0 85 -35t35 -85q0 -49 -35 -84.5
t-85 -35.5zM40 0h248l98 312h568l99 -312h248l-454 1440h-353zM457 537l211 670l214 -670h-425z" />
    <glyph glyph-name="AE" unicode="&#xc6;" horiz-adv-x="1877" 
d="M40 0h248l98 312h461v-312h930v226h-689v407h569v226h-569v355h689v226h-1283zM457 537l212 677h178v-677h-390z" />
    <glyph glyph-name="Ccedilla" unicode="&#xc7;" horiz-adv-x="1477" 
d="M727 -483q85 0 147.5 60t62.5 154q0 65 -32.5 111t-89.5 74l20 58q213 21 357 142t205 314l-243 67q-42 -140 -143 -220t-262 -80q-217 0 -326.5 143.5t-109.5 379.5q1 236 110 379.5t326 143.5q161 0 262 -80t143 -220l243 67q-67 212 -233.5 336t-414.5 124
q-215 0 -369.5 -94.5t-237 -263t-82.5 -392.5q0 -213 75 -376.5t215.5 -260.5t338.5 -111l-51 -146q52 -15 91.5 -33t39.5 -57q0 -19 -16.5 -36.5t-46.5 -17.5q-22 0 -64 14l-53 -143q29 -16 63.5 -26t74.5 -10z" />
    <glyph glyph-name="Egrave" unicode="&#xc8;" horiz-adv-x="1170" 
d="M512 1590h238l-76 240h-238zM140 0h930v226h-689v407h569v226h-569v355h689v226h-930v-1440z" />
    <glyph glyph-name="Eacute" unicode="&#xc9;" horiz-adv-x="1170" 
d="M745 1590l76 240h-238l-76 -240h238zM140 0h930v226h-689v407h569v226h-569v355h689v226h-930v-1440z" />
    <glyph glyph-name="Ecircumflex" unicode="&#xca;" horiz-adv-x="1170" 
d="M342 1572l253 138l253 -138l88 153l-341 187l-341 -187zM140 0h930v226h-689v407h569v226h-569v355h689v226h-930v-1440z" />
    <glyph glyph-name="Edieresis" unicode="&#xcb;" horiz-adv-x="1170" 
d="M695 1607h220v220h-220v-220zM282 1607h220v220h-220v-220zM140 0h930v226h-689v407h569v226h-569v355h689v226h-930v-1440z" />
    <glyph glyph-name="Igrave" unicode="&#xcc;" horiz-adv-x="561" 
d="M163 1590h238l-76 240h-238zM160 0h241v1440h-241v-1440z" />
    <glyph glyph-name="Iacute" unicode="&#xcd;" horiz-adv-x="561" 
d="M397 1590l76 240h-238l-76 -240h238zM160 0h241v1440h-241v-1440z" />
    <glyph glyph-name="Icircumflex" unicode="&#xce;" horiz-adv-x="561" 
d="M27 1572l253 138l253 -138l88 153l-341 187l-341 -187zM160 0h241v1440h-241v-1440z" />
    <glyph glyph-name="Idieresis" unicode="&#xcf;" horiz-adv-x="561" 
d="M377 1607h220v220h-220v-220zM-36 1607h220v220h-220v-220zM160 0h241v1440h-241v-1440z" />
    <glyph glyph-name="Eth" unicode="&#xd0;" horiz-adv-x="1404" 
d="M143 0h459q17 0 71.5 1t103.5 7q172 22 290 121.5t179 253.5t61 337t-61 337t-179 254t-290 121q-50 6 -103.5 7t-71.5 1h-459v-625h-123v-189h123v-626zM388 227v399h307v189h-307v398h214q30 0 76 -1.5t83 -9.5q100 -19 164 -89t95.5 -172.5t31.5 -220.5
q0 -113 -30 -216t-94.5 -174.5t-166.5 -91.5q-37 -7 -83 -9t-76 -2h-214z" />
    <glyph glyph-name="Ntilde" unicode="&#xd1;" horiz-adv-x="1436" 
d="M907 1600q117 0 159.5 84t13.5 204h-152q14 -48 2 -80.5t-44 -32.5q-29 0 -64 21t-74 48.5t-83 48.5t-91 21q-117 0 -159.5 -83.5t-13.5 -203.5h152q-13 47 -1.5 79.5t43.5 32.5q29 0 64 -21t74 -48.5t83 -48.5t91 -21zM140 0h244v1015l668 -1015h244v1440h-244v-1015
l-668 1015h-244v-1440z" />
    <glyph glyph-name="Ograve" unicode="&#xd2;" horiz-adv-x="1499" 
d="M614 1590h238l-76 240h-238zM749 -30q216 0 370.5 94.5t237 263.5t82.5 392q0 224 -82.5 392.5t-237 263t-370.5 94.5q-215 0 -369.5 -94.5t-237 -263t-82.5 -392.5q0 -223 82.5 -392t237 -263.5t369.5 -94.5zM749 197q-217 3 -326 145t-108 378q1 158 49 276t144 183.5
t241 63.5q218 -3 326.5 -145t108.5 -378q0 -157 -48.5 -275.5t-145 -183.5t-241.5 -64z" />
    <glyph glyph-name="Oacute" unicode="&#xd3;" horiz-adv-x="1499" 
d="M873 1590l76 240h-238l-76 -240h238zM749 -30q216 0 370.5 94.5t237 263.5t82.5 392q0 224 -82.5 392.5t-237 263t-370.5 94.5q-215 0 -369.5 -94.5t-237 -263t-82.5 -392.5q0 -223 82.5 -392t237 -263.5t369.5 -94.5zM749 197q-217 3 -326 145t-108 378q1 158 49 276
t144 183.5t241 63.5q218 -3 326.5 -145t108.5 -378q0 -157 -48.5 -275.5t-145 -183.5t-241.5 -64z" />
    <glyph glyph-name="Ocircumflex" unicode="&#xd4;" horiz-adv-x="1499" 
d="M496 1572l253 138l253 -138l88 153l-341 187l-341 -187zM749 -30q216 0 370.5 94.5t237 263.5t82.5 392q0 224 -82.5 392.5t-237 263t-370.5 94.5q-215 0 -369.5 -94.5t-237 -263t-82.5 -392.5q0 -223 82.5 -392t237 -263.5t369.5 -94.5zM749 197q-217 3 -326 145
t-108 378q1 158 49 276t144 183.5t241 63.5q218 -3 326.5 -145t108.5 -378q0 -157 -48.5 -275.5t-145 -183.5t-241.5 -64z" />
    <glyph glyph-name="Otilde" unicode="&#xd5;" horiz-adv-x="1499" 
d="M749 -30q216 0 370.5 94.5t237 263.5t82.5 392q0 224 -82.5 392.5t-237 263t-370.5 94.5q-215 0 -369.5 -94.5t-237 -263t-82.5 -392.5q0 -223 82.5 -392t237 -263.5t369.5 -94.5zM749 197q-217 3 -326 145t-108 378q1 158 49 276t144 183.5t241 63.5q218 -3 326.5 -145
t108.5 -378q0 -157 -48.5 -275.5t-145 -183.5t-241.5 -64zM929 1600q117 0 159.5 84t13.5 204h-152q14 -48 2 -80.5t-44 -32.5q-29 0 -64 21t-74 48.5t-83 48.5t-91 21q-117 0 -159.5 -83.5t-13.5 -203.5h152q-13 47 -1.5 79.5t43.5 32.5q29 0 64 -21t74 -48.5t83 -48.5
t91 -21z" />
    <glyph glyph-name="Odieresis" unicode="&#xd6;" horiz-adv-x="1499" 
d="M846 1607h220v220h-220v-220zM433 1607h220v220h-220v-220zM749 -30q216 0 370.5 94.5t237 263.5t82.5 392q0 224 -82.5 392.5t-237 263t-370.5 94.5q-215 0 -369.5 -94.5t-237 -263t-82.5 -392.5q0 -223 82.5 -392t237 -263.5t369.5 -94.5zM749 197q-217 3 -326 145
t-108 378q1 158 49 276t144 183.5t241 63.5q218 -3 326.5 -145t108.5 -378q0 -157 -48.5 -275.5t-145 -183.5t-241.5 -64z" />
    <glyph glyph-name="multiply" unicode="&#xd7;" horiz-adv-x="1013" 
d="M760.489 334.491l133.641 133.64l-253.139 253.14l251.725 251.725l-133.641 133.641l-251.725 -251.725l-252.433 252.432l-133.64 -133.641l252.432 -252.432l-253.139 -253.14l133.64 -133.64l253.14 253.139z" />
    <glyph glyph-name="Oslash" unicode="&#xd8;" horiz-adv-x="1499" 
d="M250 -26l99 110q80 -55 180.5 -84.5t219.5 -29.5q216 0 370.5 94.5t237 263.5t82.5 392q0 266 -116 453l125 139l-170 153l-110 -123q-82 62 -187.5 95t-231.5 33q-215 0 -369.5 -94.5t-237 -263t-82.5 -392.5q0 -281 129 -473l-109 -122zM315 720q1 158 49 276
t144 183.5t241 63.5q158 -2 263 -82l-647 -722q-51 117 -50 281zM749 197q-144 2 -244 69l637 713q42 -110 42 -259q0 -157 -48.5 -275.5t-145 -183.5t-241.5 -64z" />
    <glyph glyph-name="Ugrave" unicode="&#xd9;" horiz-adv-x="1440" 
d="M624 1590h238l-76 240h-238zM720 -30q172 0 302.5 70t204 197t73.5 298v905h-244v-899q0 -107 -46.5 -184t-123 -118.5t-166.5 -41.5q-87 0 -164 41t-124.5 118t-47.5 185v899l-244 -2v-903q0 -171 73.5 -298t204.5 -197t302 -70z" />
    <glyph glyph-name="Uacute" unicode="&#xda;" horiz-adv-x="1440" 
d="M828 1590l76 240h-238l-76 -240h238zM720 -30q172 0 302.5 70t204 197t73.5 298v905h-244v-899q0 -107 -46.5 -184t-123 -118.5t-166.5 -41.5q-87 0 -164 41t-124.5 118t-47.5 185v899l-244 -2v-903q0 -171 73.5 -298t204.5 -197t302 -70z" />
    <glyph glyph-name="Ucircumflex" unicode="&#xdb;" horiz-adv-x="1440" 
d="M467 1572l253 138l253 -138l88 153l-341 187l-341 -187zM720 -30q172 0 302.5 70t204 197t73.5 298v905h-244v-899q0 -107 -46.5 -184t-123 -118.5t-166.5 -41.5q-87 0 -164 41t-124.5 118t-47.5 185v899l-244 -2v-903q0 -171 73.5 -298t204.5 -197t302 -70z" />
    <glyph glyph-name="Udieresis" unicode="&#xdc;" horiz-adv-x="1440" 
d="M816 1607h220v220h-220v-220zM403 1607h220v220h-220v-220zM720 -30q172 0 302.5 70t204 197t73.5 298v905h-244v-899q0 -107 -46.5 -184t-123 -118.5t-166.5 -41.5q-87 0 -164 41t-124.5 118t-47.5 185v899l-244 -2v-903q0 -171 73.5 -298t204.5 -197t302 -70z" />
    <glyph glyph-name="Yacute" unicode="&#xdd;" horiz-adv-x="1223" 
d="M719 1590l76 240h-238l-76 -240h238zM490 0h244v590l489 850h-281l-330 -574l-331 574h-281l490 -850v-590z" />
    <glyph glyph-name="Thorn" unicode="&#xde;" horiz-adv-x="1260" 
d="M140 0h244v253h343q113 0 212.5 50t161.5 134q47 59 74 133t25 150q-2 161 -102 287q-41 56 -99 96.5t-125 61.5q-35 11 -72 17.5t-75 6.5h-343v251h-244v-1440zM384 479v482h341q46 0 92 -23t77 -58q30 -32 45 -74t16 -86q2 -40 -12 -77.5t-38 -69.5q-34 -45 -84 -69.5
t-96 -24.5h-341z" />
    <glyph glyph-name="germandbls" unicode="&#xdf;" horiz-adv-x="1268" 
d="M689 -30q223 0 341 121.5t118 332.5q0 137 -67.5 236t-170.5 136q62 47 91.5 116.5t29.5 152.5q0 118 -59.5 209t-161 143.5t-227.5 52.5q-143 0 -261.5 -63.5t-164.5 -207.5q-10 -31 -14.5 -64t-4.5 -74v-1061h244v995q0 44 6 84t19 66q27 55 74.5 77t102.5 22
q82 0 143 -48t61 -136q0 -87 -54 -135.5t-149 -55.5v-211q143 -1 232.5 -56.5t89.5 -174.5q0 -111 -69 -166t-183 -55q-47 0 -85 9t-67 21v-236q36 -16 79.5 -23t106.5 -7z" />
    <glyph glyph-name="agrave" unicode="&#xe0;" horiz-adv-x="1152" 
d="M476 1230h238l-76 240h-238zM442 -30q129 0 219.5 42.5t159.5 132.5v-145h211v663q0 70 -6 129.5t-35 116.5q-53 107 -162.5 154t-253.5 47q-190 0 -303 -83t-153 -220l220 -69q27 83 95 117t141 34q110 0 162 -44.5t59 -137.5q-142 -21 -263.5 -40.5t-206.5 -47.5
q-128 -44 -187 -124.5t-59 -198.5q0 -89 41.5 -163t122.5 -118.5t198 -44.5zM490 162q-85 0 -129.5 39t-44.5 98q0 53 34.5 86t96.5 56q57 19 137 33.5t209 34.5q-1 -38 -5 -84.5t-19 -83.5q-12 -37 -46.5 -79t-92.5 -71t-140 -29z" />
    <glyph glyph-name="aacute" unicode="&#xe1;" horiz-adv-x="1152" 
d="M708 1230l76 240h-238l-76 -240h238zM442 -30q129 0 219.5 42.5t159.5 132.5v-145h211v663q0 70 -6 129.5t-35 116.5q-53 107 -162.5 154t-253.5 47q-190 0 -303 -83t-153 -220l220 -69q27 83 95 117t141 34q110 0 162 -44.5t59 -137.5q-142 -21 -263.5 -40.5
t-206.5 -47.5q-128 -44 -187 -124.5t-59 -198.5q0 -89 41.5 -163t122.5 -118.5t198 -44.5zM490 162q-85 0 -129.5 39t-44.5 98q0 53 34.5 86t96.5 56q57 19 137 33.5t209 34.5q-1 -38 -5 -84.5t-19 -83.5q-12 -37 -46.5 -79t-92.5 -71t-140 -29z" />
    <glyph glyph-name="acircumflex" unicode="&#xe2;" horiz-adv-x="1152" 
d="M340 1212l253 138l253 -138l88 153l-341 187l-341 -187zM442 -30q129 0 219.5 42.5t159.5 132.5v-145h211v663q0 70 -6 129.5t-35 116.5q-53 107 -162.5 154t-253.5 47q-190 0 -303 -83t-153 -220l220 -69q27 83 95 117t141 34q110 0 162 -44.5t59 -137.5
q-142 -21 -263.5 -40.5t-206.5 -47.5q-128 -44 -187 -124.5t-59 -198.5q0 -89 41.5 -163t122.5 -118.5t198 -44.5zM490 162q-85 0 -129.5 39t-44.5 98q0 53 34.5 86t96.5 56q57 19 137 33.5t209 34.5q-1 -38 -5 -84.5t-19 -83.5q-12 -37 -46.5 -79t-92.5 -71t-140 -29z" />
    <glyph glyph-name="atilde" unicode="&#xe3;" horiz-adv-x="1152" 
d="M775 1240q117 0 159.5 84t13.5 204h-152q14 -48 2 -80.5t-44 -32.5q-29 0 -64 21t-74 48.5t-83 48.5t-91 21q-117 0 -159.5 -83.5t-13.5 -203.5h152q-13 47 -1.5 79.5t43.5 32.5q29 0 64 -21t74 -48.5t83 -48.5t91 -21zM442 -30q129 0 219.5 42.5t159.5 132.5v-145h211
v663q0 70 -6 129.5t-35 116.5q-53 107 -162.5 154t-253.5 47q-190 0 -303 -83t-153 -220l220 -69q27 83 95 117t141 34q110 0 162 -44.5t59 -137.5q-142 -21 -263.5 -40.5t-206.5 -47.5q-128 -44 -187 -124.5t-59 -198.5q0 -89 41.5 -163t122.5 -118.5t198 -44.5zM490 162
q-85 0 -129.5 39t-44.5 98q0 53 34.5 86t96.5 56q57 19 137 33.5t209 34.5q-1 -38 -5 -84.5t-19 -83.5q-12 -37 -46.5 -79t-92.5 -71t-140 -29z" />
    <glyph glyph-name="adieresis" unicode="&#xe4;" horiz-adv-x="1152" 
d="M691 1247h220v220h-220v-220zM278 1247h220v220h-220v-220zM442 -30q129 0 219.5 42.5t159.5 132.5v-145h211v663q0 70 -6 129.5t-35 116.5q-53 107 -162.5 154t-253.5 47q-190 0 -303 -83t-153 -220l220 -69q27 83 95 117t141 34q110 0 162 -44.5t59 -137.5
q-142 -21 -263.5 -40.5t-206.5 -47.5q-128 -44 -187 -124.5t-59 -198.5q0 -89 41.5 -163t122.5 -118.5t198 -44.5zM490 162q-85 0 -129.5 39t-44.5 98q0 53 34.5 86t96.5 56q57 19 137 33.5t209 34.5q-1 -38 -5 -84.5t-19 -83.5q-12 -37 -46.5 -79t-92.5 -71t-140 -29z" />
    <glyph glyph-name="aring" unicode="&#xe5;" horiz-adv-x="1152" 
d="M589 1192q71 0 129.5 35t93 93.5t34.5 128.5q0 71 -34.5 129.5t-93 93t-129.5 34.5q-70 0 -128.5 -34.5t-93.5 -93t-35 -129.5q0 -70 35 -128.5t93.5 -93.5t128.5 -35zM589 1329q-49 0 -84.5 35.5t-35.5 84.5q0 50 35.5 85t84.5 35q50 0 85 -35t35 -85q0 -49 -35 -84.5
t-85 -35.5zM442 -30q129 0 219.5 42.5t159.5 132.5v-145h211v663q0 70 -6 129.5t-35 116.5q-53 107 -162.5 154t-253.5 47q-190 0 -303 -83t-153 -220l220 -69q27 83 95 117t141 34q110 0 162 -44.5t59 -137.5q-142 -21 -263.5 -40.5t-206.5 -47.5q-128 -44 -187 -124.5
t-59 -198.5q0 -89 41.5 -163t122.5 -118.5t198 -44.5zM490 162q-85 0 -129.5 39t-44.5 98q0 53 34.5 86t96.5 56q57 19 137 33.5t209 34.5q-1 -38 -5 -84.5t-19 -83.5q-12 -37 -46.5 -79t-92.5 -71t-140 -29z" />
    <glyph glyph-name="ae" unicode="&#xe6;" horiz-adv-x="1872" 
d="M455 -30q139 0 251.5 52t188.5 174q66 -105 176.5 -165.5t254.5 -60.5t268.5 81t181.5 227l-225 72q-34 -77 -96.5 -115.5t-141.5 -38.5q-117 0 -183.5 74.5t-80.5 202.5h740q12 186 -39.5 329.5t-161 225.5t-274.5 82q-113 0 -205.5 -40t-158.5 -113q-55 73 -147.5 113
t-220.5 40q-175 0 -294 -87.5t-169 -215.5l218 -66q29 77 94.5 112.5t144.5 35.5q95 0 158 -51.5t60 -174.5l-212 -21q-67 -7 -152.5 -22.5t-165.5 -51.5t-132 -102t-52 -176q0 -140 97 -230t278 -90zM1313 899q121 0 175.5 -62t67.5 -175h-500q19 107 80 172t177 65z
M490 161q-82 0 -128 38t-46 99q0 54 33 88t83 52.5t103.5 27t93.5 12.5l167 16q-1 -50 -10 -99.5t-31 -89.5q-31 -56 -102.5 -100t-162.5 -44z" />
    <glyph glyph-name="ccedilla" unicode="&#xe7;" horiz-adv-x="1151" 
d="M574 -483q85 0 147.5 60t62.5 154q0 65 -32.5 111t-89.5 74l20 58q152 17 257.5 103.5t150.5 234.5l-246 55q-28 -83 -83.5 -127t-151.5 -44q-136 0 -204.5 95t-69.5 249q1 149 66.5 246.5t207.5 97.5q83 0 148 -48.5t93 -135.5l240 65q-38 160 -166 252.5t-312 92.5
q-164 0 -283 -73.5t-183.5 -202t-65.5 -294.5q0 -151 54 -273t156 -199t246 -94l-51 -148q52 -15 91.5 -33t39.5 -57q0 -19 -16.5 -36.5t-46.5 -17.5q-22 0 -64 14l-53 -143q29 -16 63.5 -26t74.5 -10z" />
    <glyph glyph-name="egrave" unicode="&#xe8;" horiz-adv-x="1204" 
d="M506 1230h238l-76 240h-238zM631 -30q156 0 285.5 80.5t191.5 227.5l-238 72q-72 -154 -253 -154q-123 0 -194 71.5t-85 205.5h782q14 195 -43 338t-174.5 221t-285.5 78q-159 0 -280 -71.5t-189 -202.5t-68 -308q0 -164 69.5 -290t193.5 -197t288 -71zM627 899
q112 0 172.5 -58.5t76.5 -185.5h-532q43 244 283 244z" />
    <glyph glyph-name="eacute" unicode="&#xe9;" horiz-adv-x="1204" 
d="M753 1230l76 240h-238l-76 -240h238zM631 -30q156 0 285.5 80.5t191.5 227.5l-238 72q-72 -154 -253 -154q-123 0 -194 71.5t-85 205.5h782q14 195 -43 338t-174.5 221t-285.5 78q-159 0 -280 -71.5t-189 -202.5t-68 -308q0 -164 69.5 -290t193.5 -197t288 -71zM627 899
q112 0 172.5 -58.5t76.5 -185.5h-532q43 244 283 244z" />
    <glyph glyph-name="ecircumflex" unicode="&#xea;" horiz-adv-x="1204" 
d="M364 1212l253 138l253 -138l88 153l-341 187l-341 -187zM631 -30q156 0 285.5 80.5t191.5 227.5l-238 72q-72 -154 -253 -154q-123 0 -194 71.5t-85 205.5h782q14 195 -43 338t-174.5 221t-285.5 78q-159 0 -280 -71.5t-189 -202.5t-68 -308q0 -164 69.5 -290t193.5 -197
t288 -71zM627 899q112 0 172.5 -58.5t76.5 -185.5h-532q43 244 283 244z" />
    <glyph glyph-name="edieresis" unicode="&#xeb;" horiz-adv-x="1204" 
d="M714 1247h220v220h-220v-220zM301 1247h220v220h-220v-220zM631 -30q156 0 285.5 80.5t191.5 227.5l-238 72q-72 -154 -253 -154q-123 0 -194 71.5t-85 205.5h782q14 195 -43 338t-174.5 221t-285.5 78q-159 0 -280 -71.5t-189 -202.5t-68 -308q0 -164 69.5 -290
t193.5 -197t288 -71zM627 899q112 0 172.5 -58.5t76.5 -185.5h-532q43 244 283 244z" />
    <glyph glyph-name="igrave" unicode="&#xec;" horiz-adv-x="561" 
d="M163 1230h238l-76 240h-238zM160 0h241v1080h-241v-1080z" />
    <glyph glyph-name="iacute" unicode="&#xed;" horiz-adv-x="561" 
d="M397 1230l76 240h-238l-76 -240h238zM160 0h241v1080h-241v-1080z" />
    <glyph glyph-name="icircumflex" unicode="&#xee;" horiz-adv-x="561" 
d="M44 1212l253 138l253 -138l88 153l-341 187l-341 -187zM160 0h241v1080h-241v-1080z" />
    <glyph glyph-name="idieresis" unicode="&#xef;" horiz-adv-x="561" 
d="M377 1247h220v220h-220v-220zM-36 1247h220v220h-220v-220zM160 0h241v1080h-241v-1080z" />
    <glyph glyph-name="eth" unicode="&#xf0;" horiz-adv-x="1193" 
d="M597 -30q158 0 274 66t179 187.5t63 285.5q0 190 -18.5 330.5t-58.5 246.5t-107 191q-28 38 -60 69l87 101l-135 119l-101 -117q-120 57 -272 62l-36 -185q86 -6 169 -39l-81 -94l134 -118l103 118q59 -50 97.5 -113t48.5 -133q-76 48 -143.5 69t-142.5 20
q-154 1 -270 -66.5t-181 -188t-66 -279.5q1 -157 66 -277.5t181 -187.5t270 -67zM597 184q-132 0 -203.5 83.5t-71.5 236.5q0 152 71 235.5t204 82.5q130 1 202 -83.5t72 -234.5q0 -151 -71.5 -235.5t-202.5 -84.5z" />
    <glyph glyph-name="ntilde" unicode="&#xf1;" 
d="M794 1240q117 0 159.5 84t13.5 204h-152q14 -48 2 -80.5t-44 -32.5q-29 0 -64 21t-74 48.5t-83 48.5t-91 21q-117 0 -159.5 -83.5t-13.5 -203.5h152q-13 47 -1.5 79.5t43.5 32.5q29 0 64 -21t74 -48.5t83 -48.5t91 -21zM138 0h244v555q0 131 37.5 202.5t96 99t119.5 27.5
q86 0 137 -37.5t75.5 -95t32 -119.5t7.5 -112v-520h244v603q0 38 -6.5 101t-28.5 133t-68 132.5t-124.5 102t-197.5 39.5q-117 0 -205.5 -40.5t-147.5 -110.5v120h-215v-1080z" />
    <glyph glyph-name="ograve" unicode="&#xf2;" horiz-adv-x="1236" 
d="M493 1230h238l-76 240h-238zM617 -30q162 0 283 72.5t188.5 201t67.5 296.5q0 167 -67 295.5t-188 201.5t-284 73q-159 0 -280 -72t-189 -200t-68 -298q0 -167 66.5 -295.5t187.5 -201.5t283 -73zM617 196q-139 0 -210.5 93.5t-71.5 250.5q0 153 68.5 248.5t213.5 95.5
q142 0 213 -93.5t71 -250.5q0 -152 -70.5 -248t-213.5 -96z" />
    <glyph glyph-name="oacute" unicode="&#xf3;" horiz-adv-x="1236" 
d="M734 1230l76 240h-238l-76 -240h238zM617 -30q162 0 283 72.5t188.5 201t67.5 296.5q0 167 -67 295.5t-188 201.5t-284 73q-159 0 -280 -72t-189 -200t-68 -298q0 -167 66.5 -295.5t187.5 -201.5t283 -73zM617 196q-139 0 -210.5 93.5t-71.5 250.5q0 153 68.5 248.5
t213.5 95.5q142 0 213 -93.5t71 -250.5q0 -152 -70.5 -248t-213.5 -96z" />
    <glyph glyph-name="ocircumflex" unicode="&#xf4;" horiz-adv-x="1236" 
d="M366 1212l253 138l253 -138l88 153l-341 187l-341 -187zM617 -30q162 0 283 72.5t188.5 201t67.5 296.5q0 167 -67 295.5t-188 201.5t-284 73q-159 0 -280 -72t-189 -200t-68 -298q0 -167 66.5 -295.5t187.5 -201.5t283 -73zM617 196q-139 0 -210.5 93.5t-71.5 250.5
q0 153 68.5 248.5t213.5 95.5q142 0 213 -93.5t71 -250.5q0 -152 -70.5 -248t-213.5 -96z" />
    <glyph glyph-name="otilde" unicode="&#xf5;" horiz-adv-x="1236" 
d="M786 1240q117 0 159.5 84t13.5 204h-152q14 -48 2 -80.5t-44 -32.5q-29 0 -64 21t-74 48.5t-83 48.5t-91 21q-117 0 -159.5 -83.5t-13.5 -203.5h152q-13 47 -1.5 79.5t43.5 32.5q29 0 64 -21t74 -48.5t83 -48.5t91 -21zM617 -30q162 0 283 72.5t188.5 201t67.5 296.5
q0 167 -67 295.5t-188 201.5t-284 73q-159 0 -280 -72t-189 -200t-68 -298q0 -167 66.5 -295.5t187.5 -201.5t283 -73zM617 196q-139 0 -210.5 93.5t-71.5 250.5q0 153 68.5 248.5t213.5 95.5q142 0 213 -93.5t71 -250.5q0 -152 -70.5 -248t-213.5 -96z" />
    <glyph glyph-name="odieresis" unicode="&#xf6;" horiz-adv-x="1236" 
d="M715 1247h220v220h-220v-220zM302 1247h220v220h-220v-220zM617 -30q162 0 283 72.5t188.5 201t67.5 296.5q0 167 -67 295.5t-188 201.5t-284 73q-159 0 -280 -72t-189 -200t-68 -298q0 -167 66.5 -295.5t187.5 -201.5t283 -73zM617 196q-139 0 -210.5 93.5t-71.5 250.5
q0 153 68.5 248.5t213.5 95.5q142 0 213 -93.5t71 -250.5q0 -152 -70.5 -248t-213.5 -96z" />
    <glyph glyph-name="divide" unicode="&#xf7;" horiz-adv-x="1080" 
d="M120 626h840v189h-840v-189zM428.366 924h228.291v228.291h-228.291v-228.291zM428.366 293h228.291v228.291h-228.291v-228.291z" />
    <glyph glyph-name="oslash" unicode="&#xf8;" horiz-adv-x="1236" 
d="M212 -25l89 89q64 -45 144 -69.5t172 -24.5q162 0 283 72.5t188.5 201t67.5 296.5q0 172 -72 305l100 99l-160 161l-90 -90q-64 46 -144 70.5t-173 24.5q-159 0 -280 -72t-189 -200t-68 -298q0 -172 72 -305l-100 -100zM335 540q0 153 68.5 248.5t213.5 95.5
q102 0 170 -51l-435 -433q-17 62 -17 140zM617 196q-99 0 -166 50l433 433q17 -62 17 -139q0 -152 -70.5 -248t-213.5 -96z" />
    <glyph glyph-name="ugrave" unicode="&#xf9;" 
d="M504 1230h238l-76 240h-238zM545 -31q117 0 205.5 40.5t147.5 110.5v-120h213v1080h-242v-555q0 -131 -37.5 -202.5t-95.5 -99t-120 -27.5q-86 0 -137 37.5t-75.5 95t-32 119.5t-7.5 112v520h-244v-603q0 -38 6.5 -101t28.5 -133t68 -132.5t124.5 -102t197.5 -39.5z" />
    <glyph glyph-name="uacute" unicode="&#xfa;" 
d="M718 1230l76 240h-238l-76 -240h238zM545 -31q117 0 205.5 40.5t147.5 110.5v-120h213v1080h-242v-555q0 -131 -37.5 -202.5t-95.5 -99t-120 -27.5q-86 0 -137 37.5t-75.5 95t-32 119.5t-7.5 112v520h-244v-603q0 -38 6.5 -101t28.5 -133t68 -132.5t124.5 -102
t197.5 -39.5z" />
    <glyph glyph-name="ucircumflex" unicode="&#xfb;" 
d="M362 1212l253 138l253 -138l88 153l-341 187l-341 -187zM545 -31q117 0 205.5 40.5t147.5 110.5v-120h213v1080h-242v-555q0 -131 -37.5 -202.5t-95.5 -99t-120 -27.5q-86 0 -137 37.5t-75.5 95t-32 119.5t-7.5 112v520h-244v-603q0 -38 6.5 -101t28.5 -133t68 -132.5
t124.5 -102t197.5 -39.5z" />
    <glyph glyph-name="udieresis" unicode="&#xfc;" 
d="M712 1247h220v220h-220v-220zM299 1247h220v220h-220v-220zM545 -31q117 0 205.5 40.5t147.5 110.5v-120h213v1080h-242v-555q0 -131 -37.5 -202.5t-95.5 -99t-120 -27.5q-86 0 -137 37.5t-75.5 95t-32 119.5t-7.5 112v520h-244v-603q0 -38 6.5 -101t28.5 -133t68 -132.5
t124.5 -102t197.5 -39.5z" />
    <glyph glyph-name="yacute" unicode="&#xfd;" horiz-adv-x="1119" 
d="M685 1230l76 240h-238l-76 -240h238zM282 -480h226l602 1560h-241l-293 -773l-302 773h-251l437 -1072z" />
    <glyph glyph-name="thorn" unicode="&#xfe;" horiz-adv-x="1232" 
d="M138 -480h243v535q55 -40 124.5 -62.5t153.5 -22.5q150 0 260.5 75t171.5 204t61 291q0 164 -61.5 293t-174.5 203t-266 74q-80 0 -147 -21.5t-121 -60.5v412h-242v-360h-2v-1560zM622 186q-145 0 -208 98.5t-63 255.5q0 158 62.5 256t200.5 98q97 0 159.5 -47.5t93 -128
t30.5 -178.5q0 -99 -29.5 -179t-90.5 -127.5t-155 -47.5z" />
    <glyph glyph-name="ydieresis" unicode="&#xff;" horiz-adv-x="1119" 
d="M669 1247h220v220h-220v-220zM256 1247h220v220h-220v-220zM282 -480h226l602 1560h-241l-293 -773l-302 773h-251l437 -1072z" />
    <glyph glyph-name="Amacron" unicode="&#x100;" horiz-adv-x="1341" 
d="M405 1680h533v187h-533v-187zM40 0h248l98 312h568l99 -312h248l-454 1440h-353zM457 537l211 670l214 -670h-425z" />
    <glyph glyph-name="amacron" unicode="&#x101;" horiz-adv-x="1152" 
d="M350 1320h533v187h-533v-187zM442 -30q129 0 219.5 42.5t159.5 132.5v-145h211v663q0 70 -6 129.5t-35 116.5q-53 107 -162.5 154t-253.5 47q-190 0 -303 -83t-153 -220l220 -69q27 83 95 117t141 34q110 0 162 -44.5t59 -137.5q-142 -21 -263.5 -40.5t-206.5 -47.5
q-128 -44 -187 -124.5t-59 -198.5q0 -89 41.5 -163t122.5 -118.5t198 -44.5zM490 162q-85 0 -129.5 39t-44.5 98q0 53 34.5 86t96.5 56q57 19 137 33.5t209 34.5q-1 -38 -5 -84.5t-19 -83.5q-12 -37 -46.5 -79t-92.5 -71t-140 -29z" />
    <glyph glyph-name="Abreve" unicode="&#x102;" horiz-adv-x="1341" 
d="M672 1562q84 0 153 41t109.5 109.5t40.5 152.5h-188q0 -48 -33.5 -81.5t-81.5 -33.5t-81.5 33.5t-33.5 81.5h-188q0 -84 40.5 -152.5t109.5 -109.5t153 -41zM40 0h248l98 312h568l99 -312h248l-454 1440h-353zM457 537l211 670l214 -670h-425z" />
    <glyph glyph-name="abreve" unicode="&#x103;" horiz-adv-x="1152" 
d="M587 1202q84 0 153 41t109.5 109.5t40.5 152.5h-188q0 -48 -33.5 -81.5t-81.5 -33.5t-81.5 33.5t-33.5 81.5h-188q0 -84 41 -152.5t109.5 -109.5t152.5 -41zM442 -30q129 0 219.5 42.5t159.5 132.5v-145h211v663q0 70 -6 129.5t-35 116.5q-53 107 -162.5 154t-253.5 47
q-190 0 -303 -83t-153 -220l220 -69q27 83 95 117t141 34q110 0 162 -44.5t59 -137.5q-142 -21 -263.5 -40.5t-206.5 -47.5q-128 -44 -187 -124.5t-59 -198.5q0 -89 41.5 -163t122.5 -118.5t198 -44.5zM490 162q-85 0 -129.5 39t-44.5 98q0 53 34.5 86t96.5 56
q57 19 137 33.5t209 34.5q-1 -38 -5 -84.5t-19 -83.5q-12 -37 -46.5 -79t-92.5 -71t-140 -29z" />
    <glyph glyph-name="Aogonek" unicode="&#x104;" horiz-adv-x="1341" 
d="M40 0h248l98 312h568l92 -290q-70 -61 -112.5 -135.5t-42.5 -147.5q0 -85 60.5 -151.5t154.5 -66.5q54 0 105.5 26t86.5 74l-87 113q-40 -35 -74 -35q-24 0 -41 17t-17 42q0 34 30 78t80.5 88t111.5 76l-454 1440h-353zM457 537l211 670l214 -670h-425z" />
    <glyph glyph-name="aogonek" unicode="&#x105;" horiz-adv-x="1152" 
d="M442 -30q129 0 219.5 42.5t159.5 132.5v-87q-88 -65 -143.5 -150t-55.5 -169q0 -85 60.5 -151.5t154.5 -66.5q54 0 105.5 26t86.5 74l-87 113q-40 -35 -74 -35q-24 0 -41 17t-17 42q0 34 30 78t80.5 88t111.5 76v663q0 70 -6 129.5t-35 116.5q-53 107 -162.5 154
t-253.5 47q-190 0 -303 -83t-153 -220l220 -69q27 83 95 117t141 34q110 0 162 -44.5t59 -137.5q-142 -21 -263.5 -40.5t-206.5 -47.5q-128 -44 -187 -124.5t-59 -198.5q0 -89 41.5 -163t122.5 -118.5t198 -44.5zM490 162q-85 0 -129.5 39t-44.5 98q0 53 34.5 86t96.5 56
q57 19 137 33.5t209 34.5q-1 -38 -5 -84.5t-19 -83.5q-12 -37 -46.5 -79t-92.5 -71t-140 -29z" />
    <glyph glyph-name="Cacute" unicode="&#x106;" horiz-adv-x="1477" 
d="M886 1590l76 240h-238l-76 -240h238zM749 -30q248 0 414.5 124.5t233.5 335.5l-243 67q-42 -140 -143 -220t-262 -80q-217 0 -326.5 143.5t-109.5 379.5q1 236 110 379.5t326 143.5q161 0 262 -80t143 -220l243 67q-67 212 -233.5 336t-414.5 124q-215 0 -369.5 -94.5
t-237 -263t-82.5 -392.5q0 -223 82.5 -392t237 -263.5t369.5 -94.5z" />
    <glyph glyph-name="cacute" unicode="&#x107;" horiz-adv-x="1151" 
d="M727 1230l76 240h-238l-76 -240h238zM609 -30q181 0 306 88.5t175 253.5l-246 55q-28 -83 -83.5 -127t-151.5 -44q-136 0 -204.5 95t-69.5 249q1 149 66.5 246.5t207.5 97.5q83 0 148 -48.5t93 -135.5l240 65q-38 160 -166 252.5t-312 92.5q-164 0 -283 -73.5
t-183.5 -202t-65.5 -294.5q1 -163 63.5 -292t180.5 -203.5t285 -74.5z" />
    <glyph glyph-name="Ccircumflex" unicode="&#x108;" horiz-adv-x="1477" 
d="M497 1572l253 138l253 -138l88 153l-341 187l-341 -187zM749 -30q248 0 414.5 124.5t233.5 335.5l-243 67q-42 -140 -143 -220t-262 -80q-217 0 -326.5 143.5t-109.5 379.5q1 236 110 379.5t326 143.5q161 0 262 -80t143 -220l243 67q-67 212 -233.5 336t-414.5 124
q-215 0 -369.5 -94.5t-237 -263t-82.5 -392.5q0 -223 82.5 -392t237 -263.5t369.5 -94.5z" />
    <glyph glyph-name="ccircumflex" unicode="&#x109;" horiz-adv-x="1151" 
d="M366 1212l253 138l253 -138l88 153l-341 187l-341 -187zM609 -30q181 0 306 88.5t175 253.5l-246 55q-28 -83 -83.5 -127t-151.5 -44q-136 0 -204.5 95t-69.5 249q1 149 66.5 246.5t207.5 97.5q83 0 148 -48.5t93 -135.5l240 65q-38 160 -166 252.5t-312 92.5
q-164 0 -283 -73.5t-183.5 -202t-65.5 -294.5q1 -163 63.5 -292t180.5 -203.5t285 -74.5z" />
    <glyph glyph-name="Cdotaccent" unicode="&#x10a;" horiz-adv-x="1477" 
d="M636 1653h247v247h-247v-247zM749 -30q248 0 414.5 124.5t233.5 335.5l-243 67q-42 -140 -143 -220t-262 -80q-217 0 -326.5 143.5t-109.5 379.5q1 236 110 379.5t326 143.5q161 0 262 -80t143 -220l243 67q-67 212 -233.5 336t-414.5 124q-215 0 -369.5 -94.5t-237 -263
t-82.5 -392.5q0 -223 82.5 -392t237 -263.5t369.5 -94.5z" />
    <glyph glyph-name="cdotaccent" unicode="&#x10b;" horiz-adv-x="1151" 
d="M517 1293h247v247h-247v-247zM609 -30q181 0 306 88.5t175 253.5l-246 55q-28 -83 -83.5 -127t-151.5 -44q-136 0 -204.5 95t-69.5 249q1 149 66.5 246.5t207.5 97.5q83 0 148 -48.5t93 -135.5l240 65q-38 160 -166 252.5t-312 92.5q-164 0 -283 -73.5t-183.5 -202
t-65.5 -294.5q1 -163 63.5 -292t180.5 -203.5t285 -74.5z" />
    <glyph glyph-name="Ccaron" unicode="&#x10c;" horiz-adv-x="1477" 
d="M753 1572l341 187l-88 153l-253 -138l-253 138l-88 -153zM749 -30q248 0 414.5 124.5t233.5 335.5l-243 67q-42 -140 -143 -220t-262 -80q-217 0 -326.5 143.5t-109.5 379.5q1 236 110 379.5t326 143.5q161 0 262 -80t143 -220l243 67q-67 212 -233.5 336t-414.5 124
q-215 0 -369.5 -94.5t-237 -263t-82.5 -392.5q0 -223 82.5 -392t237 -263.5t369.5 -94.5z" />
    <glyph glyph-name="ccaron" unicode="&#x10d;" horiz-adv-x="1151" 
d="M612 1212l341 187l-88 153l-253 -138l-253 138l-88 -153zM609 -30q181 0 306 88.5t175 253.5l-246 55q-28 -83 -83.5 -127t-151.5 -44q-136 0 -204.5 95t-69.5 249q1 149 66.5 246.5t207.5 97.5q83 0 148 -48.5t93 -135.5l240 65q-38 160 -166 252.5t-312 92.5
q-164 0 -283 -73.5t-183.5 -202t-65.5 -294.5q1 -163 63.5 -292t180.5 -203.5t285 -74.5z" />
    <glyph glyph-name="Dcaron" unicode="&#x10e;" horiz-adv-x="1401" 
d="M625 1572l341 187l-88 153l-253 -138l-253 138l-88 -153zM140 0h459q17 0 71.5 1t103.5 7q172 22 290 121.5t179 253.5t61 337t-61 337t-179 254t-290 121q-50 6 -103.5 7t-71.5 1h-459v-1440zM385 227v986h214q30 0 76 -1.5t83 -9.5q100 -19 164 -89t95.5 -172.5
t31.5 -220.5q0 -113 -30 -216t-94.5 -174.5t-166.5 -91.5q-37 -7 -83 -9t-76 -2h-214z" />
    <glyph glyph-name="dcaron" unicode="&#x10f;" horiz-adv-x="1571" 
d="M573 -30q96 0 173 29t135 81v-80h213v1440h-243v-413q-54 40 -121 61.5t-148 21.5q-153 0 -265.5 -74t-174.5 -203t-62 -293q0 -162 61 -291t172 -204t260 -75zM610 186q-94 0 -155 47.5t-90.5 127.5t-29.5 179q0 98 30.5 178.5t93 128t159.5 47.5q138 0 200.5 -98
t62.5 -256q0 -157 -62.5 -255.5t-208.5 -98.5zM1257 932q123 -20 185 47t62 198v267h-247v-257h128q8 -68 -18.5 -112t-95.5 -39z" />
    <glyph glyph-name="Dcroat" unicode="&#x110;" horiz-adv-x="1404" 
d="M143 0h459q17 0 71.5 1t103.5 7q172 22 290 121.5t179 253.5t61 337t-61 337t-179 254t-290 121q-50 6 -103.5 7t-71.5 1h-459v-625h-123v-189h123v-626zM388 227v399h307v189h-307v398h214q30 0 76 -1.5t83 -9.5q100 -19 164 -89t95.5 -172.5t31.5 -220.5
q0 -113 -30 -216t-94.5 -174.5t-166.5 -91.5q-37 -7 -83 -9t-76 -2h-214z" />
    <glyph glyph-name="dcroat" unicode="&#x111;" horiz-adv-x="1234" 
d="M573 -30q96 0 173 29t135 81v-80h213v1167h127v187h-127v86h-243v-86h-163v-187h163v-140q-54 40 -121 61.5t-148 21.5q-153 0 -265.5 -74t-174.5 -203t-62 -293q0 -162 61 -291t172 -204t260 -75zM610 186q-94 0 -155 47.5t-90.5 127.5t-29.5 179q0 98 30.5 178.5
t93 128t159.5 47.5q138 0 200.5 -98t62.5 -256q0 -157 -62.5 -255.5t-208.5 -98.5z" />
    <glyph glyph-name="Emacron" unicode="&#x112;" horiz-adv-x="1170" 
d="M347 1680h533v187h-533v-187zM140 0h930v226h-689v407h569v226h-569v355h689v226h-930v-1440z" />
    <glyph glyph-name="emacron" unicode="&#x113;" horiz-adv-x="1204" 
d="M371 1320h533v187h-533v-187zM631 -30q156 0 285.5 80.5t191.5 227.5l-238 72q-72 -154 -253 -154q-123 0 -194 71.5t-85 205.5h782q14 195 -43 338t-174.5 221t-285.5 78q-159 0 -280 -71.5t-189 -202.5t-68 -308q0 -164 69.5 -290t193.5 -197t288 -71zM627 899
q112 0 172.5 -58.5t76.5 -185.5h-532q43 244 283 244z" />
    <glyph glyph-name="Edotaccent" unicode="&#x116;" horiz-adv-x="1170" 
d="M482 1653h247v247h-247v-247zM140 0h930v226h-689v407h569v226h-569v355h689v226h-930v-1440z" />
    <glyph glyph-name="edotaccent" unicode="&#x117;" horiz-adv-x="1204" 
d="M496 1293h247v247h-247v-247zM631 -30q156 0 285.5 80.5t191.5 227.5l-238 72q-72 -154 -253 -154q-123 0 -194 71.5t-85 205.5h782q14 195 -43 338t-174.5 221t-285.5 78q-159 0 -280 -71.5t-189 -202.5t-68 -308q0 -164 69.5 -290t193.5 -197t288 -71zM627 899
q112 0 172.5 -58.5t76.5 -185.5h-532q43 244 283 244z" />
    <glyph glyph-name="Eogonek" unicode="&#x118;" horiz-adv-x="1170" 
d="M140 0h651q-60 -58 -95.5 -126t-35.5 -135q0 -85 60.5 -151.5t154.5 -66.5q54 0 105.5 26t86.5 74l-87 113q-40 -35 -74 -35q-24 0 -41 17t-17 42q0 34 30 78t80.5 88t111.5 76v226h-689v407h569v226h-569v355h689v226h-930v-1440z" />
    <glyph glyph-name="eogonek" unicode="&#x119;" horiz-adv-x="1204" 
d="M631 -30q53 0 103 9q-18 -28 -36.5 -60t-30.5 -63q-28 -67 -17.5 -136.5t48.5 -116.5q45 -55 118.5 -74.5t140.5 10.5q62 29 95 82l-87 113q-26 -22 -61.5 -30t-57.5 16q-14 16 -13.5 38.5t4.5 35.5q19 64 74 157q24 42 64 103.5t83 131.5q29 43 50 92l-238 72
q-72 -154 -253 -154q-123 0 -194 71.5t-85 205.5h782q14 195 -43 338t-174.5 221t-285.5 78q-159 0 -280 -71.5t-189 -202.5t-68 -308q0 -164 69.5 -290t193.5 -197t288 -71zM627 899q112 0 172.5 -58.5t76.5 -185.5h-532q43 244 283 244z" />
    <glyph glyph-name="Ecaron" unicode="&#x11a;" horiz-adv-x="1170" 
d="M614 1572l341 187l-88 153l-253 -138l-253 138l-88 -153zM140 0h930v226h-689v407h569v226h-569v355h689v226h-930v-1440z" />
    <glyph glyph-name="ecaron" unicode="&#x11b;" horiz-adv-x="1204" 
d="M617 1212l341 187l-88 153l-253 -138l-253 138l-88 -153zM631 -30q156 0 285.5 80.5t191.5 227.5l-238 72q-72 -154 -253 -154q-123 0 -194 71.5t-85 205.5h782q14 195 -43 338t-174.5 221t-285.5 78q-159 0 -280 -71.5t-189 -202.5t-68 -308q0 -164 69.5 -290
t193.5 -197t288 -71zM627 899q112 0 172.5 -58.5t76.5 -185.5h-532q43 244 283 244z" />
    <glyph glyph-name="Gcircumflex" unicode="&#x11c;" horiz-adv-x="1464" 
d="M475 1572l253 138l253 -138l88 153l-341 187l-341 -187zM734 -30q209 0 359 90.5t230.5 248.5t80.5 362q0 6 -1 37t-3 47h-510v-189h254q-28 -186 -130 -278.5t-265 -90.5q-217 3 -326 145t-108 378q1 158 49 276t144 183t241 63q143 -1 236.5 -77t134.5 -204l246 39
q-55 222 -210.5 346t-421.5 124q-192 0 -344.5 -89t-241 -257t-88.5 -404q0 -240 90.5 -407.5t243.5 -255t340 -87.5z" />
    <glyph glyph-name="gcircumflex" unicode="&#x11d;" horiz-adv-x="1232" 
d="M371 1212l253 138l253 -138l88 153l-341 187l-341 -187zM573 -30q84 0 153.5 22.5t124.5 62.5v-103q2 -115 -70.5 -174t-185.5 -59q-64 0 -121 29t-87 87l-222 -110q63 -110 178.5 -172.5t250.5 -62.5q183 0 314.5 74.5t168.5 231.5q8 36 11.5 73t3.5 79v1132h-211v-78
q-57 52 -132 80t-167 28q-153 0 -265.5 -74t-174.5 -203t-62 -293q0 -162 61 -291t172 -204t260 -75zM610 186q-94 0 -155 47.5t-90.5 127.5t-29.5 179q0 98 30.5 178.5t93 128t159.5 47.5q138 0 200.5 -98t62.5 -256q0 -157 -62.5 -255.5t-208.5 -98.5z" />
    <glyph glyph-name="Gbreve" unicode="&#x11e;" horiz-adv-x="1464" 
d="M740 1562q84 0 153 41t109.5 109.5t40.5 152.5h-188q0 -48 -33.5 -81.5t-81.5 -33.5t-81.5 33.5t-33.5 81.5h-188q0 -84 41 -152.5t109.5 -109.5t152.5 -41zM734 -30q209 0 359 90.5t230.5 248.5t80.5 362q0 6 -1 37t-3 47h-510v-189h254q-28 -186 -130 -278.5
t-265 -90.5q-217 3 -326 145t-108 378q1 158 49 276t144 183t241 63q143 -1 236.5 -77t134.5 -204l246 39q-55 222 -210.5 346t-421.5 124q-192 0 -344.5 -89t-241 -257t-88.5 -404q0 -240 90.5 -407.5t243.5 -255t340 -87.5z" />
    <glyph glyph-name="gbreve" unicode="&#x11f;" horiz-adv-x="1232" 
d="M676 1202q84 0 153 41t109.5 109.5t40.5 152.5h-188q0 -48 -33.5 -81.5t-81.5 -33.5t-81.5 33.5t-33.5 81.5h-188q0 -84 40.5 -152.5t109.5 -109.5t153 -41zM573 -30q84 0 153.5 22.5t124.5 62.5v-103q2 -115 -70.5 -174t-185.5 -59q-64 0 -121 29t-87 87l-222 -110
q63 -110 178.5 -172.5t250.5 -62.5q183 0 314.5 74.5t168.5 231.5q8 36 11.5 73t3.5 79v1132h-211v-78q-57 52 -132 80t-167 28q-153 0 -265.5 -74t-174.5 -203t-62 -293q0 -162 61 -291t172 -204t260 -75zM610 186q-94 0 -155 47.5t-90.5 127.5t-29.5 179q0 98 30.5 178.5
t93 128t159.5 47.5q138 0 200.5 -98t62.5 -256q0 -157 -62.5 -255.5t-208.5 -98.5z" />
    <glyph glyph-name="Gdotaccent" unicode="&#x120;" horiz-adv-x="1464" 
d="M633 1653h247v247h-247v-247zM734 -30q209 0 359 90.5t230.5 248.5t80.5 362q0 6 -1 37t-3 47h-510v-189h254q-28 -186 -130 -278.5t-265 -90.5q-217 3 -326 145t-108 378q1 158 49 276t144 183t241 63q143 -1 236.5 -77t134.5 -204l246 39q-55 222 -210.5 346
t-421.5 124q-192 0 -344.5 -89t-241 -257t-88.5 -404q0 -240 90.5 -407.5t243.5 -255t340 -87.5z" />
    <glyph glyph-name="gdotaccent" unicode="&#x121;" horiz-adv-x="1232" 
d="M538 1293h247v247h-247v-247zM573 -30q84 0 153.5 22.5t124.5 62.5v-103q2 -115 -70.5 -174t-185.5 -59q-64 0 -121 29t-87 87l-222 -110q63 -110 178.5 -172.5t250.5 -62.5q183 0 314.5 74.5t168.5 231.5q8 36 11.5 73t3.5 79v1132h-211v-78q-57 52 -132 80t-167 28
q-153 0 -265.5 -74t-174.5 -203t-62 -293q0 -162 61 -291t172 -204t260 -75zM610 186q-94 0 -155 47.5t-90.5 127.5t-29.5 179q0 98 30.5 178.5t93 128t159.5 47.5q138 0 200.5 -98t62.5 -256q0 -157 -62.5 -255.5t-208.5 -98.5z" />
    <glyph glyph-name="uni0122" unicode="&#x122;" horiz-adv-x="1464" 
d="M734 -30q209 0 359 90.5t230.5 248.5t80.5 362q0 6 -1 37t-3 47h-510v-189h254q-28 -186 -130 -278.5t-265 -90.5q-217 3 -326 145t-108 378q1 158 49 276t144 183t241 63q143 -1 236.5 -77t134.5 -204l246 39q-55 222 -210.5 346t-421.5 124q-192 0 -344.5 -89
t-241 -257t-88.5 -404q0 -240 90.5 -407.5t243.5 -255t340 -87.5zM651 -610q101 0 167 57.5t66 152.5v233h-233v-233h129q1 -46 -25.5 -68.5t-57.5 -29.5t-46 -7v-105z" />
    <glyph glyph-name="uni0123" unicode="&#x123;" horiz-adv-x="1232" 
d="M753 1736q-101 0 -167 -57.5t-66 -152.5v-233h233v233h-129q0 47 26 69t57 29t46 7v105zM573 -30q84 0 153.5 22.5t124.5 62.5v-103q2 -115 -70.5 -174t-185.5 -59q-64 0 -121 29t-87 87l-222 -110q63 -110 178.5 -172.5t250.5 -62.5q183 0 314.5 74.5t168.5 231.5
q8 36 11.5 73t3.5 79v1132h-211v-78q-57 52 -132 80t-167 28q-153 0 -265.5 -74t-174.5 -203t-62 -293q0 -162 61 -291t172 -204t260 -75zM610 186q-94 0 -155 47.5t-90.5 127.5t-29.5 179q0 98 30.5 178.5t93 128t159.5 47.5q138 0 200.5 -98t62.5 -256
q0 -157 -62.5 -255.5t-208.5 -98.5z" />
    <glyph glyph-name="Hcircumflex" unicode="&#x124;" horiz-adv-x="1443" 
d="M469 1572l253 138l253 -138l88 153l-341 187l-341 -187zM140 0h241v608h682v-608h240v1440h-240v-606h-682v606h-241v-1440z" />
    <glyph glyph-name="hcircumflex" unicode="&#x125;" 
d="M-7 1572l253 138l253 -138l88 153l-341 187l-341 -187zM138 0h244v555q0 131 37.5 202.5t96 99t119.5 27.5q86 0 137 -37.5t75.5 -95t32 -119.5t7.5 -112v-520h244v603q0 38 -6.5 101t-28.5 133t-68 132.5t-124.5 102t-197.5 39.5q-117 0 -205.5 -40.5t-147.5 -110.5v480
h-215v-1440z" />
    <glyph glyph-name="Hbar" unicode="&#x126;" horiz-adv-x="1483" 
d="M160 0h241v608h682v-608h240v989h140v226h-140v225h-240v-225h-682v225h-241v-225h-140v-226h140v-989zM401 834v155h682v-155h-682z" />
    <glyph glyph-name="hbar" unicode="&#x127;" 
d="M138 0h244v555q0 131 37.5 202.5t96 99t119.5 27.5q86 0 137 -37.5t75.5 -95t32 -119.5t7.5 -112v-520h244v603q0 38 -6.5 101t-28.5 133t-68 132.5t-124.5 102t-197.5 39.5q-117 0 -205.5 -40.5t-147.5 -110.5v207h210v187h-210v86h-215v-86h-108v-187h108v-1167z" />
    <glyph glyph-name="Itilde" unicode="&#x128;" horiz-adv-x="561" 
d="M447 1600q117 0 159.5 84t13.5 204h-152q14 -48 2 -80.5t-44 -32.5q-29 0 -64 21t-74 48.5t-83 48.5t-91 21q-117 0 -159.5 -83.5t-13.5 -203.5h152q-13 47 -1.5 79.5t43.5 32.5q29 0 64 -21t74 -48.5t83 -48.5t91 -21zM160 0h241v1440h-241v-1440z" />
    <glyph glyph-name="itilde" unicode="&#x129;" horiz-adv-x="561" 
d="M447 1240q117 0 159.5 84t13.5 204h-152q14 -48 2 -80.5t-44 -32.5q-29 0 -64 21t-74 48.5t-83 48.5t-91 21q-117 0 -159.5 -83.5t-13.5 -203.5h152q-13 47 -1.5 79.5t43.5 32.5q29 0 64 -21t74 -48.5t83 -48.5t91 -21zM160 0h241v1080h-241v-1080z" />
    <glyph glyph-name="Imacron" unicode="&#x12a;" horiz-adv-x="561" 
d="M14 1680h533v187h-533v-187zM160 0h241v1440h-241v-1440z" />
    <glyph glyph-name="imacron" unicode="&#x12b;" horiz-adv-x="561" 
d="M14 1320h533v187h-533v-187zM160 0h241v1080h-241v-1080z" />
    <glyph glyph-name="Iogonek" unicode="&#x12e;" horiz-adv-x="561" 
d="M206 -479q54 0 105.5 26t86.5 74l-87 113q-40 -35 -74 -35q-24 0 -41 17t-17 42q0 34 30 78t80.5 88t111.5 76v1440h-241v-1406q-76 -62 -122.5 -140t-46.5 -155q0 -85 60.5 -151.5t154.5 -66.5z" />
    <glyph glyph-name="iogonek" unicode="&#x12f;" horiz-adv-x="561" 
d="M160 1244h241v221h-241v-221zM206 -479q54 0 105.5 26t86.5 74l-87 113q-40 -35 -74 -35q-24 0 -41 17t-17 42q0 34 30 78t80.5 88t111.5 76v1080h-241v-1046q-76 -62 -122.5 -140t-46.5 -155q0 -85 60.5 -151.5t154.5 -66.5z" />
    <glyph glyph-name="Idotaccent" unicode="&#x130;" horiz-adv-x="561" 
d="M157 1653h247v247h-247v-247zM160 0h241v1440h-241v-1440z" />
    <glyph glyph-name="dotlessi" unicode="&#x131;" horiz-adv-x="561" 
d="M160 0h241v1080h-241v-1080z" />
    <glyph glyph-name="Jcircumflex" unicode="&#x134;" horiz-adv-x="1001" 
d="M466 1572l253 138l253 -138l88 153l-341 187l-341 -187zM428 -30q116 0 211 47t154 150q41 71 44.5 137.5t3.5 166.5v969h-244v-969q0 -59 -2.5 -103.5t-16.5 -76.5q-23 -50 -70 -72.5t-89 -22.5q-64 0 -117 44t-64 105l-238 -57q44 -145 153 -231.5t275 -86.5z" />
    <glyph glyph-name="jcircumflex" unicode="&#x135;" horiz-adv-x="577" 
d="M59 1212l253 138l253 -138l88 153l-341 187l-341 -187zM-20 -480h164q136 0 212.5 75t76.5 205v1280h-240v-1172q0 -80 -36.5 -121t-125.5 -41h-51v-226z" />
    <glyph glyph-name="uni0136" unicode="&#x136;" horiz-adv-x="1294" 
d="M140 0h241v672l607 -672h306l-661 734l619 706h-296l-575 -668v668h-241v-1440zM576 -610q101 0 167 57.5t66 152.5v233h-233v-233h129q1 -46 -25.5 -68.5t-57.5 -29.5t-46 -7v-105z" />
    <glyph glyph-name="uni0137" unicode="&#x137;" horiz-adv-x="1076" 
d="M138 0h246v520l413 -520h319l-455 540l419 540h-301l-395 -520v880h-244zM481 -610q101 0 167 57.5t66 152.5v233h-233v-233h129q1 -46 -25.5 -68.5t-57.5 -29.5t-46 -7v-105z" />
    <glyph glyph-name="Lacute" unicode="&#x139;" horiz-adv-x="1067" 
d="M397 1590l76 240h-238l-76 -240h238zM160 0h877v226h-636v1214h-241v-1440z" />
    <glyph glyph-name="lacute" unicode="&#x13a;" horiz-adv-x="561" 
d="M397 1590l76 240h-238l-76 -240h238zM160 0h241v1470h-241v-1470z" />
    <glyph glyph-name="uni013B" unicode="&#x13b;" horiz-adv-x="1067" 
d="M160 0h877v226h-636v1214h-241v-1440zM482 -610q101 0 167 57.5t66 152.5v233h-233v-233h129q1 -46 -25.5 -68.5t-57.5 -29.5t-46 -7v-105z" />
    <glyph glyph-name="uni013C" unicode="&#x13c;" horiz-adv-x="561" 
d="M160 0h241v1470h-241v-1470zM164 -610q101 0 167 57.5t66 152.5v233h-233v-233h129q1 -46 -25.5 -68.5t-57.5 -29.5t-46 -7v-105z" />
    <glyph glyph-name="Lcaron" unicode="&#x13d;" horiz-adv-x="1067" 
d="M160 0h877v226h-636v1214h-241v-1440zM652 932q123 -20 185 47t62 198v267h-247v-257h128q8 -68 -18.5 -112t-95.5 -39z" />
    <glyph glyph-name="lcaron" unicode="&#x13e;" horiz-adv-x="877" 
d="M160 0h241v1470h-241v-1470zM562 932q123 -20 185 47t62 198v267h-247v-257h128q8 -68 -18.5 -112t-95.5 -39z" />
    <glyph glyph-name="Lslash" unicode="&#x141;" horiz-adv-x="1100" 
d="M193 0h877v226h-636v330l316 181v262l-316 -182v623h-241v-761l-130 -75v-261l130 75v-418z" />
    <glyph glyph-name="lslash" unicode="&#x142;" horiz-adv-x="797" 
d="M278 0h241v673l223 128v262l-223 -128v535h-241v-674l-223 -128v-261l223 128v-535z" />
    <glyph glyph-name="Nacute" unicode="&#x143;" horiz-adv-x="1436" 
d="M846 1590l76 240h-238l-76 -240h238zM140 0h244v1015l668 -1015h244v1440h-244v-1015l-668 1015h-244v-1440z" />
    <glyph glyph-name="nacute" unicode="&#x144;" 
d="M750 1230l76 240h-238l-76 -240h238zM138 0h244v555q0 131 37.5 202.5t96 99t119.5 27.5q86 0 137 -37.5t75.5 -95t32 -119.5t7.5 -112v-520h244v603q0 38 -6.5 101t-28.5 133t-68 132.5t-124.5 102t-197.5 39.5q-117 0 -205.5 -40.5t-147.5 -110.5v120h-215v-1080z" />
    <glyph glyph-name="uni0145" unicode="&#x145;" horiz-adv-x="1436" 
d="M140 0h244v1015l668 -1015h244v1440h-244v-1015l-668 1015h-244v-1440zM622 -610q101 0 167 57.5t66 152.5v233h-233v-233h129q1 -46 -25.5 -68.5t-57.5 -29.5t-46 -7v-105z" />
    <glyph glyph-name="uni0146" unicode="&#x146;" 
d="M138 0h244v555q0 131 37.5 202.5t96 99t119.5 27.5q86 0 137 -37.5t75.5 -95t32 -119.5t7.5 -112v-520h244v603q0 38 -6.5 101t-28.5 133t-68 132.5t-124.5 102t-197.5 39.5q-117 0 -205.5 -40.5t-147.5 -110.5v120h-215v-1080zM524 -610q101 0 167 57.5t66 152.5v233
h-233v-233h129q1 -46 -25.5 -68.5t-57.5 -29.5t-46 -7v-105z" />
    <glyph glyph-name="Ncaron" unicode="&#x147;" horiz-adv-x="1436" 
d="M740 1572l341 187l-88 153l-253 -138l-253 138l-88 -153zM140 0h244v1015l668 -1015h244v1440h-244v-1015l-668 1015h-244v-1440z" />
    <glyph glyph-name="ncaron" unicode="&#x148;" 
d="M627 1212l341 187l-88 153l-253 -138l-253 138l-88 -153zM138 0h244v555q0 131 37.5 202.5t96 99t119.5 27.5q86 0 137 -37.5t75.5 -95t32 -119.5t7.5 -112v-520h244v603q0 38 -6.5 101t-28.5 133t-68 132.5t-124.5 102t-197.5 39.5q-117 0 -205.5 -40.5t-147.5 -110.5
v120h-215v-1080z" />
    <glyph glyph-name="Eng" unicode="&#x14a;" horiz-adv-x="1436" 
d="M1052 1440v-1015l-668 1015h-244v-1440h244v1015l606 -920q61 -96 83 -148t22 -97q0 -115 -142 -115q-14 0 -29.5 1.5t-50.5 4.5v-181q36 -10 73 -14t74 -4q276 0 276 280v1618h-244z" />
    <glyph glyph-name="eng" unicode="&#x14b;" 
d="M138 0h244v555q0 131 37.5 202.5t96 99t119.5 27.5q86 0 137 -37.5t75.5 -95t32 -119.5t7.5 -112v-648q0 -79 -29.5 -109t-70.5 -32t-78 1v-172q50 -12 106 -17t124 8q90 17 141 87.5t51 183.5v781q0 38 -6.5 101t-28.5 133t-68 132.5t-124.5 102t-197.5 39.5
q-117 0 -205.5 -40.5t-147.5 -110.5v120h-215v-1080z" />
    <glyph glyph-name="Omacron" unicode="&#x14c;" horiz-adv-x="1499" 
d="M483 1680h533v187h-533v-187zM749 -30q216 0 370.5 94.5t237 263.5t82.5 392q0 224 -82.5 392.5t-237 263t-370.5 94.5q-215 0 -369.5 -94.5t-237 -263t-82.5 -392.5q0 -223 82.5 -392t237 -263.5t369.5 -94.5zM749 197q-217 3 -326 145t-108 378q1 158 49 276t144 183.5
t241 63.5q218 -3 326.5 -145t108.5 -378q0 -157 -48.5 -275.5t-145 -183.5t-241.5 -64z" />
    <glyph glyph-name="omacron" unicode="&#x14d;" horiz-adv-x="1236" 
d="M352 1320h533v187h-533v-187zM617 -30q162 0 283 72.5t188.5 201t67.5 296.5q0 167 -67 295.5t-188 201.5t-284 73q-159 0 -280 -72t-189 -200t-68 -298q0 -167 66.5 -295.5t187.5 -201.5t283 -73zM617 196q-139 0 -210.5 93.5t-71.5 250.5q0 153 68.5 248.5t213.5 95.5
q142 0 213 -93.5t71 -250.5q0 -152 -70.5 -248t-213.5 -96z" />
    <glyph glyph-name="Ohungarumlaut" unicode="&#x150;" horiz-adv-x="1499" 
d="M1077 1592l76 240h-238l-76 -240h238zM665 1592l76 240h-238l-76 -240h238zM749 -30q216 0 370.5 94.5t237 263.5t82.5 392q0 224 -82.5 392.5t-237 263t-370.5 94.5q-215 0 -369.5 -94.5t-237 -263t-82.5 -392.5q0 -223 82.5 -392t237 -263.5t369.5 -94.5zM749 197
q-217 3 -326 145t-108 378q1 158 49 276t144 183.5t241 63.5q218 -3 326.5 -145t108.5 -378q0 -157 -48.5 -275.5t-145 -183.5t-241.5 -64z" />
    <glyph glyph-name="ohungarumlaut" unicode="&#x151;" horiz-adv-x="1236" 
d="M942 1232l76 240h-238l-76 -240h238zM530 1232l76 240h-238l-76 -240h238zM617 -30q162 0 283 72.5t188.5 201t67.5 296.5q0 167 -67 295.5t-188 201.5t-284 73q-159 0 -280 -72t-189 -200t-68 -298q0 -167 66.5 -295.5t187.5 -201.5t283 -73zM617 196
q-139 0 -210.5 93.5t-71.5 250.5q0 153 68.5 248.5t213.5 95.5q142 0 213 -93.5t71 -250.5q0 -152 -70.5 -248t-213.5 -96z" />
    <glyph glyph-name="OE" unicode="&#x152;" horiz-adv-x="2226" 
d="M749 -30q216 0 370.5 94.5t237 263.5t82.5 392q0 224 -82.5 392.5t-237 263t-370.5 94.5q-215 0 -369.5 -94.5t-237 -263t-82.5 -392.5q0 -223 82.5 -392t237 -263.5t369.5 -94.5zM749 197q-217 3 -326 145t-108 378q1 158 49 276t144 183.5t241 63.5q218 -3 326.5 -145
t108.5 -378q0 -157 -48.5 -275.5t-145 -183.5t-241.5 -64zM1196 0h930v226h-689v407h569v226h-569v355h689v226h-930v-1440z" />
    <glyph glyph-name="oe" unicode="&#x153;" horiz-adv-x="2026" 
d="M1453 -30q156 0 285.5 80.5t191.5 227.5l-238 72q-72 -154 -253 -154q-123 0 -194 71.5t-85 205.5h782q14 195 -43 338t-174.5 221t-285.5 78q-159 0 -280 -71.5t-189 -202.5t-68 -308q0 -164 69.5 -290t193.5 -197t288 -71zM1449 899q112 0 172.5 -58.5t76.5 -185.5
h-532q43 244 283 244zM617 -30q162 0 283 72.5t188.5 201t67.5 296.5q0 167 -67 295.5t-188 201.5t-284 73q-159 0 -280 -72t-189 -200t-68 -298q0 -167 66.5 -295.5t187.5 -201.5t283 -73zM617 196q-139 0 -210.5 93.5t-71.5 250.5q0 153 68.5 248.5t213.5 95.5
q142 0 213 -93.5t71 -250.5q0 -152 -70.5 -248t-213.5 -96z" />
    <glyph glyph-name="Racute" unicode="&#x154;" horiz-adv-x="1320" 
d="M743 1590l76 240h-238l-76 -240h238zM140 0h241v503h342l244 -503h273l-266 546q123 55 183 167t60 258q0 179 -89.5 305.5t-277.5 155.5q-28 5 -61 6.5t-54 1.5h-595v-1440zM381 728v486h344q20 0 45 -2t46 -7q60 -15 94.5 -53.5t49 -86.5t14.5 -94t-14.5 -94t-49 -86
t-94.5 -53q-21 -6 -46 -8t-45 -2h-344z" />
    <glyph glyph-name="racute" unicode="&#x155;" horiz-adv-x="798" 
d="M497 1230l76 240h-238l-76 -240h238zM140 0h242v549q0 94 34.5 167t108.5 113q50 29 112 34.5t111 -8.5v225q-73 11 -150 -2.5t-137 -54.5q-34 -21 -61 -50.5t-47 -65.5v173h-213v-1080z" />
    <glyph glyph-name="uni0156" unicode="&#x156;" horiz-adv-x="1320" 
d="M140 0h241v503h342l244 -503h273l-266 546q123 55 183 167t60 258q0 179 -89.5 305.5t-277.5 155.5q-28 5 -61 6.5t-54 1.5h-595v-1440zM381 728v486h344q20 0 45 -2t46 -7q60 -15 94.5 -53.5t49 -86.5t14.5 -94t-14.5 -94t-49 -86t-94.5 -53q-21 -6 -46 -8t-45 -2h-344z
M540 -610q101 0 167 57.5t66 152.5v233h-233v-233h129q1 -46 -25.5 -68.5t-57.5 -29.5t-46 -7v-105z" />
    <glyph glyph-name="uni0157" unicode="&#x157;" horiz-adv-x="798" 
d="M140 0h242v549q0 94 34.5 167t108.5 113q50 29 112 34.5t111 -8.5v225q-73 11 -150 -2.5t-137 -54.5q-34 -21 -61 -50.5t-47 -65.5v173h-213v-1080zM145 -610q101 0 167 57.5t66 152.5v233h-233v-233h129q1 -46 -25.5 -68.5t-57.5 -29.5t-46 -7v-105z" />
    <glyph glyph-name="Rcaron" unicode="&#x158;" horiz-adv-x="1320" 
d="M614 1572l341 187l-88 153l-253 -138l-253 138l-88 -153zM140 0h241v503h342l244 -503h273l-266 546q123 55 183 167t60 258q0 179 -89.5 305.5t-277.5 155.5q-28 5 -61 6.5t-54 1.5h-595v-1440zM381 728v486h344q20 0 45 -2t46 -7q60 -15 94.5 -53.5t49 -86.5t14.5 -94
t-14.5 -94t-49 -86t-94.5 -53q-21 -6 -46 -8t-45 -2h-344z" />
    <glyph glyph-name="rcaron" unicode="&#x159;" horiz-adv-x="798" 
d="M445 1212l341 187l-88 153l-253 -138l-253 138l-88 -153zM140 0h242v549q0 94 34.5 167t108.5 113q50 29 112 34.5t111 -8.5v225q-73 11 -150 -2.5t-137 -54.5q-34 -21 -61 -50.5t-47 -65.5v173h-213v-1080z" />
    <glyph glyph-name="Sacute" unicode="&#x15a;" horiz-adv-x="1315" 
d="M783 1590l76 240h-238l-76 -240h238zM673 -30q148 0 277 50t208.5 150t79.5 249q0 107 -39.5 177.5t-101 113.5t-127 67t-118.5 38l-258 72q-48 13 -96 32.5t-80 53t-32 86.5q0 56 37.5 98t99 65t133.5 21q111 -3 200 -65t112 -176l259 45q-48 200 -197 309.5t-371 111.5
q-146 1 -265.5 -46.5t-190 -141.5t-70.5 -233q0 -95 31.5 -159.5t81 -105.5t105 -65t103.5 -38l372 -110q160 -48 160 -166q0 -66 -42.5 -112.5t-110.5 -70.5t-145 -24q-130 0 -229.5 70t-131.5 198l-250 -38q23 -141 104.5 -243.5t208 -157.5t283.5 -55z" />
    <glyph glyph-name="sacute" unicode="&#x15b;" horiz-adv-x="1083" 
d="M654 1230l76 240h-238l-76 -240h238zM557 -30q209 0 327.5 93t118.5 256q0 126 -79.5 198t-273.5 122q-126 32 -189.5 54t-84.5 44t-21 53q0 54 52 84.5t137 26.5q88 -5 141.5 -45t63.5 -109l246 44q-20 146 -143 232.5t-312 86.5q-193 0 -309 -90t-116 -242
q0 -121 81.5 -191t284.5 -123q122 -32 180.5 -53.5t76.5 -43.5t18 -59q0 -60 -48 -94.5t-134 -34.5q-99 0 -164.5 46t-83.5 126l-246 -38q27 -163 152 -253t325 -90z" />
    <glyph glyph-name="Scircumflex" unicode="&#x15c;" horiz-adv-x="1315" 
d="M424 1572l253 138l253 -138l88 153l-341 187l-341 -187zM673 -30q148 0 277 50t208.5 150t79.5 249q0 107 -39.5 177.5t-101 113.5t-127 67t-118.5 38l-258 72q-48 13 -96 32.5t-80 53t-32 86.5q0 56 37.5 98t99 65t133.5 21q111 -3 200 -65t112 -176l259 45
q-48 200 -197 309.5t-371 111.5q-146 1 -265.5 -46.5t-190 -141.5t-70.5 -233q0 -95 31.5 -159.5t81 -105.5t105 -65t103.5 -38l372 -110q160 -48 160 -166q0 -66 -42.5 -112.5t-110.5 -70.5t-145 -24q-130 0 -229.5 70t-131.5 198l-250 -38q23 -141 104.5 -243.5
t208 -157.5t283.5 -55z" />
    <glyph glyph-name="scircumflex" unicode="&#x15d;" horiz-adv-x="1083" 
d="M309 1212l253 138l253 -138l88 153l-341 187l-341 -187zM557 -30q209 0 327.5 93t118.5 256q0 126 -79.5 198t-273.5 122q-126 32 -189.5 54t-84.5 44t-21 53q0 54 52 84.5t137 26.5q88 -5 141.5 -45t63.5 -109l246 44q-20 146 -143 232.5t-312 86.5q-193 0 -309 -90
t-116 -242q0 -121 81.5 -191t284.5 -123q122 -32 180.5 -53.5t76.5 -43.5t18 -59q0 -60 -48 -94.5t-134 -34.5q-99 0 -164.5 46t-83.5 126l-246 -38q27 -163 152 -253t325 -90z" />
    <glyph glyph-name="Scedilla" unicode="&#x15e;" horiz-adv-x="1315" 
d="M673 -483q85 0 147.5 60t62.5 154q0 65 -32.5 111t-89.5 74l21 61q125 16 228.5 71t165.5 147.5t62 223.5q0 107 -39.5 177.5t-101 113.5t-127 67t-118.5 38l-258 72q-48 13 -96 32.5t-80 53t-32 86.5q0 56 37.5 98t99 65t133.5 21q111 -3 200 -65t112 -176l259 45
q-48 200 -197 309.5t-371 111.5q-146 1 -265.5 -46.5t-190 -141.5t-70.5 -233q0 -95 31.5 -159.5t81 -105.5t105 -65t103.5 -38l372 -110q160 -48 160 -166q0 -66 -42.5 -112.5t-110.5 -70.5t-145 -24q-130 0 -229.5 70t-131.5 198l-250 -38q22 -136 97.5 -235.5t193.5 -156
t266 -63.5l-50 -145q52 -15 91.5 -33t39.5 -57q0 -19 -16.5 -36.5t-46.5 -17.5q-22 0 -64 14l-53 -143q29 -16 63.5 -26t74.5 -10z" />
    <glyph glyph-name="scedilla" unicode="&#x15f;" horiz-adv-x="1083" 
d="M527 -483q85 0 147.5 60t62.5 154q0 65 -32.5 111t-89.5 74l20 58q173 17 270.5 107.5t97.5 237.5q0 126 -79.5 198t-273.5 122q-126 32 -189.5 54t-84.5 44t-21 53q0 54 52 84.5t137 26.5q88 -5 141.5 -45t63.5 -109l246 44q-20 146 -143 232.5t-312 86.5
q-193 0 -309 -90t-116 -242q0 -121 81.5 -191t284.5 -123q122 -32 180.5 -53.5t76.5 -43.5t18 -59q0 -60 -48 -94.5t-134 -34.5q-99 0 -164.5 46t-83.5 126l-246 -38q25 -149 131.5 -237t277.5 -103l-51 -147q52 -15 91.5 -33t39.5 -57q0 -19 -16.5 -36.5t-46.5 -17.5
q-22 0 -64 14l-53 -143q29 -16 63.5 -26t74.5 -10z" />
    <glyph glyph-name="Scaron" unicode="&#x160;" horiz-adv-x="1315" 
d="M684 1572l341 187l-88 153l-253 -138l-253 138l-88 -153zM673 -30q148 0 277 50t208.5 150t79.5 249q0 107 -39.5 177.5t-101 113.5t-127 67t-118.5 38l-258 72q-48 13 -96 32.5t-80 53t-32 86.5q0 56 37.5 98t99 65t133.5 21q111 -3 200 -65t112 -176l259 45
q-48 200 -197 309.5t-371 111.5q-146 1 -265.5 -46.5t-190 -141.5t-70.5 -233q0 -95 31.5 -159.5t81 -105.5t105 -65t103.5 -38l372 -110q160 -48 160 -166q0 -66 -42.5 -112.5t-110.5 -70.5t-145 -24q-130 0 -229.5 70t-131.5 198l-250 -38q23 -141 104.5 -243.5
t208 -157.5t283.5 -55z" />
    <glyph glyph-name="scaron" unicode="&#x161;" horiz-adv-x="1083" 
d="M558 1212l341 187l-88 153l-253 -138l-253 138l-88 -153zM557 -30q209 0 327.5 93t118.5 256q0 126 -79.5 198t-273.5 122q-126 32 -189.5 54t-84.5 44t-21 53q0 54 52 84.5t137 26.5q88 -5 141.5 -45t63.5 -109l246 44q-20 146 -143 232.5t-312 86.5q-193 0 -309 -90
t-116 -242q0 -121 81.5 -191t284.5 -123q122 -32 180.5 -53.5t76.5 -43.5t18 -59q0 -60 -48 -94.5t-134 -34.5q-99 0 -164.5 46t-83.5 126l-246 -38q27 -163 152 -253t325 -90z" />
    <glyph glyph-name="uni0162" unicode="&#x162;" horiz-adv-x="1213" 
d="M486 0h241v1214h466v226h-1173v-226h466v-1214zM558 -485q85 0 147.5 60t62.5 154q0 65 -32.5 111t-89.5 74l40 116l-146 -1l-71 -205q52 -15 91.5 -33t39.5 -57q0 -19 -16.5 -36.5t-46.5 -17.5q-22 0 -64 14l-53 -143q29 -16 63.5 -26t74.5 -10z" />
    <glyph glyph-name="uni0163" unicode="&#x163;" horiz-adv-x="866" 
d="M461 -483q85 0 147.5 60t62.5 154q0 65 -32.5 111t-89.5 74l23 66q48 -2 99 3t102 15v202q-101 -15 -180 -8t-115 67q-19 31 -20.5 80.5t-1.5 113.5v436h317v189h-317v300h-240v-300h-196v-189h196v-450q0 -93 2 -165.5t39 -142.5q28 -51 73 -83t103 -49l-61 -175
q52 -15 91.5 -33t39.5 -57q0 -19 -16.5 -36.5t-46.5 -17.5q-22 0 -64 14l-53 -143q29 -16 63.5 -26t74.5 -10z" />
    <glyph glyph-name="Tcaron" unicode="&#x164;" horiz-adv-x="1213" 
d="M607 1572l341 187l-88 153l-253 -138l-253 138l-88 -153zM486 0h241v1214h466v226h-1173v-226h466v-1214z" />
    <glyph glyph-name="tcaron" unicode="&#x165;" horiz-adv-x="866" 
d="M773 0v202q-101 -15 -180 -8t-115 67q-19 31 -20.5 80.5t-1.5 113.5v436h317v189h-317v300h-240v-300h-196v-189h196v-450q0 -93 2 -165.5t39 -142.5q42 -77 123 -112.5t183.5 -38t209.5 17.5zM680 1207q123 -20 185 47t62 198v267h-247v-257h128q8 -68 -18.5 -112
t-95.5 -39z" />
    <glyph glyph-name="Tbar" unicode="&#x166;" horiz-adv-x="1213" 
d="M486 0h241v600h350v240h-350v374h466v226h-1173v-226h466v-374h-349v-240h349v-600z" />
    <glyph glyph-name="tbar" unicode="&#x167;" horiz-adv-x="906" 
d="M20 463h196v-22q0 -93 2 -165.5t39 -142.5q42 -77 123 -112.5t183.5 -38t209.5 17.5v202q-101 -15 -180 -8t-115 67q-19 31 -20.5 80.5t-1.5 113.5v8h350v189h-350v239h317v189h-317v300h-240v-300h-196v-189h196v-239h-196v-189z" />
    <glyph glyph-name="Utilde" unicode="&#x168;" horiz-adv-x="1440" 
d="M720 -30q172 0 302.5 70t204 197t73.5 298v905h-244v-899q0 -107 -46.5 -184t-123 -118.5t-166.5 -41.5q-87 0 -164 41t-124.5 118t-47.5 185v899l-244 -2v-903q0 -171 73.5 -298t204.5 -197t302 -70zM903 1600q117 0 159.5 84t13.5 204h-152q14 -48 2 -80.5t-44 -32.5
q-29 0 -64 21t-74 48.5t-83 48.5t-91 21q-117 0 -159.5 -83.5t-13.5 -203.5h152q-13 47 -1.5 79.5t43.5 32.5q29 0 64 -21t74 -48.5t83 -48.5t91 -21z" />
    <glyph glyph-name="utilde" unicode="&#x169;" 
d="M545 -31q117 0 205.5 40.5t147.5 110.5v-120h213v1080h-242v-555q0 -131 -37.5 -202.5t-95.5 -99t-120 -27.5q-86 0 -137 37.5t-75.5 95t-32 119.5t-7.5 112v520h-244v-603q0 -38 6.5 -101t28.5 -133t68 -132.5t124.5 -102t197.5 -39.5zM803 1240q117 0 159.5 84
t13.5 204h-152q14 -48 2 -80.5t-44 -32.5q-29 0 -64 21t-74 48.5t-83 48.5t-91 21q-117 0 -159.5 -83.5t-13.5 -203.5h152q-13 47 -1.5 79.5t43.5 32.5q29 0 64 -21t74 -48.5t83 -48.5t91 -21z" />
    <glyph glyph-name="Umacron" unicode="&#x16a;" horiz-adv-x="1440" 
d="M453 1680h533v187h-533v-187zM720 -30q172 0 302.5 70t204 197t73.5 298v905h-244v-899q0 -107 -46.5 -184t-123 -118.5t-166.5 -41.5q-87 0 -164 41t-124.5 118t-47.5 185v899l-244 -2v-903q0 -171 73.5 -298t204.5 -197t302 -70z" />
    <glyph glyph-name="umacron" unicode="&#x16b;" 
d="M349 1320h533v187h-533v-187zM545 -31q117 0 205.5 40.5t147.5 110.5v-120h213v1080h-242v-555q0 -131 -37.5 -202.5t-95.5 -99t-120 -27.5q-86 0 -137 37.5t-75.5 95t-32 119.5t-7.5 112v520h-244v-603q0 -38 6.5 -101t28.5 -133t68 -132.5t124.5 -102t197.5 -39.5z" />
    <glyph glyph-name="Ubreve" unicode="&#x16c;" horiz-adv-x="1440" 
d="M720 1562q84 0 153 41t109.5 109.5t40.5 152.5h-188q0 -48 -33.5 -81.5t-81.5 -33.5t-81.5 33.5t-33.5 81.5h-188q0 -84 40.5 -152.5t109.5 -109.5t153 -41zM720 -30q172 0 302.5 70t204 197t73.5 298v905h-244v-899q0 -107 -46.5 -184t-123 -118.5t-166.5 -41.5
q-87 0 -164 41t-124.5 118t-47.5 185v899l-244 -2v-903q0 -171 73.5 -298t204.5 -197t302 -70z" />
    <glyph glyph-name="ubreve" unicode="&#x16d;" 
d="M616 1202q84 0 153 41t109.5 109.5t40.5 152.5h-188q0 -48 -33.5 -81.5t-81.5 -33.5t-81.5 33.5t-33.5 81.5h-188q0 -84 41 -152.5t109.5 -109.5t152.5 -41zM545 -31q117 0 205.5 40.5t147.5 110.5v-120h213v1080h-242v-555q0 -131 -37.5 -202.5t-95.5 -99t-120 -27.5
q-86 0 -137 37.5t-75.5 95t-32 119.5t-7.5 112v520h-244v-603q0 -38 6.5 -101t28.5 -133t68 -132.5t124.5 -102t197.5 -39.5z" />
    <glyph glyph-name="Uring" unicode="&#x16e;" horiz-adv-x="1440" 
d="M727 1552q71 0 129.5 35t93 93.5t34.5 128.5q0 71 -34.5 129.5t-93 93t-129.5 34.5q-70 0 -128.5 -34.5t-93.5 -93t-35 -129.5q0 -70 35 -128.5t93.5 -93.5t128.5 -35zM727 1689q-49 0 -84.5 35.5t-35.5 84.5q0 50 35.5 85t84.5 35q50 0 85 -35t35 -85q0 -49 -35 -84.5
t-85 -35.5zM720 -30q172 0 302.5 70t204 197t73.5 298v905h-244v-899q0 -107 -46.5 -184t-123 -118.5t-166.5 -41.5q-87 0 -164 41t-124.5 118t-47.5 185v899l-244 -2v-903q0 -171 73.5 -298t204.5 -197t302 -70z" />
    <glyph glyph-name="uring" unicode="&#x16f;" 
d="M616 1192q71 0 129.5 35t93 93.5t34.5 128.5q0 71 -34.5 129.5t-93 93t-129.5 34.5q-70 0 -128.5 -34.5t-93.5 -93t-35 -129.5q0 -70 35 -128.5t93.5 -93.5t128.5 -35zM616 1329q-49 0 -84.5 35.5t-35.5 84.5q0 50 35.5 85t84.5 35q50 0 85 -35t35 -85q0 -49 -35 -84.5
t-85 -35.5zM545 -31q117 0 205.5 40.5t147.5 110.5v-120h213v1080h-242v-555q0 -131 -37.5 -202.5t-95.5 -99t-120 -27.5q-86 0 -137 37.5t-75.5 95t-32 119.5t-7.5 112v520h-244v-603q0 -38 6.5 -101t28.5 -133t68 -132.5t124.5 -102t197.5 -39.5z" />
    <glyph glyph-name="Uhungarumlaut" unicode="&#x170;" horiz-adv-x="1440" 
d="M1041 1592l76 240h-238l-76 -240h238zM629 1592l76 240h-238l-76 -240h238zM720 -30q172 0 302.5 70t204 197t73.5 298v905h-244v-899q0 -107 -46.5 -184t-123 -118.5t-166.5 -41.5q-87 0 -164 41t-124.5 118t-47.5 185v899l-244 -2v-903q0 -171 73.5 -298t204.5 -197
t302 -70z" />
    <glyph glyph-name="uhungarumlaut" unicode="&#x171;" 
d="M946 1232l76 240h-238l-76 -240h238zM534 1232l76 240h-238l-76 -240h238zM545 -31q117 0 205.5 40.5t147.5 110.5v-120h213v1080h-242v-555q0 -131 -37.5 -202.5t-95.5 -99t-120 -27.5q-86 0 -137 37.5t-75.5 95t-32 119.5t-7.5 112v520h-244v-603q0 -38 6.5 -101
t28.5 -133t68 -132.5t124.5 -102t197.5 -39.5z" />
    <glyph glyph-name="Uogonek" unicode="&#x172;" horiz-adv-x="1440" 
d="M720 -30q172 0 302.5 70t204 197t73.5 298v905h-244v-899q0 -107 -46.5 -184t-123 -118.5t-166.5 -41.5q-87 0 -164 41t-124.5 118t-47.5 185v899l-244 -2v-903q0 -171 73.5 -298t204.5 -197t302 -70zM864 -416q54 0 105.5 26t86.5 74l-87 113q-40 -35 -74 -35
q-24 0 -41 17t-17 42q0 34 30 78t80.5 88t111.5 76l-105 121q-86 -41 -155 -103t-109.5 -134.5t-40.5 -144.5q0 -85 60.5 -151.5t154.5 -66.5z" />
    <glyph glyph-name="uogonek" unicode="&#x173;" 
d="M545 -31q117 0 205.5 40.5t147.5 110.5v-64q-87 -64 -142 -148.5t-55 -168.5q0 -85 60.5 -151.5t154.5 -66.5q54 0 105.5 26t86.5 74l-87 113q-40 -35 -74 -35q-24 0 -41 17t-17 42q0 34 30 78t80.5 88t111.5 76v1080h-242v-555q0 -131 -37.5 -202.5t-95.5 -99
t-120 -27.5q-86 0 -137 37.5t-75.5 95t-32 119.5t-7.5 112v520h-244v-603q0 -38 6.5 -101t28.5 -133t68 -132.5t124.5 -102t197.5 -39.5z" />
    <glyph glyph-name="Wcircumflex" unicode="&#x174;" horiz-adv-x="1951" 
d="M724 1572l253 138l253 -138l88 153l-341 187l-341 -187zM444 0h238l294 1024l294 -1024h238l420 1440h-253l-286 -1040l-287 1040l-253 -2l-286 -1038l-287 1040h-253z" />
    <glyph glyph-name="wcircumflex" unicode="&#x175;" horiz-adv-x="1605" 
d="M549 1212l253 138l253 -138l88 153l-341 187l-341 -187zM370 0h188l244 743l245 -743h188l330 1080h-236l-212 -693l-213 693h-203l-214 -693l-211 693l-236 2z" />
    <glyph glyph-name="Ycircumflex" unicode="&#x176;" horiz-adv-x="1223" 
d="M359 1572l253 138l253 -138l88 153l-341 187l-341 -187zM490 0h244v590l489 850h-281l-330 -574l-331 574h-281l490 -850v-590z" />
    <glyph glyph-name="ycircumflex" unicode="&#x177;" horiz-adv-x="1119" 
d="M322 1212l253 138l253 -138l88 153l-341 187l-341 -187zM282 -480h226l602 1560h-241l-293 -773l-302 773h-251l437 -1072z" />
    <glyph glyph-name="Ydieresis" unicode="&#x178;" horiz-adv-x="1223" 
d="M708 1607h220v220h-220v-220zM295 1607h220v220h-220v-220zM490 0h244v590l489 850h-281l-330 -574l-331 574h-281l490 -850v-590z" />
    <glyph glyph-name="Zacute" unicode="&#x179;" horiz-adv-x="1327" 
d="M785 1590l76 240h-238l-76 -240h238zM100 0h1110v227h-689l706 1179v34h-1077v-226h660l-710 -1181v-33z" />
    <glyph glyph-name="zacute" unicode="&#x17a;" horiz-adv-x="1067" 
d="M663 1230l76 240h-238l-76 -240h238zM40 0h923v211h-546l570 835v34h-889v-211h514l-572 -836v-33z" />
    <glyph glyph-name="Zdotaccent" unicode="&#x17b;" horiz-adv-x="1327" 
d="M574 1653h247v247h-247v-247zM100 0h1110v227h-689l706 1179v34h-1077v-226h660l-710 -1181v-33z" />
    <glyph glyph-name="zdotaccent" unicode="&#x17c;" horiz-adv-x="1067" 
d="M432 1293h247v247h-247v-247zM40 0h923v211h-546l570 835v34h-889v-211h514l-572 -836v-33z" />
    <glyph glyph-name="Zcaron" unicode="&#x17d;" horiz-adv-x="1327" 
d="M680 1572l341 187l-88 153l-253 -138l-253 138l-88 -153zM100 0h1110v227h-689l706 1179v34h-1077v-226h660l-710 -1181v-33z" />
    <glyph glyph-name="zcaron" unicode="&#x17e;" horiz-adv-x="1067" 
d="M554 1212l341 187l-88 153l-253 -138l-253 138l-88 -153zM40 0h923v211h-546l570 835v34h-889v-211h514l-572 -836v-33z" />
    <glyph glyph-name="florin" unicode="&#x192;" horiz-adv-x="1418" 
d="M346 -30q164 0 273.5 110.5t143.5 319.5l37 226h398v189h-366l43 263q15 90 80.5 127.5t132.5 37.5q56 0 98.5 -16t44.5 -19v0v0l110 199q-53 26 -125 44.5t-152 18.5q-124 0 -207 -46t-132.5 -116.5t-75 -146t-34.5 -134.5l-34 -212h-319v-189h288l-31 -192
q-14 -94 -59 -165.5t-134 -71.5q-40 0 -82.5 12t-65.5 25l-101 -203q52 -22 124 -41.5t145 -19.5z" />
    <glyph glyph-name="Ohorn" unicode="&#x1a0;" horiz-adv-x="1499" 
d="M749 -30q216 0 370.5 94.5t237 263.5t82.5 392q0 196 -64 351t-183 253q11 4 21 9q130 64 101 286l-182 -1q1 -52 -6.5 -100.5t-58.5 -71.5q-28 -13 -60 -9.5t-78 14.5v0q-85 19 -180 19q-215 0 -369.5 -94.5t-237 -263t-82.5 -392.5q0 -223 82.5 -392t237 -263.5
t369.5 -94.5zM749 197q-217 3 -326 145t-108 378q1 158 49 276t144 183.5t241 63.5q218 -3 326.5 -145t108.5 -378q0 -157 -48.5 -275.5t-145 -183.5t-241.5 -64z" />
    <glyph glyph-name="ohorn" unicode="&#x1a1;" horiz-adv-x="1236" 
d="M617 -30q162 0 283 72.5t188.5 201t67.5 296.5q0 128 -40 234.5t-113 182.5q25 6 47 17q130 64 101 286l-182 -1q1 -52 -6.5 -100.5t-58.5 -71.5q-27 -13 -59 -10t-76 14q-72 19 -152 19q-159 0 -280 -72t-189 -200t-68 -298q0 -167 66.5 -295.5t187.5 -201.5t283 -73z
M617 196q-139 0 -210.5 93.5t-71.5 250.5q0 153 68.5 248.5t213.5 95.5q142 0 213 -93.5t71 -250.5q0 -152 -70.5 -248t-213.5 -96z" />
    <glyph glyph-name="Uhorn" unicode="&#x1af;" horiz-adv-x="1440" 
d="M720 -30q172 0 302.5 70t204 197t73.5 298v767q38 1 74 9.5t68 26.5q62 36 88 104.5t12 177.5l-182 -1q1 -58 -16.5 -109.5t-93.5 -64.5q-19 -4 -40 -4.5t-43 -0.5h-111v-899q0 -107 -46.5 -184t-123 -118.5t-166.5 -41.5q-87 0 -164 41t-124.5 118t-47.5 185v899
l-244 -2v-903q0 -171 73.5 -298t204.5 -197t302 -70z" />
    <glyph glyph-name="uhorn" unicode="&#x1b0;" 
d="M545 -31q117 0 205.5 40.5t147.5 110.5v-120h213v947q53 8 92 31q62 36 88 104.5t12 177.5l-182 -1q1 -58 -16.5 -109.5t-93.5 -64.5q-19 -4 -40 -4.5t-43 -0.5h-59v-555q0 -131 -37.5 -202.5t-95.5 -99t-120 -27.5q-86 0 -137 37.5t-75.5 95t-32 119.5t-7.5 112v520
h-244v-603q0 -38 6.5 -101t28.5 -133t68 -132.5t124.5 -102t197.5 -39.5z" />
    <glyph glyph-name="uni0218" unicode="&#x218;" horiz-adv-x="1315" 
d="M673 -30q148 0 277 50t208.5 150t79.5 249q0 107 -39.5 177.5t-101 113.5t-127 67t-118.5 38l-258 72q-48 13 -96 32.5t-80 53t-32 86.5q0 56 37.5 98t99 65t133.5 21q111 -3 200 -65t112 -176l259 45q-48 200 -197 309.5t-371 111.5q-146 1 -265.5 -46.5t-190 -141.5
t-70.5 -233q0 -95 31.5 -159.5t81 -105.5t105 -65t103.5 -38l372 -110q160 -48 160 -166q0 -66 -42.5 -112.5t-110.5 -70.5t-145 -24q-130 0 -229.5 70t-131.5 198l-250 -38q23 -141 104.5 -243.5t208 -157.5t283.5 -55zM585 -610q101 0 167 57.5t66 152.5v233h-233v-233
h129q1 -46 -25.5 -68.5t-57.5 -29.5t-46 -7v-105z" />
    <glyph glyph-name="uni0219" unicode="&#x219;" horiz-adv-x="1083" 
d="M557 -30q209 0 327.5 93t118.5 256q0 126 -79.5 198t-273.5 122q-126 32 -189.5 54t-84.5 44t-21 53q0 54 52 84.5t137 26.5q88 -5 141.5 -45t63.5 -109l246 44q-20 146 -143 232.5t-312 86.5q-193 0 -309 -90t-116 -242q0 -121 81.5 -191t284.5 -123
q122 -32 180.5 -53.5t76.5 -43.5t18 -59q0 -60 -48 -94.5t-134 -34.5q-99 0 -164.5 46t-83.5 126l-246 -38q27 -163 152 -253t325 -90zM438 -610q101 0 167 57.5t66 152.5v233h-233v-233h129q1 -46 -25.5 -68.5t-57.5 -29.5t-46 -7v-105z" />
    <glyph glyph-name="uni021A" unicode="&#x21a;" horiz-adv-x="1213" 
d="M486 0h241v1214h466v226h-1173v-226h466v-1214zM490 -610q101 0 167 57.5t66 152.5v233h-233v-233h129q1 -46 -25.5 -68.5t-57.5 -29.5t-46 -7v-105z" />
    <glyph glyph-name="uni021B" unicode="&#x21b;" horiz-adv-x="866" 
d="M773 0v202q-101 -15 -180 -8t-115 67q-19 31 -20.5 80.5t-1.5 113.5v436h317v189h-317v300h-240v-300h-196v-189h196v-450q0 -93 2 -165.5t39 -142.5q42 -77 123 -112.5t183.5 -38t209.5 17.5zM363 -610q101 0 167 57.5t66 152.5v233h-233v-233h129q1 -46 -25.5 -68.5
t-57.5 -29.5t-46 -7v-105z" />
    <glyph glyph-name="uni0259" unicode="&#x259;" horiz-adv-x="1204" 
d="M573 1110q-156 0 -285.5 -80.5t-191.5 -227.5l238 -72q72 154 253 154q123 0 194 -71.5t85 -205.5h-782q-14 -195 43 -338t174.5 -221t285.5 -78q159 0 280 71.5t189 202.5t68 308q0 164 -69.5 290t-193.5 197t-288 71zM577 181q-112 0 -172.5 58.5t-76.5 185.5h532
q-43 -244 -283 -244z" />
    <glyph glyph-name="circumflex" unicode="&#x2c6;" horiz-adv-x="1162" 
d="M328 1572l253 138l253 -138l88 153l-341 187l-341 -187z" />
    <glyph glyph-name="caron" unicode="&#x2c7;" horiz-adv-x="1158" 
d="M581 1572l341 187l-88 153l-253 -138l-253 138l-88 -153z" />
    <glyph glyph-name="breve" unicode="&#x2d8;" horiz-adv-x="1086" 
d="M543 1562q84 0 153 41t109.5 109.5t40.5 152.5h-188q0 -48 -33.5 -81.5t-81.5 -33.5t-81.5 33.5t-33.5 81.5h-188q0 -84 41 -152.5t109.5 -109.5t152.5 -41z" />
    <glyph glyph-name="dotaccent" unicode="&#x2d9;" horiz-adv-x="727" 
d="M240 1653h247v247h-247v-247z" />
    <glyph glyph-name="ring" unicode="&#x2da;" horiz-adv-x="1096" 
d="M548 1552q71 0 129.5 35t93 93.5t34.5 128.5q0 71 -34.5 129.5t-93 93t-129.5 34.5q-70 0 -128.5 -34.5t-93.5 -93t-35 -129.5q0 -70 35 -128.5t93.5 -93.5t128.5 -35zM548 1689q-49 0 -84.5 35.5t-35.5 84.5q0 50 35.5 85t84.5 35q50 0 85 -35t35 -85q0 -49 -35 -84.5
t-85 -35.5z" />
    <glyph glyph-name="ogonek" unicode="&#x2db;" horiz-adv-x="887" 
d="M453 -479q54 0 105.5 26t86.5 74l-87 113q-40 -35 -74 -35q-24 0 -41 17t-17 42q0 34 30 78t80.5 88t111.5 76l-105 121q-86 -41 -155 -103t-109.5 -134.5t-40.5 -144.5q0 -85 60.5 -151.5t154.5 -66.5z" />
    <glyph glyph-name="tilde" unicode="&#x2dc;" horiz-adv-x="1155" 
d="M744 1600q117 0 159.5 84t13.5 204h-152q14 -48 2 -80.5t-44 -32.5q-29 0 -64 21t-74 48.5t-83 48.5t-91 21q-117 0 -159.5 -83.5t-13.5 -203.5h152q-13 47 -1.5 79.5t43.5 32.5q29 0 64 -21t74 -48.5t83 -48.5t91 -21z" />
    <glyph glyph-name="hungarumlaut" unicode="&#x2dd;" horiz-adv-x="1162" 
d="M844 1592l76 240h-238l-76 -240h238zM432 1592l76 240h-238l-76 -240h238z" />
    <glyph glyph-name="uni0374" unicode="&#x374;" horiz-adv-x="594" 
d="M120 1205h238l76 240h-238z" />
    <glyph glyph-name="uni0375" unicode="&#x375;" horiz-adv-x="594" 
d="M120 -362h238l76 240h-238z" />
    <glyph glyph-name="uni037E" unicode="&#x37e;" horiz-adv-x="687" 
d="M220 -255q123 -20 185 47t62 198v267h-247v-257h128q8 -68 -18.5 -112t-95.5 -39zM220 833h247v247h-247v-247z" />
    <glyph glyph-name="tonos" unicode="&#x384;" horiz-adv-x="1200" 
d="M443 1205h238l76 240h-238z" />
    <glyph glyph-name="dieresistonos" unicode="&#x385;" horiz-adv-x="1200" 
d="M444 1235h238l76 240h-238zM820 1245h195v220h-195v-220zM185 1245h195v220h-195v-220z" />
    <glyph glyph-name="Alphatonos" unicode="&#x386;" horiz-adv-x="1341" 
d="M40 0h248l98 312h568l99 -312h248l-454 1440h-353zM457 537l211 670l214 -670h-425zM60 1205h238l76 240h-238z" />
    <glyph glyph-name="anoteleia" unicode="&#x387;" horiz-adv-x="1200" 
d="M270 483q58 0 100.5 42t42.5 105t-42.5 105t-100.5 42q-63 0 -106.5 -42t-43.5 -105t43.5 -105t106.5 -42z" />
    <glyph glyph-name="Epsilontonos" unicode="&#x388;" horiz-adv-x="1500" 
d="M470 0h930v226h-689v407h569v226h-569v355h689v226h-930v-1440zM57 1205h238l76 240h-238z" />
    <glyph glyph-name="Etatonos" unicode="&#x389;" horiz-adv-x="1750" 
d="M447 0h241v608h682v-608h240v1440h-240v-606h-682v606h-241v-1440zM57 1205h238l76 240h-238z" />
    <glyph glyph-name="Iotatonos" unicode="&#x38a;" horiz-adv-x="827" 
d="M447 0h241v1440h-241v-1440zM57 1205h238l76 240h-238z" />
    <glyph glyph-name="Omicrontonos" unicode="&#x38c;" horiz-adv-x="1718" 
d="M969 -30q216 0 370.5 94.5t237 263.5t82.5 392q0 224 -82.5 392.5t-237 263t-370.5 94.5q-215 0 -369.5 -94.5t-237 -263t-82.5 -392.5q0 -223 82.5 -392t237 -263.5t369.5 -94.5zM969 197q-217 3 -326 145t-108 378q1 158 49 276t144 183.5t241 63.5q218 -3 326.5 -145
t108.5 -378q0 -157 -48.5 -275.5t-145 -183.5t-241.5 -64zM61 1205h238l76 240h-238z" />
    <glyph glyph-name="Upsilontonos" unicode="&#x38e;" horiz-adv-x="1668" 
d="M935 0h244v590l489 850h-281l-330 -574l-331 574h-281l490 -850v-590zM63 1205h238l76 240h-238z" />
    <glyph glyph-name="Omegatonos" unicode="&#x38f;" horiz-adv-x="1752" 
d="M324 0h508v226q-62 33 -124.5 100t-104 168t-41.5 234q0 142 52 258.5t149.5 186t232.5 69.5q136 0 233.5 -69.5t150 -187t51.5 -260.5q-1 -128 -40 -228.5t-99.5 -169t-124.5 -101.5v-226h502v226h-207q105 93 164.5 231t59.5 305q0 200 -85.5 360t-240.5 254t-364 94
q-208 0 -363 -94t-240.5 -254t-85.5 -360q0 -167 59.5 -305t164.5 -231h-207v-226zM61 1205h238l76 240h-238z" />
    <glyph glyph-name="iotadieresistonos" unicode="&#x390;" horiz-adv-x="976" 
d="M588 -8q39 -6 92.5 -8.5t108 1.5t94.5 15v202q-43 -7 -89.5 -9.5t-86.5 1.5q-34 3 -66 18t-52 48q-20 34 -21 81t-1 114v625h-241v-639q0 -103 2 -174t43 -139q44 -70 101 -98t116 -38zM320 1235h238l76 240h-238zM696 1245h195v220h-195v-220zM61 1245h195v220h-195
v-220z" />
    <glyph glyph-name="Alpha" unicode="&#x391;" horiz-adv-x="1341" 
d="M40 0h248l98 312h568l99 -312h248l-454 1440h-353zM457 537l211 670l214 -670h-425z" />
    <glyph glyph-name="Beta" unicode="&#x392;" horiz-adv-x="1262" 
d="M140 0h629q213 0 323 118t110 310q0 109 -53.5 198t-157.5 133q67 40 105.5 113.5t38.5 171.5q0 97 -45.5 188t-139 149.5t-239.5 58.5h-571v-1440zM384 865v350h324q86 0 134 -50t48 -125q0 -86 -52.5 -130.5t-129.5 -44.5h-324zM384 227v413h362q101 0 157 -59t56 -146
q0 -96 -62.5 -152t-157.5 -56h-355z" />
    <glyph glyph-name="Gamma" unicode="&#x393;" horiz-adv-x="1090" 
d="M140 0h241v1214h689v226h-930v-1440z" />
    <glyph glyph-name="uni0394" unicode="&#x394;" horiz-adv-x="1341" 
d="M494 1440l-454 -1440h1261l-454 1440h-353zM668 1206l313 -980h-622z" />
    <glyph glyph-name="Epsilon" unicode="&#x395;" horiz-adv-x="1170" 
d="M140 0h930v226h-689v407h569v226h-569v355h689v226h-930v-1440z" />
    <glyph glyph-name="Zeta" unicode="&#x396;" horiz-adv-x="1327" 
d="M100 0h1110v227h-689l706 1179v34h-1077v-226h660l-710 -1181v-33z" />
    <glyph glyph-name="Eta" unicode="&#x397;" horiz-adv-x="1443" 
d="M140 0h241v608h682v-608h240v1440h-240v-606h-682v606h-241v-1440z" />
    <glyph glyph-name="Theta" unicode="&#x398;" horiz-adv-x="1499" 
d="M749 -30q216 0 370.5 94.5t237 263.5t82.5 392q0 224 -82.5 392.5t-237 263t-370.5 94.5q-215 0 -369.5 -94.5t-237 -263t-82.5 -392.5q0 -223 82.5 -392t237 -263.5t369.5 -94.5zM749 197q-217 3 -326 145t-108 378q1 158 49 276t144 183.5t241 63.5q218 -3 326.5 -145
t108.5 -378q0 -157 -48.5 -275.5t-145 -183.5t-241.5 -64zM483 626h533v187h-533v-187z" />
    <glyph glyph-name="Iota" unicode="&#x399;" horiz-adv-x="561" 
d="M160 0h241v1440h-241v-1440z" />
    <glyph glyph-name="Kappa" unicode="&#x39a;" horiz-adv-x="1294" 
d="M140 0h241v672l607 -672h306l-661 734l619 706h-296l-575 -668v668h-241v-1440z" />
    <glyph glyph-name="Lambda" unicode="&#x39b;" horiz-adv-x="1281" 
d="M464 1440h353l454 -1440h-248l-385 1206l-380 -1206h-248z" />
    <glyph glyph-name="Mu" unicode="&#x39c;" horiz-adv-x="1710" 
d="M140 0h226v923l441 -923h96l442 923v-923h225v1440h-217l-498 -1020l-498 1020h-217v-1440z" />
    <glyph glyph-name="Nu" unicode="&#x39d;" horiz-adv-x="1436" 
d="M140 0h244v1015l668 -1015h244v1440h-244v-1015l-668 1015h-244v-1440z" />
    <glyph glyph-name="Xi" unicode="&#x39e;" horiz-adv-x="1447" 
d="M140 1214h1167v226h-1167v-226zM240 608h967v226h-967v-226zM140 0h1167v226h-1167v-226z" />
    <glyph glyph-name="Omicron" unicode="&#x39f;" horiz-adv-x="1499" 
d="M749 -30q216 0 370.5 94.5t237 263.5t82.5 392q0 224 -82.5 392.5t-237 263t-370.5 94.5q-215 0 -369.5 -94.5t-237 -263t-82.5 -392.5q0 -223 82.5 -392t237 -263.5t369.5 -94.5zM749 197q-217 3 -326 145t-108 378q1 158 49 276t144 183.5t241 63.5q218 -3 326.5 -145
t108.5 -378q0 -157 -48.5 -275.5t-145 -183.5t-241.5 -64z" />
    <glyph glyph-name="Pi" unicode="&#x3a0;" horiz-adv-x="1447" 
d="M140 0h241v1214h685v-1214h241v1440h-1167v-1440z" />
    <glyph glyph-name="Rho" unicode="&#x3a1;" horiz-adv-x="1277" 
d="M140 0h241v503h354q20 0 53.5 2t61.5 6q186 29 276.5 155.5t90.5 304.5q0 179 -89.5 305.5t-277.5 155.5q-28 5 -61 6.5t-54 1.5h-595v-1440zM381 728v486h344q20 0 45 -2t46 -7q60 -15 94.5 -53.5t49 -86.5t14.5 -94t-14.5 -94t-49 -86t-94.5 -53q-21 -6 -46 -8t-45 -2
h-344z" />
    <glyph glyph-name="Sigma" unicode="&#x3a3;" horiz-adv-x="1270" 
d="M140 0h984v226h-680l469 476v36l-469 476h686v226h-990v-217l495 -503l-495 -503v-217z" />
    <glyph glyph-name="Tau" unicode="&#x3a4;" horiz-adv-x="1213" 
d="M486 0h241v1214h466v226h-1173v-226h466v-1214z" />
    <glyph glyph-name="Upsilon" unicode="&#x3a5;" horiz-adv-x="1223" 
d="M490 0h244v590l489 850h-281l-330 -574l-331 574h-281l490 -850v-590z" />
    <glyph glyph-name="Phi" unicode="&#x3a6;" horiz-adv-x="1477" 
d="M618 0h239v205q148 -25 275.5 32t206 190t78.5 334q0 202 -78.5 336.5t-206 193.5t-275.5 34v115h-239v-115q-148 25 -275 -34t-205 -193.5t-78 -336.5q0 -201 78 -334t205 -190t275 -32v-205zM618 426q-117 -18 -185.5 27.5t-98 129t-29.5 178.5t29.5 181.5t98 135
t185.5 30.5v-682zM857 426v682q87 14 147.5 -13.5t97.5 -81.5t53.5 -122.5t16.5 -136.5q0 -90 -30 -172t-99 -128t-186 -28z" />
    <glyph glyph-name="Chi" unicode="&#x3a7;" horiz-adv-x="1311" 
d="M20 0h297l340 523l339 -523h295l-486 728l474 712h-297l-325 -507l-328 507h-295l474 -712z" />
    <glyph glyph-name="Psi" unicode="&#x3a8;" horiz-adv-x="1507" 
d="M633 0h241v314q113 6 210 41.5t166.5 109.5t98.5 193q11 41 14.5 79t3.5 73v630h-226v-591q0 -15 -1 -46t-9 -66q-22 -106 -92 -151.5t-165 -48.5v903h-241v-903q-91 2 -159 41.5t-95 144.5q-10 40 -11.5 73.5t-1.5 52.5v591h-226v-630q0 -28 3.5 -71t14.5 -84
q28 -118 96.5 -192t166.5 -109t212 -40v-314z" />
    <glyph glyph-name="uni03A9" unicode="&#x3a9;" horiz-adv-x="1499" 
d="M77 0h508v226q-62 33 -124.5 100t-104 168t-41.5 234q0 142 52 258.5t149.5 186t232.5 69.5q136 0 233.5 -69.5t150 -187t51.5 -260.5q-1 -128 -40 -228.5t-99.5 -169t-124.5 -101.5v-226h502v226h-207q105 93 164.5 231t59.5 305q0 200 -85.5 360t-240.5 254t-364 94
q-208 0 -363 -94t-240.5 -254t-85.5 -360q0 -167 59.5 -305t164.5 -231h-207v-226z" />
    <glyph glyph-name="Iotadieresis" unicode="&#x3aa;" horiz-adv-x="561" 
d="M377 1607h220v220h-220v-220zM-36 1607h220v220h-220v-220zM160 0h241v1440h-241v-1440z" />
    <glyph glyph-name="Upsilondieresis" unicode="&#x3ab;" horiz-adv-x="1223" 
d="M708 1607h220v220h-220v-220zM295 1607h220v220h-220v-220zM490 0h244v590l489 850h-281l-330 -574l-331 574h-281l490 -850v-590z" />
    <glyph glyph-name="alphatonos" unicode="&#x3ac;" horiz-adv-x="1221" 
d="M578 -30q102 0 185.5 37t140.5 103v-110h213v1080h-213v-107q-56 65 -136.5 101t-182.5 36q-155 0 -268.5 -74t-175 -203t-61.5 -293q0 -162 61 -291t172.5 -204t264.5 -75zM615 186q-97 0 -159 47.5t-91.5 128t-29.5 177.5q0 163 74.5 259t208.5 96q138 0 200.5 -98
t62.5 -256q0 -157 -63 -255.5t-203 -98.5zM518 1205h238l76 240h-238z" />
    <glyph glyph-name="epsilontonos" unicode="&#x3ad;" horiz-adv-x="1041" 
d="M517 -30q-119 0 -218 40t-159 118t-60 191q0 77 31 142t89 106q-86 96 -86 221q0 106 55.5 177.5t146 108t194.5 36.5q125 0 237 -46.5t201 -126.5l-136 -164q-60 47 -136 80t-154 33q-65 0 -112.5 -27.5t-47.5 -92.5q0 -73 61 -93.5t153 -20.5h79v-191h-80
q-65 0 -122 -5t-92 -29.5t-35 -83.5q0 -67 52 -107t143 -40q87 0 158 37.5t129 106.5l190 -127q-73 -114 -200 -178.5t-281 -64.5zM408 1205h238l76 240h-238z" />
    <glyph glyph-name="etatonos" unicode="&#x3ae;" 
d="M750 1230l76 240h-238l-76 -240h238zM138 0h244v555q0 131 37.5 202.5t96 99t119.5 27.5q86 0 137 -37.5t75.5 -95t32 -119.5t7.5 -112v-520h244v603q0 38 -6.5 101t-28.5 133t-68 132.5t-124.5 102t-197.5 39.5q-117 0 -205.5 -40.5t-147.5 -110.5v120h-215v-1080z" />
    <glyph glyph-name="iotatonos" unicode="&#x3af;" horiz-adv-x="812" 
d="M423 -8q39 -6 92.5 -8.5t108 1.5t94.5 15v202q-43 -7 -89.5 -9.5t-86.5 1.5q-34 3 -66 18t-52 48q-20 34 -21 81t-1 114v625h-241v-639q0 -103 2 -174t43 -139q44 -70 101 -98t116 -38zM162 1205h238l76 240h-238z" />
    <glyph glyph-name="upsilondieresistonos" unicode="&#x3b0;" horiz-adv-x="1233" 
d="M120 494q0 -61 7.5 -131.5t33.5 -140t79.5 -127t145 -92t230.5 -34.5t230.5 34.5t145 92t80 127t34 140t7.5 131.5v586h-244v-520q0 -50 -7.5 -112t-32.5 -119.5t-75.5 -95t-137.5 -37.5q-86 0 -137 37.5t-75.5 95t-32 119.5t-7.5 112v520h-244v-586zM460 1235h238
l76 240h-238zM836 1245h195v220h-195v-220zM201 1245h195v220h-195v-220z" />
    <glyph glyph-name="alpha" unicode="&#x3b1;" horiz-adv-x="1257" 
d="M578 -30q102 0 185.5 37t140.5 103v-110h213v1080h-213v-107q-56 65 -136.5 101t-182.5 36q-155 0 -268.5 -74t-175 -203t-61.5 -293q0 -162 61 -291t172.5 -204t264.5 -75zM615 186q-97 0 -159 47.5t-91.5 128t-29.5 177.5q0 163 74.5 259t208.5 96q138 0 200.5 -98
t62.5 -256q0 -157 -63 -255.5t-203 -98.5z" />
    <glyph glyph-name="beta" unicode="&#x3b2;" horiz-adv-x="1208" 
d="M138 -480h242v503q104 -53 249 -53q236 0 377.5 118.5t141.5 329.5q0 142 -67 241t-171 137q62 47 91.5 116t29.5 149q0 120 -59 212t-161.5 144.5t-234.5 52.5q-92 0 -177.5 -29t-149.5 -89t-93 -153q-10 -33 -14 -62.5t-4 -56.5v-1560zM639 194q-75 0 -147.5 30.5
t-95.5 97.5q-10 29 -12 65.5t-2 55.5v552q0 24 3 67.5t22 82.5q26 56 76 77.5t99 21.5q83 0 144.5 -48t61.5 -140q0 -82 -54 -130.5t-149 -56.5v-211q143 -1 232 -56.5t89 -173.5q0 -107 -74 -170.5t-193 -63.5z" />
    <glyph glyph-name="gamma" unicode="&#x3b3;" horiz-adv-x="1106" 
d="M432 -360h242v360l392 1080h-241l-272 -783l-271 783h-242l392 -1080v-360z" />
    <glyph glyph-name="delta" unicode="&#x3b4;" horiz-adv-x="1236" 
d="M612 -30q165 0 287.5 66.5t189.5 184t67 270.5q0 176 -89 304.5t-245 182.5q-86 33 -164.5 59.5t-128.5 59.5t-50 83q0 35 22 55.5t56 30.5q23 5 49 6.5t59 1.5h272v196h-327q-47 0 -74 -0.5t-53 -4.5q-95 -13 -148.5 -57.5t-74.5 -103t-21 -112.5q0 -98 51.5 -162
t128.5 -106q-161 -29 -250 -155t-89 -297q0 -151 66.5 -264t186.5 -175.5t279 -62.5zM619 196q-127 0 -194.5 77.5t-67.5 217.5q0 136 66 215.5t196 79.5q128 0 195 -78.5t67 -215.5q0 -134 -66 -215t-196 -81z" />
    <glyph glyph-name="epsilon" unicode="&#x3b5;" horiz-adv-x="1041" 
d="M517 -30q-119 0 -218 40t-159 118t-60 191q0 77 31 142t89 106q-86 96 -86 221q0 106 55.5 177.5t146 108t194.5 36.5q125 0 237 -46.5t201 -126.5l-136 -164q-60 47 -136 80t-154 33q-65 0 -112.5 -27.5t-47.5 -92.5q0 -73 61 -93.5t153 -20.5h79v-191h-80
q-65 0 -122 -5t-92 -29.5t-35 -83.5q0 -67 52 -107t143 -40q87 0 158 37.5t129 106.5l190 -127q-73 -114 -200 -178.5t-281 -64.5z" />
    <glyph glyph-name="zeta" unicode="&#x3b6;" horiz-adv-x="1052" 
d="M821 -240h211q29 177 -22.5 289t-157.5 149q-43 15 -96 21t-100 6q-93 0 -165.5 11.5t-114 53t-41.5 129.5q0 93 57.5 190.5t201.5 233.5q104 96 172 158.5t110 101.5t69 65t49.5 47t50.5 48v177h-905v-214h533q-85 -76 -157 -142.5t-150 -144.5q-112 -115 -174.5 -205.5
t-87 -171t-24.5 -166.5q0 -217 122 -306.5t327 -89.5q60 0 113 -4t93.5 -25t63.5 -70.5t22 -140.5z" />
    <glyph glyph-name="eta" unicode="&#x3b7;" 
d="M138 0h244v555q0 131 37.5 202.5t96 99t119.5 27.5q86 0 137 -37.5t75.5 -95t32 -119.5t7.5 -112v-520h244v603q0 38 -6.5 101t-28.5 133t-68 132.5t-124.5 102t-197.5 39.5q-117 0 -205.5 -40.5t-147.5 -110.5v120h-215v-1080z" />
    <glyph glyph-name="theta" unicode="&#x3b8;" horiz-adv-x="1373" 
d="M686 -30q192 0 327.5 92.5t207.5 260.5t72 397q0 227 -72 395.5t-207.5 261.5t-327.5 93q-191 0 -326.5 -93t-207.5 -261.5t-72 -395.5q0 -226 72 -395t207.5 -262t326.5 -93zM686 1242q160 0 246 -119t102 -309h-695q17 190 102.5 309t244.5 119zM686 197
q-159 0 -245.5 119.5t-101.5 309.5h695q-17 -190 -102.5 -309.5t-245.5 -119.5z" />
    <glyph glyph-name="iota" unicode="&#x3b9;" horiz-adv-x="812" 
d="M423 -8q39 -6 92.5 -8.5t108 1.5t94.5 15v202q-43 -7 -89.5 -9.5t-86.5 1.5q-34 3 -66 18t-52 48q-20 34 -21 81t-1 114v625h-241v-639q0 -103 2 -174t43 -139q44 -70 101 -98t116 -38z" />
    <glyph glyph-name="kappa" unicode="&#x3ba;" horiz-adv-x="1076" 
d="M138 0h246v520l413 -520h319l-455 540l419 540h-301l-395 -520v520h-244z" />
    <glyph glyph-name="lambda" unicode="&#x3bb;" horiz-adv-x="1146" 
d="M80 0h241l272 783l271 -783h242l-392 1080q-31 88 -66.5 166t-89.5 133.5t-140 75.5q-46 11 -95 13t-66 2h-75v-211h51q104 0 152.5 -41.5t86.5 -137.5z" />
    <glyph glyph-name="uni03BC" unicode="&#x3bc;" horiz-adv-x="1269" 
d="M138 -480h213v508q41 -28 94 -43.5t118 -15.5q116 0 205.5 40.5t147.5 112.5v-122h213v1080h-242v-555q0 -131 -37.5 -202.5t-95.5 -99t-119 -27.5q-87 0 -137.5 37.5t-75.5 95t-32.5 119.5t-7.5 112v520h-244v-1560z" />
    <glyph glyph-name="nu" unicode="&#x3bd;" horiz-adv-x="1106" 
d="M432 0h242l392 1080h-242l-271 -783l-272 783h-241z" />
    <glyph glyph-name="xi" unicode="&#x3be;" horiz-adv-x="1145" 
d="M921 -240h210q27 122 6.5 211t-74 146t-127.5 81q-52 18 -109.5 22t-120.5 5q-107 2 -191 21.5t-132 67t-48 133.5q0 112 80 153.5t217 46.5q70 2 100.5 3t41 1h19.5v228q-17 0 -64.5 0.5t-74.5 1.5q-115 5 -188 50.5t-73 139.5q0 90 68 131.5t171 41.5
q116 0 194.5 -44.5t124.5 -113.5l169 172q-78 93 -201.5 152.5t-286.5 59.5q-92 0 -180 -22t-159 -68.5t-113 -121.5t-42 -180q0 -100 39 -178.5t103 -134.5q-105 -40 -152.5 -130t-47.5 -206q0 -193 130.5 -311t414.5 -118q100 0 169.5 -12.5t102.5 -63t24 -164.5z" />
    <glyph glyph-name="omicron" unicode="&#x3bf;" horiz-adv-x="1236" 
d="M617 -30q162 0 283 72.5t188.5 201t67.5 296.5q0 167 -67 295.5t-188 201.5t-284 73q-159 0 -280 -72t-189 -200t-68 -298q0 -167 66.5 -295.5t187.5 -201.5t283 -73zM617 196q-139 0 -210.5 93.5t-71.5 250.5q0 153 68.5 248.5t213.5 95.5q142 0 213 -93.5t71 -250.5
q0 -152 -70.5 -248t-213.5 -96z" />
    <glyph glyph-name="pi" unicode="&#x3c0;" horiz-adv-x="1350" 
d="M247 0h240v866h376v-866h240v866h174v214h-1204v-214h174v-866z" />
    <glyph glyph-name="rho" unicode="&#x3c1;" horiz-adv-x="1271" 
d="M138 -480h243v568q53 -54 134 -86t178 -32q153 0 264.5 75t172.5 205t61 294q0 162 -61 290t-177.5 202t-284.5 74q-216 0 -350.5 -122t-166.5 -316q-9 -49 -11 -101.5t-2 -106.5v-944zM662 186q-142 0 -212.5 97t-70.5 258q0 158 68.5 255.5t214.5 97.5q144 0 215.5 -96
t71.5 -256q0 -157 -71.5 -256.5t-215.5 -99.5z" />
    <glyph glyph-name="uni03C2" unicode="&#x3c2;" horiz-adv-x="1151" 
d="M855 -240h210q27 170 -21.5 285t-159.5 153q-40 15 -88.5 20.5t-91.5 6t-67 0.5q-118 2 -180 43.5t-83.5 111.5t-21.5 155q0 151 57.5 250t192.5 99q92 0 155.5 -48.5t92.5 -135.5l240 65q-39 161 -166.5 253t-312.5 92q-163 0 -282.5 -72.5t-184 -205t-64.5 -313.5
q0 -250 128.5 -380.5t336.5 -138.5q94 -3 164.5 -14.5t109 -60.5t36.5 -165z" />
    <glyph glyph-name="sigma" unicode="&#x3c3;" horiz-adv-x="1273" 
d="M617 -30q161 0 282 73.5t189 199.5t68 283q0 99 -28.5 186t-76.5 154h165v214h-452q-91 0 -161 -2t-122 -14q-122 -29 -212.5 -105t-139.5 -187t-49 -246q0 -156 67 -282t188 -200t282 -74zM617 196q-138 0 -210 91.5t-72 238.5q0 90 30.5 164.5t93 119.5t158.5 44
q141 0 212.5 -94t71.5 -234q0 -142 -71 -236t-213 -94z" />
    <glyph glyph-name="tau" unicode="&#x3c4;" horiz-adv-x="1107" 
d="M674 -8q38 -6 91.5 -8.5t108.5 1.5t95 15v202q-43 -7 -90 -9.5t-87 1.5q-34 3 -66 18t-52 48q-19 34 -20.5 81t-1.5 114v411h361v214h-963v-214h361v-425q0 -103 2 -174t43 -139q44 -70 101.5 -98t116.5 -38z" />
    <glyph glyph-name="upsilon" unicode="&#x3c5;" horiz-adv-x="1233" 
d="M120 494q0 -61 7.5 -131.5t33.5 -140t79.5 -127t145 -92t230.5 -34.5t230.5 34.5t145 92t80 127t34 140t7.5 131.5v586h-244v-520q0 -50 -7.5 -112t-32.5 -119.5t-75.5 -95t-137.5 -37.5q-86 0 -137 37.5t-75.5 95t-32 119.5t-7.5 112v520h-244v-586z" />
    <glyph glyph-name="phi" unicode="&#x3c6;" horiz-adv-x="1513" 
d="M646 -450h214v431q158 -25 286.5 33.5t204 192.5t75.5 333q0 200 -75.5 333.5t-204 192t-286.5 33.5v324h-214v-324q-158 25 -286.5 -33.5t-204 -192t-75.5 -333.5q0 -199 75.5 -333t204 -192.5t286.5 -33.5v-431zM860 197v684q162 27 241.5 -66.5t79.5 -274.5
t-82.5 -274.5t-238.5 -68.5zM646 197q-156 -25 -238.5 70t-82.5 273q0 177 79.5 272.5t241.5 68.5v-684z" />
    <glyph glyph-name="chi" unicode="&#x3c7;" horiz-adv-x="1108" 
d="M20 0h284l251 357l249 -357h284l-397 546l387 534h-284l-239 -345l-243 345h-284l387 -534z" />
    <glyph glyph-name="psi" unicode="&#x3c8;" horiz-adv-x="1467" 
d="M618 -450h231v397q114 5 212.5 41t168.5 110t99 193q11 41 14.5 79t3.5 73v637h-226v-598q0 -15 -1 -46.5t-9 -66.5q-22 -106 -95 -151.5t-167 -47.5v910h-231v-910q-90 2 -161 41t-98 145q-10 39 -11.5 73t-1.5 53v598h-226v-637q0 -28 3.5 -71.5t14.5 -84.5
q28 -119 97.5 -192t168.5 -108t214 -40v-397z" />
    <glyph glyph-name="omega" unicode="&#x3c9;" horiz-adv-x="1596" 
d="M505 -30q90 0 169.5 39.5t123.5 137.5q44 -98 123.5 -137.5t169.5 -39.5q137 0 231.5 72t144 194t49.5 272q0 188 -77 348t-226 254l-164 -191q109 -83 160.5 -173t51.5 -226q0 -89 -22.5 -162.5t-67 -117t-112.5 -43.5q-72 0 -103.5 49.5t-39 134t-7.5 189.5v115h-222
v-115q0 -103 -7.5 -188t-38.5 -135t-104 -50q-98 0 -150 92.5t-52 230.5q0 132 50 223t161 176l-164 191q-146 -92 -224 -250.5t-78 -349.5q0 -148 48.5 -270.5t143 -196t233.5 -73.5z" />
    <glyph glyph-name="iotadieresis" unicode="&#x3ca;" horiz-adv-x="805" 
d="M377 1247h220v220h-220v-220zM-36 1247h220v220h-220v-220zM423 -8q39 -6 92.5 -8.5t108 1.5t94.5 15v202q-43 -7 -89.5 -9.5t-86.5 1.5q-34 3 -66 18t-52 48q-20 34 -21 81t-1 114v625h-241v-639q0 -103 2 -174t43 -139q44 -70 101 -98t116 -38z" />
    <glyph glyph-name="upsilondieresis" unicode="&#x3cb;" horiz-adv-x="1233" 
d="M713 1247h220v220h-220v-220zM300 1247h220v220h-220v-220zM120 494q0 -61 7.5 -131.5t33.5 -140t79.5 -127t145 -92t230.5 -34.5t230.5 34.5t145 92t80 127t34 140t7.5 131.5v586h-244v-520q0 -50 -7.5 -112t-32.5 -119.5t-75.5 -95t-137.5 -37.5q-86 0 -137 37.5
t-75.5 95t-32 119.5t-7.5 112v520h-244v-586z" />
    <glyph glyph-name="omicrontonos" unicode="&#x3cc;" horiz-adv-x="1236" 
d="M734 1230l76 240h-238l-76 -240h238zM617 -30q162 0 283 72.5t188.5 201t67.5 296.5q0 167 -67 295.5t-188 201.5t-284 73q-159 0 -280 -72t-189 -200t-68 -298q0 -167 66.5 -295.5t187.5 -201.5t283 -73zM617 196q-139 0 -210.5 93.5t-71.5 250.5q0 153 68.5 248.5
t213.5 95.5q142 0 213 -93.5t71 -250.5q0 -152 -70.5 -248t-213.5 -96z" />
    <glyph glyph-name="upsilontonos" unicode="&#x3cd;" horiz-adv-x="1233" 
d="M120 494q0 -61 7.5 -131.5t33.5 -140t79.5 -127t145 -92t230.5 -34.5t230.5 34.5t145 92t80 127t34 140t7.5 131.5v586h-244v-520q0 -50 -7.5 -112t-32.5 -119.5t-75.5 -95t-137.5 -37.5q-86 0 -137 37.5t-75.5 95t-32 119.5t-7.5 112v520h-244v-586zM502 1205h238
l76 240h-238z" />
    <glyph glyph-name="omegatonos" unicode="&#x3ce;" horiz-adv-x="1596" 
d="M505 -30q90 0 169.5 39.5t123.5 137.5q44 -98 123.5 -137.5t169.5 -39.5q137 0 231.5 72t144 194t49.5 272q0 188 -77 348t-226 254l-164 -191q109 -83 160.5 -173t51.5 -226q0 -89 -22.5 -162.5t-67 -117t-112.5 -43.5q-72 0 -103.5 49.5t-39 134t-7.5 189.5v115h-222
v-115q0 -103 -7.5 -188t-38.5 -135t-104 -50q-98 0 -150 92.5t-52 230.5q0 132 50 223t161 176l-164 191q-146 -92 -224 -250.5t-78 -349.5q0 -148 48.5 -270.5t143 -196t233.5 -73.5zM676 1205h238l76 240h-238z" />
    <glyph glyph-name="uni0400" unicode="&#x400;" horiz-adv-x="1170" 
d="M512 1590h238l-76 240h-238zM140 0h930v226h-689v407h569v226h-569v355h689v226h-930v-1440z" />
    <glyph glyph-name="uni0401" unicode="&#x401;" horiz-adv-x="1170" 
d="M695 1607h220v220h-220v-220zM282 1607h220v220h-220v-220zM140 0h930v226h-689v407h569v226h-569v355h689v226h-930v-1440z" />
    <glyph glyph-name="uni0402" unicode="&#x402;" horiz-adv-x="1352" 
d="M157 0h242v511q0 45 4.5 95t16.5 89q26 83 102 133t200 50q134 0 220 -71.5t86 -246.5q0 -89 -27.5 -160.5t-91 -113.5t-173.5 -42v-244q278 0 407 152t129 408q0 271 -134.5 410.5t-382.5 139.5q-250 0 -385 -137v253h320v214h-690v-214h157v-1226z" />
    <glyph glyph-name="uni0403" unicode="&#x403;" horiz-adv-x="1090" 
d="M619 1590l76 240h-238l-76 -240h238zM140 0h241v1214h689v226h-930v-1440z" />
    <glyph glyph-name="uni0404" unicode="&#x404;" horiz-adv-x="1446" 
d="M741 -30q-212 0 -363.5 100t-231.5 270t-79 380q1 224 82.5 392.5t232 263t359.5 94.5q254 0 422.5 -129.5t222.5 -365.5l-241 -34q-38 137 -139.5 218.5t-249.5 82.5q-187 3 -296 -111t-133 -297h512v-226h-510q7 -70 29 -135.5t66 -122.5q56 -77 144.5 -114t187.5 -39
q142 -1 243 79t141 208l236 -59q-66 -226 -230 -340.5t-405 -114.5z" />
    <glyph glyph-name="uni0405" unicode="&#x405;" horiz-adv-x="1315" 
d="M673 -30q148 0 277 50t208.5 150t79.5 249q0 107 -39.5 177.5t-101 113.5t-127 67t-118.5 38l-258 72q-48 13 -96 32.5t-80 53t-32 86.5q0 56 37.5 98t99 65t133.5 21q111 -3 200 -65t112 -176l259 45q-48 200 -197 309.5t-371 111.5q-146 1 -265.5 -46.5t-190 -141.5
t-70.5 -233q0 -95 31.5 -159.5t81 -105.5t105 -65t103.5 -38l372 -110q160 -48 160 -166q0 -66 -42.5 -112.5t-110.5 -70.5t-145 -24q-130 0 -229.5 70t-131.5 198l-250 -38q23 -141 104.5 -243.5t208 -157.5t283.5 -55z" />
    <glyph glyph-name="uni0406" unicode="&#x406;" horiz-adv-x="561" 
d="M160 0h241v1440h-241v-1440z" />
    <glyph glyph-name="uni0407" unicode="&#x407;" horiz-adv-x="561" 
d="M377 1607h220v220h-220v-220zM-36 1607h220v220h-220v-220zM160 0h241v1440h-241v-1440z" />
    <glyph glyph-name="uni0408" unicode="&#x408;" horiz-adv-x="1001" 
d="M428 -30q116 0 211 47t154 150q41 71 44.5 137.5t3.5 166.5v969h-244v-969q0 -59 -2.5 -103.5t-16.5 -76.5q-23 -50 -70 -72.5t-89 -22.5q-64 0 -117 44t-64 105l-238 -57q44 -145 153 -231.5t275 -86.5z" />
    <glyph glyph-name="uni0409" unicode="&#x409;" horiz-adv-x="2199" 
d="M1042 0h595q21 0 54.5 2t61.5 6q187 29 276.5 156t89.5 305t-90 305t-276 155q-28 5 -62 6.5t-54 1.5h-354v503h-241v-1440zM1283 226v486h344q20 0 45 -2t47 -8q60 -15 94 -53t48.5 -86t14.5 -94q0 -69 -34 -140t-123 -94q-22 -5 -47 -7t-45 -2h-344zM20 0
q152 -32 236.5 9.5t127 140.5t68.5 238q29 153 47 309t28.5 291.5t16.5 225.5h500v-1214h241v1440h-964q-4 -83 -10.5 -196.5t-17 -243.5t-26 -263.5t-38.5 -256.5q-21 -116 -45 -177.5t-62 -83t-102 -17.5v-202z" />
    <glyph glyph-name="uni040A" unicode="&#x40a;" horiz-adv-x="2205" 
d="M140 0h241v710h666v-710h595q21 0 54.5 2t61.5 6q187 29 276.5 156t89.5 305t-90 305t-276 155q-28 5 -62 6.5t-54 1.5h-354v503h-241v-504h-666v504h-241v-1440zM1288 226v486h344q20 0 45 -2t47 -8q60 -15 94 -53t48.5 -86t14.5 -94q0 -69 -34 -140t-123 -94
q-22 -5 -47 -7t-45 -2h-344z" />
    <glyph glyph-name="uni040B" unicode="&#x40b;" horiz-adv-x="1352" 
d="M0 1226h140v-1226h242v647q42 37 115 64t169 27q105 0 165.5 -34.5t90 -92.5t38 -129.5t8.5 -145.5v-336h244v410q0 164 -47.5 289.5t-156 196t-290.5 70.5q-97 0 -185.5 -20t-150.5 -57v337h308v214h-690v-214z" />
    <glyph glyph-name="uni040C" unicode="&#x40c;" horiz-adv-x="1294" 
d="M771 1590l76 240h-238l-76 -240h238zM140 0h241v672l607 -672h306l-661 734l619 706h-296l-575 -668v668h-241v-1440z" />
    <glyph glyph-name="uni040D" unicode="&#x40d;" horiz-adv-x="1436" 
d="M627 1590h238l-76 240h-238zM140 0h244l668 1015v-1015h244v1440h-244l-668 -1015v1015h-244v-1440z" />
    <glyph glyph-name="uni040E" unicode="&#x40e;" horiz-adv-x="1273" 
d="M658 1562q84 0 153 41t109.5 109.5t40.5 152.5h-188q0 -48 -33.5 -81.5t-81.5 -33.5t-81.5 33.5t-33.5 81.5h-188q0 -84 41 -152.5t109.5 -109.5t152.5 -41zM330 0h257l678 1440h-257l-362 -798l-351 798h-272l497 -1052z" />
    <glyph glyph-name="uni040F" unicode="&#x40f;" horiz-adv-x="1537" 
d="M648 -240h241v240h508v1440h-241v-1214h-775v1214h-241v-1440h508v-240z" />
    <glyph glyph-name="uni0410" unicode="&#x410;" horiz-adv-x="1341" 
d="M40 0h248l98 312h568l99 -312h248l-454 1440h-353zM457 537l211 670l214 -670h-425z" />
    <glyph glyph-name="uni0411" unicode="&#x411;" horiz-adv-x="1277" 
d="M140 0h595q21 0 54 1.5t61 4.5q122 14 203.5 76.5t122.5 159t41 210.5t-41.5 210.5t-123 159.5t-202.5 76q-28 3 -61.5 4.5t-53.5 1.5h-354v310h722v226h-963v-1440zM381 226v452h344q20 0 45 -1.5t46 -6.5q90 -19 124 -84t34 -134t-34 -134t-124 -84q-21 -4 -46 -6
t-45 -2h-344z" />
    <glyph glyph-name="uni0412" unicode="&#x412;" horiz-adv-x="1262" 
d="M140 0h629q213 0 323 118t110 310q0 109 -53.5 198t-157.5 133q67 40 105.5 113.5t38.5 171.5q0 97 -45.5 188t-139 149.5t-239.5 58.5h-571v-1440zM384 865v350h324q86 0 134 -50t48 -125q0 -86 -52.5 -130.5t-129.5 -44.5h-324zM384 227v413h362q101 0 157 -59t56 -146
q0 -96 -62.5 -152t-157.5 -56h-355z" />
    <glyph glyph-name="uni0413" unicode="&#x413;" horiz-adv-x="1090" 
d="M140 0h241v1214h689v226h-930v-1440z" />
    <glyph glyph-name="uni0414" unicode="&#x414;" horiz-adv-x="1504" 
d="M63 -240h241v240h880v-240h240v466h-108v1214l-939 2q-14 -223 -24.5 -401t-27.5 -363q-11 -125 -37 -227.5t-78.5 -163.5t-146.5 -61v-466zM438 226q43 51 64.5 104t33 125t21.5 179q11 110 17 203t11.5 184t11.5 195l478 -2v-988h-637z" />
    <glyph glyph-name="uni0415" unicode="&#x415;" horiz-adv-x="1170" 
d="M140 0h930v226h-689v407h569v226h-569v355h689v226h-930v-1440z" />
    <glyph glyph-name="uni0416" unicode="&#x416;" horiz-adv-x="1831" 
d="M20 0h298l477 655v-655h241v655l478 -655h297l-542 734l500 706h-288l-445 -651v651h-241v-651l-445 651h-288l500 -706z" />
    <glyph glyph-name="uni0417" unicode="&#x417;" horiz-adv-x="1299" 
d="M650 -30q161 0 290.5 55.5t205.5 157.5t76 242q0 119 -52.5 196.5t-147.5 116.5q67 53 104.5 136.5t37.5 182.5q0 143 -72 234.5t-186 135t-240 43.5q-160 0 -285.5 -61.5t-198.5 -150.5l169 -172q41 64 121.5 111t186.5 47q113 0 181.5 -52.5t68.5 -142.5
q0 -94 -73 -142t-188 -53q-27 -1 -74.5 -1.5t-64.5 -0.5v-228h19.5t41 -1t100.5 -3q78 -2 145.5 -19t109.5 -58t42 -117q0 -92 -73 -160.5t-234 -68.5q-110 0 -185.5 32.5t-121.5 83.5t-70 105l-206 -140q42 -78 118.5 -148.5t190 -115t264.5 -44.5z" />
    <glyph glyph-name="uni0418" unicode="&#x418;" horiz-adv-x="1436" 
d="M1296 0h-244v1015l-668 -1015h-244v1440h244v-1015l668 1015h244v-1440z" />
    <glyph glyph-name="uni0419" unicode="&#x419;" horiz-adv-x="1436" 
d="M717 1562q84 0 153 41t109.5 109.5t40.5 152.5h-188q0 -48 -33.5 -81.5t-81.5 -33.5t-81.5 33.5t-33.5 81.5h-188q0 -84 40.5 -152.5t109.5 -109.5t153 -41zM140 0h244l668 1015v-1015h244v1440h-244l-668 -1015v1015h-244v-1440z" />
    <glyph glyph-name="uni041A" unicode="&#x41a;" horiz-adv-x="1294" 
d="M140 0h241v672l607 -672h306l-661 734l619 706h-296l-575 -668v668h-241v-1440z" />
    <glyph glyph-name="uni041B" unicode="&#x41b;" horiz-adv-x="1445" 
d="M40 0q152 -32 236.5 9.5t127 140.5t68.5 238q29 153 47 309t28.5 291.5t16.5 225.5h500v-1214h241v1440h-964q-4 -83 -10.5 -196.5t-17 -243.5t-26 -263.5t-38.5 -256.5q-21 -116 -45 -177.5t-62 -83t-102 -17.5v-202z" />
    <glyph glyph-name="uni041C" unicode="&#x41c;" horiz-adv-x="1710" 
d="M140 0h226v923l441 -923h96l442 923v-923h225v1440h-217l-498 -1020l-498 1020h-217v-1440z" />
    <glyph glyph-name="uni041D" unicode="&#x41d;" horiz-adv-x="1443" 
d="M140 0h241v608h682v-608h240v1440h-240v-606h-682v606h-241v-1440z" />
    <glyph glyph-name="uni041E" unicode="&#x41e;" horiz-adv-x="1499" 
d="M749 -30q216 0 370.5 94.5t237 263.5t82.5 392q0 224 -82.5 392.5t-237 263t-370.5 94.5q-215 0 -369.5 -94.5t-237 -263t-82.5 -392.5q0 -223 82.5 -392t237 -263.5t369.5 -94.5zM749 197q-217 3 -326 145t-108 378q1 158 49 276t144 183.5t241 63.5q218 -3 326.5 -145
t108.5 -378q0 -157 -48.5 -275.5t-145 -183.5t-241.5 -64z" />
    <glyph glyph-name="uni041F" unicode="&#x41f;" horiz-adv-x="1447" 
d="M140 0h241v1214h685v-1214h241v1440h-1167v-1440z" />
    <glyph glyph-name="uni0420" unicode="&#x420;" horiz-adv-x="1277" 
d="M140 0h241v503h354q20 0 53.5 2t61.5 6q186 29 276.5 155.5t90.5 304.5q0 179 -89.5 305.5t-277.5 155.5q-28 5 -61 6.5t-54 1.5h-595v-1440zM381 728v486h344q20 0 45 -2t46 -7q60 -15 94.5 -53.5t49 -86.5t14.5 -94t-14.5 -94t-49 -86t-94.5 -53q-21 -6 -46 -8t-45 -2
h-344z" />
    <glyph glyph-name="uni0421" unicode="&#x421;" horiz-adv-x="1477" 
d="M749 -30q248 0 414.5 124.5t233.5 335.5l-243 67q-42 -140 -143 -220t-262 -80q-217 0 -326.5 143.5t-109.5 379.5q1 236 110 379.5t326 143.5q161 0 262 -80t143 -220l243 67q-67 212 -233.5 336t-414.5 124q-215 0 -369.5 -94.5t-237 -263t-82.5 -392.5
q0 -223 82.5 -392t237 -263.5t369.5 -94.5z" />
    <glyph glyph-name="uni0422" unicode="&#x422;" horiz-adv-x="1213" 
d="M486 0h241v1214h466v226h-1173v-226h466v-1214z" />
    <glyph glyph-name="uni0423" unicode="&#x423;" horiz-adv-x="1273" 
d="M330 0h257l678 1440h-257l-362 -798l-351 798h-272l497 -1052z" />
    <glyph glyph-name="uni0424" unicode="&#x424;" horiz-adv-x="1477" 
d="M618 0h239v205q148 -25 275.5 32t206 190t78.5 334q0 202 -78.5 336.5t-206 193.5t-275.5 34v115h-239v-115q-148 25 -275 -34t-205 -193.5t-78 -336.5q0 -201 78 -334t205 -190t275 -32v-205zM618 426q-117 -18 -185.5 27.5t-98 129t-29.5 178.5t29.5 181.5t98 135
t185.5 30.5v-682zM857 426v682q87 14 147.5 -13.5t97.5 -81.5t53.5 -122.5t16.5 -136.5q0 -90 -30 -172t-99 -128t-186 -28z" />
    <glyph glyph-name="uni0425" unicode="&#x425;" horiz-adv-x="1311" 
d="M20 0h297l340 523l339 -523h295l-486 728l474 712h-297l-325 -507l-328 507h-295l474 -712z" />
    <glyph glyph-name="uni0426" unicode="&#x426;" horiz-adv-x="1500" 
d="M1239 -227h241v441h-160v1193h-241v-1193h-698v1226h-241v-1440h1099v-227z" />
    <glyph glyph-name="uni0427" unicode="&#x427;" horiz-adv-x="1352" 
d="M970 0h242v1440h-242v-647q-42 -37 -115 -64t-169 -27q-105 0 -165.5 34.5t-90 92.5t-38 129.5t-8.5 145.5v336h-244v-410q0 -164 47.5 -289.5t156 -196t290.5 -70.5q97 0 185.5 20t150.5 57v-551z" />
    <glyph glyph-name="uni0428" unicode="&#x428;" horiz-adv-x="1893" 
d="M140 0h1613v1440h-240v-1214h-446v1214h-241v-1214h-445v1214h-241v-1440z" />
    <glyph glyph-name="uni0429" unicode="&#x429;" horiz-adv-x="1933" 
d="M140 0h1532v-227h241v441h-160v1226h-240v-1214h-446v1214h-241v-1214h-445v1214h-241v-1440z" />
    <glyph glyph-name="uni042A" unicode="&#x42a;" horiz-adv-x="1317" 
d="M193 0h595q21 0 54.5 2t61.5 6q187 29 276.5 156t89.5 305t-90 305t-276 155q-28 5 -62 6.5t-54 1.5h-354v503h-437v-189h196v-1251zM434 226v486h344q20 0 45 -2t47 -8q60 -15 94 -53t48.5 -86t14.5 -94q0 -69 -34 -140t-123 -94q-22 -5 -47 -7t-45 -2h-344z" />
    <glyph glyph-name="uni042B" unicode="&#x42b;" horiz-adv-x="1739" 
d="M138 0h595q21 0 54.5 2t61.5 6q187 29 276.5 156t89.5 305t-90 305t-276 155q-28 5 -62 6.5t-54 1.5h-354v503h-241v-1440zM379 226v486h344q20 0 45 -2t47 -8q60 -15 94 -53t48.5 -86t14.5 -94q0 -69 -34 -140t-123 -94q-22 -5 -47 -7t-45 -2h-344zM1359 0h241v1440
h-241v-1440z" />
    <glyph glyph-name="uni042C" unicode="&#x42c;" horiz-adv-x="1295" 
d="M138 0h595q21 0 54.5 2t61.5 6q187 29 276.5 156t89.5 305t-90 305t-276 155q-28 5 -62 6.5t-54 1.5h-354v503h-241v-1440zM379 226v486h344q20 0 45 -2t47 -8q60 -15 94 -53t48.5 -86t14.5 -94q0 -69 -34 -140t-123 -94q-22 -5 -47 -7t-45 -2h-344z" />
    <glyph glyph-name="uni042D" unicode="&#x42d;" horiz-adv-x="1439" 
d="M705 -30q212 0 363.5 100t231.5 270t79 380q-1 224 -82.5 392.5t-232 263t-359.5 94.5q-254 0 -422.5 -129.5t-222.5 -365.5l241 -34q38 137 139.5 218.5t249.5 82.5q187 3 296 -111t133 -297h-512v-226h510q-7 -70 -29 -135.5t-66 -122.5q-56 -77 -144.5 -114
t-187.5 -39q-142 -1 -243 79t-141 208l-236 -59q66 -226 230 -340.5t405 -114.5z" />
    <glyph glyph-name="uni042E" unicode="&#x42e;" horiz-adv-x="1893" 
d="M140 0h241v600h245q18 -192 94 -333.5t204 -219t302 -77.5q192 0 327.5 92.5t207.5 260.5t72 397q0 227 -72 395.5t-207.5 261.5t-327.5 93q-174 0 -302 -77.5t-204 -219t-94 -333.5h-245v600h-241v-1440zM1226 197q-119 0 -197 67.5t-116 186t-38 269.5q1 152 39 269.5
t115.5 185t196.5 67.5q120 0 198 -67.5t116 -185t38 -269.5q0 -151 -38.5 -269.5t-116 -186t-197.5 -67.5z" />
    <glyph glyph-name="uni042F" unicode="&#x42f;" horiz-adv-x="1320" 
d="M1180 0h-241v503h-342l-244 -503h-273l266 546q-123 55 -183 167t-60 258q0 179 89.5 305.5t277.5 155.5q28 5 61 6.5t54 1.5h595v-1440zM939 728v486h-344q-20 0 -45 -2t-46 -7q-60 -15 -94.5 -53.5t-49 -86.5t-14.5 -94t14.5 -94t49 -86t94.5 -53q21 -6 46 -8t45 -2
h344z" />
    <glyph glyph-name="uni0430" unicode="&#x430;" horiz-adv-x="1152" 
d="M442 -30q129 0 219.5 42.5t159.5 132.5v-145h211v663q0 70 -6 129.5t-35 116.5q-53 107 -162.5 154t-253.5 47q-190 0 -303 -83t-153 -220l220 -69q27 83 95 117t141 34q110 0 162 -44.5t59 -137.5q-142 -21 -263.5 -40.5t-206.5 -47.5q-128 -44 -187 -124.5t-59 -198.5
q0 -89 41.5 -163t122.5 -118.5t198 -44.5zM490 162q-85 0 -129.5 39t-44.5 98q0 53 34.5 86t96.5 56q57 19 137 33.5t209 34.5q-1 -38 -5 -84.5t-19 -83.5q-12 -37 -46.5 -79t-92.5 -71t-140 -29z" />
    <glyph glyph-name="uni0431" unicode="&#x431;" horiz-adv-x="1197" 
d="M590 -32q156 -1 274.5 65t185.5 186.5t67 279.5q0 144 -55.5 260t-158.5 184t-247 68q-95 0 -188 -37.5t-155 -129.5q7 91 45 172.5t110 126.5q52 33 123 50t149.5 26t152 16.5t129.5 21.5l-22 213q-118 -23 -236.5 -36t-226.5 -39t-195 -87q-59 -40 -109.5 -99
t-80.5 -130q-29 -69 -46.5 -169.5t-22.5 -205.5t1 -190q19 -250 146.5 -396.5t359.5 -149.5zM601 194q-126 0 -194 77t-68 218q0 137 67 216t195 79q126 0 194.5 -79t68.5 -216q0 -134 -66.5 -214.5t-196.5 -80.5z" />
    <glyph glyph-name="uni0432" unicode="&#x432;" horiz-adv-x="1118" 
d="M138 0h531q50 0 98 4.5t85 14.5q101 29 153.5 103.5t52.5 183.5q0 96 -37.5 149t-92.5 80q-33 16 -74 23q35 10 71 40q36 29 58 74t22 114q0 117 -60 183.5t-138 89.5q-33 9 -79 15t-99 6h-491v-1080zM382 634v257h195q10 0 45.5 -1.5t60.5 -10.5q38 -12 55.5 -44
t17.5 -72q0 -38 -16 -68.5t-48 -44.5q-21 -9 -50.5 -12.5t-59.5 -3.5h-200zM382 186v259h265q15 0 38.5 -1.5t43.5 -9.5q34 -10 58.5 -39t24.5 -79q0 -36 -16.5 -69t-52.5 -46q-20 -7 -45 -11t-46 -4h-270z" />
    <glyph glyph-name="uni0433" unicode="&#x433;" horiz-adv-x="960" 
d="M140 0h241v854h529v226h-770v-1080z" />
    <glyph glyph-name="uni0434" unicode="&#x434;" horiz-adv-x="1267" 
d="M60 -240h227v240h692v-240h228v429h-109v891h-804q-8 -182 -19 -336.5t-31 -286.5q-22 -148 -59.5 -208t-124.5 -60v-429zM383 189q39 40 56 93.5t27 138.5q14 96 23.5 223t15.5 247h353v-702h-475z" />
    <glyph glyph-name="uni0435" unicode="&#x435;" horiz-adv-x="1204" 
d="M631 -30q156 0 285.5 80.5t191.5 227.5l-238 72q-72 -154 -253 -154q-123 0 -194 71.5t-85 205.5h782q14 195 -43 338t-174.5 221t-285.5 78q-159 0 -280 -71.5t-189 -202.5t-68 -308q0 -164 69.5 -290t193.5 -197t288 -71zM627 899q112 0 172.5 -58.5t76.5 -185.5h-532
q43 244 283 244z" />
    <glyph glyph-name="uni0436" unicode="&#x436;" horiz-adv-x="1531" 
d="M20 0h278l361 523v-523h214v523l360 -523h278l-396 540l372 540h-263l-351 -523v523h-214v-523l-351 523h-264l372 -540z" />
    <glyph glyph-name="uni0437" unicode="&#x437;" horiz-adv-x="1041" 
d="M524 -30q119 0 218 40t159 118t60 191q0 77 -31 142t-89 106q86 96 86 221q0 106 -55.5 177.5t-146 108t-194.5 36.5q-125 0 -237 -46.5t-201 -126.5l136 -164q60 47 136 80t154 33q65 0 112.5 -27.5t47.5 -92.5q0 -73 -61 -93.5t-153 -20.5h-79v-191h80q65 0 122 -5
t92 -29.5t35 -83.5q0 -67 -52 -107t-143 -40q-87 0 -158 37.5t-129 106.5l-190 -127q73 -114 200 -178.5t281 -64.5z" />
    <glyph glyph-name="uni0438" unicode="&#x438;" horiz-adv-x="1216" 
d="M1076 1080h-191l-516 -687v687h-231v-1080h193l514 705v-705h231v1080z" />
    <glyph glyph-name="uni0439" unicode="&#x439;" horiz-adv-x="1216" 
d="M639 1202q84 0 153 41t109.5 109.5t40.5 152.5h-188q0 -48 -33.5 -81.5t-81.5 -33.5t-81.5 33.5t-33.5 81.5h-188q0 -84 41 -152.5t109.5 -109.5t152.5 -41zM1076 1080h-191l-516 -687v687h-231v-1080h193l514 705v-705h231v1080z" />
    <glyph glyph-name="uni043A" unicode="&#x43a;" horiz-adv-x="1076" 
d="M138 0h246v520l413 -520h319l-455 540l419 540h-301l-395 -520v520h-244z" />
    <glyph glyph-name="uni043B" unicode="&#x43b;" horiz-adv-x="1210" 
d="M40 0q185 -41 267 24t116 241q14 70 25.5 175t21.5 216t17 198h343v-854h240v1080h-795q-12 -207 -28 -398t-40 -325q-17 -95 -47.5 -133t-119.5 -22v-202z" />
    <glyph glyph-name="uni043C" unicode="&#x43c;" horiz-adv-x="1448" 
d="M138 0h231v595l307 -595h95l307 595v-595h230v1080h-197l-388 -746l-387 746h-198v-1080z" />
    <glyph glyph-name="uni043D" unicode="&#x43d;" horiz-adv-x="1245" 
d="M138 0h241v428h485v-428h241v1080h-241v-426h-485v426h-241v-1080z" />
    <glyph glyph-name="uni043E" unicode="&#x43e;" horiz-adv-x="1236" 
d="M617 -30q162 0 283 72.5t188.5 201t67.5 296.5q0 167 -67 295.5t-188 201.5t-284 73q-159 0 -280 -72t-189 -200t-68 -298q0 -167 66.5 -295.5t187.5 -201.5t283 -73zM617 196q-139 0 -210.5 93.5t-71.5 250.5q0 153 68.5 248.5t213.5 95.5q142 0 213 -93.5t71 -250.5
q0 -152 -70.5 -248t-213.5 -96z" />
    <glyph glyph-name="uni043F" unicode="&#x43f;" horiz-adv-x="1216" 
d="M138 0h241v854h456v-854h241v1080h-938v-1080z" />
    <glyph glyph-name="uni0440" unicode="&#x440;" horiz-adv-x="1232" 
d="M138 -480h243v535q55 -40 124.5 -62.5t153.5 -22.5q150 0 260.5 75t171.5 204t61 291q0 164 -61.5 293t-174.5 203t-266 74q-92 0 -167 -28t-132 -80v78h-213v-1560zM622 186q-145 0 -208 98.5t-63 255.5q0 158 62.5 256t200.5 98q97 0 159.5 -47.5t93 -128t30.5 -178.5
q0 -99 -29.5 -179t-90.5 -127.5t-155 -47.5z" />
    <glyph glyph-name="uni0441" unicode="&#x441;" horiz-adv-x="1151" 
d="M609 -30q181 0 306 88.5t175 253.5l-246 55q-28 -83 -83.5 -127t-151.5 -44q-136 0 -204.5 95t-69.5 249q1 149 66.5 246.5t207.5 97.5q83 0 148 -48.5t93 -135.5l240 65q-38 160 -166 252.5t-312 92.5q-164 0 -283 -73.5t-183.5 -202t-65.5 -294.5q1 -163 63.5 -292
t180.5 -203.5t285 -74.5z" />
    <glyph glyph-name="uni0442" unicode="&#x442;" horiz-adv-x="1063" 
d="M411 0h241v866h361v214h-963v-214h361v-866z" />
    <glyph glyph-name="uni0443" unicode="&#x443;" horiz-adv-x="1119" 
d="M282 -480h226l602 1560h-241l-293 -773l-302 773h-251l437 -1072z" />
    <glyph glyph-name="uni0444" unicode="&#x444;" horiz-adv-x="1506" 
d="M646 -450h214v431q158 -25 286.5 33.5t204 192.5t75.5 333q0 200 -75.5 333.5t-204 192t-286.5 33.5v324h-214v-324q-158 25 -286.5 -33.5t-204 -192t-75.5 -333.5q0 -199 75.5 -333t204 -192.5t286.5 -33.5v-431zM860 197v684q162 27 241.5 -66.5t79.5 -274.5
t-82.5 -274.5t-238.5 -68.5zM646 197q-156 -25 -238.5 70t-82.5 273q0 177 79.5 272.5t241.5 68.5v-684z" />
    <glyph glyph-name="uni0445" unicode="&#x445;" horiz-adv-x="1108" 
d="M20 0h284l251 357l249 -357h284l-397 546l387 534h-284l-239 -345l-243 345h-284l387 -534z" />
    <glyph glyph-name="uni0446" unicode="&#x446;" horiz-adv-x="1305" 
d="M1044 -227h241v441h-209v866h-241v-854h-456v854h-241v-1080h906v-227z" />
    <glyph glyph-name="uni0447" unicode="&#x447;" horiz-adv-x="1151" 
d="M769 0h242v1080h-242v-498q-38 -29 -93 -48t-127 -19q-93 0 -143 37t-69 117q-10 41 -11.5 83.5t-1.5 65.5v262h-244v-262q0 -28 2 -94t15 -128q29 -142 128.5 -217.5t266.5 -75.5q159 0 277 60v-363z" />
    <glyph glyph-name="uni0448" unicode="&#x448;" horiz-adv-x="1581" 
d="M138 0h1303v1080h-231v-866h-305v866h-231v-866h-305v866h-231v-1080z" />
    <glyph glyph-name="uni0449" unicode="&#x449;" horiz-adv-x="1562" 
d="M1301 -227h241v441h-101v866h-231v-866h-305v866h-231v-866h-305v866h-231v-1080h1163v-227z" />
    <glyph glyph-name="uni044A" unicode="&#x44a;" horiz-adv-x="1196" 
d="M197 0h438q45 0 102.5 2.5t97.5 11.5q133 31 207 116.5t74 228.5q0 150 -75.5 235.5t-212.5 114.5q-38 7 -94.5 9t-102.5 2h-193v360h-398v-189h157v-891zM438 189v342h218q20 0 45 -2t49 -8q50 -13 85.5 -55t35.5 -107q0 -63 -35 -104.5t-80 -54.5q-25 -7 -51.5 -9
t-48.5 -2h-218z" />
    <glyph glyph-name="uni044B" unicode="&#x44b;" horiz-adv-x="1478" 
d="M139 0h364q45 0 103 2.5t97 11.5q134 31 207.5 116.5t73.5 228.5q0 150 -75.5 235t-212.5 115q-38 7 -94.5 9t-101.5 2h-121v360h-241zM1097 0h241v1080h-241v-1080zM379 189v342h145q20 0 45 -2t49 -8q50 -13 85.5 -55t35.5 -107q0 -63 -35 -104.5t-80 -54.5
q-25 -7 -51.5 -9t-48.5 -2h-145z" />
    <glyph glyph-name="uni044C" unicode="&#x44c;" horiz-adv-x="1137" 
d="M139 0h437q46 0 103.5 2.5t97.5 11.5q133 31 206.5 116.5t73.5 228.5q0 150 -75.5 235.5t-212.5 114.5q-38 7 -94 9t-102 2h-194v360h-241zM379 189v342h218q21 0 46 -2t48 -8q50 -13 85.5 -55t35.5 -107q0 -63 -35 -104.5t-79 -54.5q-25 -7 -52 -9t-49 -2h-218z" />
    <glyph glyph-name="uni044D" unicode="&#x44d;" horiz-adv-x="1153" 
d="M544 -30q166 0 284.5 74t181.5 202.5t63 291.5q0 167 -64.5 296t-183.5 202.5t-283 73.5q-185 0 -313 -92.5t-166 -252.5l240 -65q29 89 94.5 136.5t153.5 47.5q113 0 177.5 -71t80.5 -178h-359v-189h359q-18 -115 -84.5 -182.5t-180.5 -67.5q-96 0 -151.5 44t-83.5 127
l-246 -55q50 -165 175 -253.5t306 -88.5z" />
    <glyph glyph-name="uni044E" unicode="&#x44e;" horiz-adv-x="1702" 
d="M1083 -30q161 0 282.5 72.5t189 201.5t67.5 298q0 165 -67 293t-187 201.5t-280 73.5q-195 0 -331 -117t-168 -333h-210v420h-241v-1080h241v420h210q32 -213 166.5 -331.5t327.5 -118.5zM1081 196q-138 0 -209 93.5t-71 252.5q0 155 69 248.5t211 93.5q143 0 214.5 -93
t71.5 -251q0 -153 -71 -248.5t-215 -95.5z" />
    <glyph glyph-name="uni044F" unicode="&#x44f;" horiz-adv-x="1167" 
d="M80 0h253l223 360h37h193v-360h241v1080h-438q-37 0 -92 -1.5t-108 -12.5q-125 -25 -203 -114t-78 -235q0 -127 60 -208.5t157 -116.5zM568 549q-19 0 -43.5 1.5t-49.5 8.5q-49 14 -85.5 55.5t-36.5 104.5q0 62 36 105t79 56q26 7 53.5 9t46.5 2h218v-342h-218z" />
    <glyph glyph-name="uni0450" unicode="&#x450;" horiz-adv-x="1204" 
d="M506 1230h238l-76 240h-238zM631 -30q156 0 285.5 80.5t191.5 227.5l-238 72q-72 -154 -253 -154q-123 0 -194 71.5t-85 205.5h782q14 195 -43 338t-174.5 221t-285.5 78q-159 0 -280 -71.5t-189 -202.5t-68 -308q0 -164 69.5 -290t193.5 -197t288 -71zM627 899
q112 0 172.5 -58.5t76.5 -185.5h-532q43 244 283 244z" />
    <glyph glyph-name="uni0451" unicode="&#x451;" horiz-adv-x="1204" 
d="M714 1247h220v220h-220v-220zM301 1247h220v220h-220v-220zM631 -30q156 0 285.5 80.5t191.5 227.5l-238 72q-72 -154 -253 -154q-123 0 -194 71.5t-85 205.5h782q14 195 -43 338t-174.5 221t-285.5 78q-159 0 -280 -71.5t-189 -202.5t-68 -308q0 -164 69.5 -290
t193.5 -197t288 -71zM627 899q112 0 172.5 -58.5t76.5 -185.5h-532q43 244 283 244z" />
    <glyph glyph-name="uni0452" unicode="&#x452;" 
d="M938 -449q193 43 193 271v781q0 38 -6.5 101t-28.5 133t-68 132.5t-124.5 102t-197.5 39.5q-116 0 -205 -40.5t-148 -112.5v209h210v187h-210v86h-213v-86h-110v-187h110v-1167h242v555q0 131 37.5 202.5t96 99t119.5 27.5q86 0 137 -37.5t75.5 -95t32 -119.5t7.5 -112
v-648q0 -79 -29.5 -109t-70.5 -32t-78 1v-172q38 -10 102 -17t127 8z" />
    <glyph glyph-name="uni0453" unicode="&#x453;" horiz-adv-x="960" 
d="M586 1230l76 240h-238l-76 -240h238zM140 0h241v854h529v226h-770v-1080z" />
    <glyph glyph-name="uni0454" unicode="&#x454;" horiz-adv-x="1153" 
d="M609 -30q-166 0 -284.5 74t-181.5 202.5t-63 291.5q0 167 64.5 296t183.5 202.5t283 73.5q185 0 313 -92.5t166 -252.5l-240 -65q-29 89 -94.5 136.5t-153.5 47.5q-113 0 -177.5 -71t-80.5 -178h359v-189h-359q18 -115 84.5 -182.5t180.5 -67.5q96 0 151.5 44t83.5 127
l246 -55q-50 -165 -175 -253.5t-306 -88.5z" />
    <glyph glyph-name="uni0455" unicode="&#x455;" horiz-adv-x="1083" 
d="M557 -30q209 0 327.5 93t118.5 256q0 126 -79.5 198t-273.5 122q-126 32 -189.5 54t-84.5 44t-21 53q0 54 52 84.5t137 26.5q88 -5 141.5 -45t63.5 -109l246 44q-20 146 -143 232.5t-312 86.5q-193 0 -309 -90t-116 -242q0 -121 81.5 -191t284.5 -123
q122 -32 180.5 -53.5t76.5 -43.5t18 -59q0 -60 -48 -94.5t-134 -34.5q-99 0 -164.5 46t-83.5 126l-246 -38q27 -163 152 -253t325 -90z" />
    <glyph glyph-name="uni0456" unicode="&#x456;" horiz-adv-x="561" 
d="M160 1244h241v221h-241v-221zM160 0h241v1080h-241v-1080z" />
    <glyph glyph-name="uni0457" unicode="&#x457;" horiz-adv-x="561" 
d="M377 1247h220v220h-220v-220zM-36 1247h220v220h-220v-220zM160 0h241v1080h-241v-1080z" />
    <glyph glyph-name="uni0458" unicode="&#x458;" horiz-adv-x="577" 
d="M193 1244h240v221h-240v-221zM-20 -480h164q136 0 212.5 75t76.5 205v1280h-240v-1172q0 -80 -36.5 -121t-125.5 -41h-51v-226z" />
    <glyph glyph-name="uni0459" unicode="&#x459;" horiz-adv-x="1712" 
d="M40 0q185 -41 267 24t116 241q14 70 25.5 175t21.5 216t17 198h299v-854h365q35 0 91.5 2t108.5 12q125 25 203 113t78 235q0 151 -81.5 237t-206.5 110q-46 8 -94 9.5t-103 1.5h-120v360h-752q-12 -207 -28 -398t-40 -325q-18 -95 -48 -133t-119 -22v-202zM1027 189v342
h145q17 0 43 -1.5t51 -8.5q49 -13 85 -54t36 -106q0 -64 -35.5 -106.5t-79.5 -54.5q-25 -7 -51 -9t-49 -2h-145z" />
    <glyph glyph-name="uni045A" unicode="&#x45a;" horiz-adv-x="1670" 
d="M138 0h241v531h365v-531h365q35 0 91.5 2t108.5 12q125 25 203 113t78 235q0 151 -81.5 237t-206.5 110q-46 8 -94 9.5t-103 1.5h-120v360h-241v-360h-365v360h-241v-1080zM985 189v342h145q17 0 43 -1.5t51 -8.5q49 -13 85 -54t36 -106q0 -64 -35.5 -106.5t-79.5 -54.5
q-25 -7 -51 -9t-49 -2h-145z" />
    <glyph glyph-name="uni045B" unicode="&#x45b;" 
d="M138 0h244v555q0 131 37.5 202.5t96 99t119.5 27.5q86 0 137 -37.5t75.5 -95t32 -119.5t7.5 -112v-520h244v603q0 38 -6.5 101t-28.5 133t-68 132.5t-124.5 102t-197.5 39.5q-117 0 -205.5 -40.5t-147.5 -110.5v207h210v187h-210v86h-215v-86h-108v-187h108v-1167z" />
    <glyph glyph-name="uni045C" unicode="&#x45c;" horiz-adv-x="1076" 
d="M623 1230l76 240h-238l-76 -240h238zM138 0h246v520l413 -520h319l-455 540l419 540h-301l-395 -520v520h-244z" />
    <glyph glyph-name="uni045D" unicode="&#x45d;" horiz-adv-x="1216" 
d="M581 1230h238l-76 240h-238zM1076 1080h-191l-516 -687v687h-231v-1080h193l514 705v-705h231v1080z" />
    <glyph glyph-name="uni045E" unicode="&#x45e;" horiz-adv-x="1119" 
d="M582 1202q84 0 153 41t109.5 109.5t40.5 152.5h-188q0 -48 -33.5 -81.5t-81.5 -33.5t-81.5 33.5t-33.5 81.5h-188q0 -84 41 -152.5t109.5 -109.5t152.5 -41zM282 -480h226l602 1560h-241l-293 -773l-302 773h-251l437 -1072z" />
    <glyph glyph-name="uni045F" unicode="&#x45f;" horiz-adv-x="1216" 
d="M501 -240h241v240h334v1080h-241v-854h-456v854h-241v-1080h363v-240z" />
    <glyph glyph-name="uni0490" unicode="&#x490;" horiz-adv-x="1110" 
d="M140 0h241v1214h709v453h-241v-227h-709v-1440z" />
    <glyph glyph-name="uni0491" unicode="&#x491;" horiz-adv-x="960" 
d="M140 0h241v854h529v453h-241v-227h-529v-1080z" />
    <glyph glyph-name="Ustraitcy" unicode="&#x4ae;" horiz-adv-x="1223" 
d="M490 0h244v590l489 850h-281l-330 -574l-331 574h-281l490 -850v-590z" />
    <glyph glyph-name="ustraitcy" unicode="&#x4af;" horiz-adv-x="1106" 
d="M432 -360h242v360l392 1080h-241l-272 -783l-271 783h-242l392 -1080v-360z" />
    <glyph glyph-name="uni04BA" unicode="&#x4ba;" horiz-adv-x="1352" 
d="M382 1440h-242v-1440h242v647q42 37 115 64t169 27q105 0 165.5 -34.5t90 -92.5t38 -129.5t8.5 -145.5v-336h244v410q0 164 -47.5 289.5t-156 196t-290.5 70.5q-97 0 -185.5 -20t-150.5 -57v551z" />
    <glyph glyph-name="uni04BB" unicode="&#x4bb;" horiz-adv-x="1158" 
d="M389 1080h-242v-1080h242v498q38 29 93 48t127 19q93 0 143 -37t69 -117q10 -41 11.5 -83.5t1.5 -65.5v-262h244v262q0 28 -2 94t-15 128q-29 142 -128.5 217.5t-266.5 75.5q-159 0 -277 -60v363z" />
    <glyph glyph-name="uni04E8" unicode="&#x4e8;" horiz-adv-x="1539" 
d="M749 -30q216 0 370.5 94.5t237 263.5t82.5 392q0 224 -82.5 392.5t-237 263t-370.5 94.5q-215 0 -369.5 -94.5t-237 -263t-82.5 -392.5q0 -223 82.5 -392t237 -263.5t369.5 -94.5zM749 1243q188 -3 295 -111t132 -292h-853q25 186 131 295.5t295 107.5zM749 197
q-188 3 -295 111t-132 292h854q-25 -186 -131.5 -295.5t-295.5 -107.5z" />
    <glyph glyph-name="uni04E9" unicode="&#x4e9;" horiz-adv-x="1236" 
d="M617 -30q162 0 283 72.5t188.5 201t67.5 296.5q0 167 -67 295.5t-188 201.5t-284 73q-159 0 -280 -72t-189 -200t-68 -298q0 -167 66.5 -295.5t187.5 -201.5t283 -73zM617 884q119 0 188 -66.5t89 -182.5h-552q19 113 86 181t189 68zM617 196q-117 0 -186.5 67t-88.5 183
h552q-20 -113 -88.5 -181.5t-188.5 -68.5z" />
    <glyph glyph-name="Wgrave" unicode="&#x1e80;" horiz-adv-x="1951" 
d="M850 1590h238l-76 240h-238zM444 0h238l294 1024l294 -1024h238l420 1440h-253l-286 -1040l-287 1040l-253 -2l-286 -1038l-287 1040h-253z" />
    <glyph glyph-name="wgrave" unicode="&#x1e81;" horiz-adv-x="1605" 
d="M677 1230h238l-76 240h-238zM370 0h188l244 743l245 -743h188l330 1080h-236l-212 -693l-213 693h-203l-214 -693l-211 693l-236 2z" />
    <glyph glyph-name="Wacute" unicode="&#x1e82;" horiz-adv-x="1951" 
d="M1101 1590l76 240h-238l-76 -240h238zM444 0h238l294 1024l294 -1024h238l420 1440h-253l-286 -1040l-287 1040l-253 -2l-286 -1038l-287 1040h-253z" />
    <glyph glyph-name="wacute" unicode="&#x1e83;" horiz-adv-x="1605" 
d="M928 1230l76 240h-238l-76 -240h238zM370 0h188l244 743l245 -743h188l330 1080h-236l-212 -693l-213 693h-203l-214 -693l-211 693l-236 2z" />
    <glyph glyph-name="Wdieresis" unicode="&#x1e84;" horiz-adv-x="1951" 
d="M1073 1607h220v220h-220v-220zM660 1607h220v220h-220v-220zM444 0h238l294 1024l294 -1024h238l420 1440h-253l-286 -1040l-287 1040l-253 -2l-286 -1038l-287 1040h-253z" />
    <glyph glyph-name="wdieresis" unicode="&#x1e85;" horiz-adv-x="1605" 
d="M899 1247h220v220h-220v-220zM486 1247h220v220h-220v-220zM370 0h188l244 743l245 -743h188l330 1080h-236l-212 -693l-213 693h-203l-214 -693l-211 693l-236 2z" />
    <glyph glyph-name="uni1E9E" unicode="&#x1e9e;" horiz-adv-x="1500" 
d="M922 -30q221 0 339.5 123.5t118.5 329.5q0 119 -47.5 205t-126 139t-172.5 72l268 462q-60 38 -134 77t-173 65.5t-235 26.5q-128 0 -244.5 -38t-205 -119t-134.5 -212q-19 -53 -28.5 -123t-9.5 -162v-816h244v757q0 63 6 124.5t19 109.5q36 124 135 188.5t241 64.5
q118 0 219 -48l-227 -368l42 -153q85 -1 159.5 -25.5t121.5 -77.5t47 -141q1 -117 -72.5 -171t-182.5 -54q-47 0 -91.5 7t-85.5 23v-236q77 -30 209 -30z" />
    <glyph glyph-name="uni1EA0" unicode="&#x1ea0;" horiz-adv-x="1341" 
d="M40 0h248l98 312h568l99 -312h248l-454 1440h-353zM457 537l211 670l214 -670h-425zM547 -388h247v221h-247v-221z" />
    <glyph glyph-name="uni1EA1" unicode="&#x1ea1;" horiz-adv-x="1152" 
d="M442 -30q129 0 219.5 42.5t159.5 132.5v-145h211v663q0 70 -6 129.5t-35 116.5q-53 107 -162.5 154t-253.5 47q-190 0 -303 -83t-153 -220l220 -69q27 83 95 117t141 34q110 0 162 -44.5t59 -137.5q-142 -21 -263.5 -40.5t-206.5 -47.5q-128 -44 -187 -124.5t-59 -198.5
q0 -89 41.5 -163t122.5 -118.5t198 -44.5zM490 162q-85 0 -129.5 39t-44.5 98q0 53 34.5 86t96.5 56q57 19 137 33.5t209 34.5q-1 -38 -5 -84.5t-19 -83.5q-12 -37 -46.5 -79t-92.5 -71t-140 -29zM462 -388h247v221h-247v-221z" />
    <glyph glyph-name="uni1EA2" unicode="&#x1ea2;" horiz-adv-x="1341" 
d="M526 1873q26 19 59 29.5t62.5 3t46.5 -43.5q26 -55 -8.5 -95t-90.5 -57l43 -99q65 9 124.5 51t85.5 111t-10 157q-33 82 -100.5 111.5t-142.5 15t-132 -64.5zM40 0h248l98 312h568l99 -312h248l-454 1440h-353zM457 537l211 670l214 -670h-425z" />
    <glyph glyph-name="uni1EA3" unicode="&#x1ea3;" horiz-adv-x="1152" 
d="M466 1520q26 19 59 29.5t62.5 3t46.5 -43.5q26 -55 -8.5 -95t-90.5 -57l43 -99q65 9 124.5 51t85.5 111t-10 157q-33 82 -100.5 111.5t-142.5 15t-132 -64.5zM442 -30q129 0 219.5 42.5t159.5 132.5v-145h211v663q0 70 -6 129.5t-35 116.5q-53 107 -162.5 154t-253.5 47
q-190 0 -303 -83t-153 -220l220 -69q27 83 95 117t141 34q110 0 162 -44.5t59 -137.5q-142 -21 -263.5 -40.5t-206.5 -47.5q-128 -44 -187 -124.5t-59 -198.5q0 -89 41.5 -163t122.5 -118.5t198 -44.5zM490 162q-85 0 -129.5 39t-44.5 98q0 53 34.5 86t96.5 56
q57 19 137 33.5t209 34.5q-1 -38 -5 -84.5t-19 -83.5q-12 -37 -46.5 -79t-92.5 -71t-140 -29z" />
    <glyph glyph-name="uni1EA4" unicode="&#x1ea4;" horiz-adv-x="1341" 
d="M1272 1800l76 240h-238l-76 -240h238zM418 1572l253 138l253 -138l88 153l-341 187l-341 -187zM40 0h248l98 312h568l99 -312h248l-454 1440h-353zM457 537l211 670l214 -670h-425z" />
    <glyph glyph-name="uni1EA5" unicode="&#x1ea5;" horiz-adv-x="1152" 
d="M1203 1440l76 240h-238l-76 -240h238zM349 1212l253 138l253 -138l88 153l-341 187l-341 -187zM442 -30q129 0 219.5 42.5t159.5 132.5v-145h211v663q0 70 -6 129.5t-35 116.5q-53 107 -162.5 154t-253.5 47q-190 0 -303 -83t-153 -220l220 -69q27 83 95 117t141 34
q110 0 162 -44.5t59 -137.5q-142 -21 -263.5 -40.5t-206.5 -47.5q-128 -44 -187 -124.5t-59 -198.5q0 -89 41.5 -163t122.5 -118.5t198 -44.5zM490 162q-85 0 -129.5 39t-44.5 98q0 53 34.5 86t96.5 56q57 19 137 33.5t209 34.5q-1 -38 -5 -84.5t-19 -83.5
q-12 -37 -46.5 -79t-92.5 -71t-140 -29z" />
    <glyph glyph-name="uni1EA6" unicode="&#x1ea6;" horiz-adv-x="1341" 
d="M1030 1800h238l-76 240h-238zM418 1572l253 138l253 -138l88 153l-341 187l-341 -187zM40 0h248l98 312h568l99 -312h248l-454 1440h-353zM457 537l211 670l214 -670h-425z" />
    <glyph glyph-name="uni1EA7" unicode="&#x1ea7;" horiz-adv-x="1152" 
d="M955 1440h238l-76 240h-238zM343 1212l253 138l253 -138l88 153l-341 187l-341 -187zM442 -30q129 0 219.5 42.5t159.5 132.5v-145h211v663q0 70 -6 129.5t-35 116.5q-53 107 -162.5 154t-253.5 47q-190 0 -303 -83t-153 -220l220 -69q27 83 95 117t141 34
q110 0 162 -44.5t59 -137.5q-142 -21 -263.5 -40.5t-206.5 -47.5q-128 -44 -187 -124.5t-59 -198.5q0 -89 41.5 -163t122.5 -118.5t198 -44.5zM490 162q-85 0 -129.5 39t-44.5 98q0 53 34.5 86t96.5 56q57 19 137 33.5t209 34.5q-1 -38 -5 -84.5t-19 -83.5
q-12 -37 -46.5 -79t-92.5 -71t-140 -29z" />
    <glyph glyph-name="uni1EA8" unicode="&#x1ea8;" horiz-adv-x="1341" 
d="M1007 1873q26 19 59 29.5t62.5 3t46.5 -43.5q26 -55 -8.5 -95t-90.5 -57l43 -99q65 9 124.5 51t85.5 111t-10 157q-33 82 -100.5 111.5t-142.5 15t-132 -64.5zM419 1572l253 138l253 -138l88 153l-341 187l-341 -187zM40 0h248l98 312h568l99 -312h248l-454 1440h-353z
M457 537l211 670l214 -670h-425z" />
    <glyph glyph-name="uni1EA9" unicode="&#x1ea9;" horiz-adv-x="1152" 
d="M922 1513q26 19 59 29.5t62.5 3t46.5 -43.5q26 -55 -8.5 -95t-90.5 -57l43 -99q65 9 124.5 51t85.5 111t-10 157q-33 82 -100.5 111.5t-142.5 15t-132 -64.5zM334 1212l253 138l253 -138l88 153l-341 187l-341 -187zM442 -30q129 0 219.5 42.5t159.5 132.5v-145h211v663
q0 70 -6 129.5t-35 116.5q-53 107 -162.5 154t-253.5 47q-190 0 -303 -83t-153 -220l220 -69q27 83 95 117t141 34q110 0 162 -44.5t59 -137.5q-142 -21 -263.5 -40.5t-206.5 -47.5q-128 -44 -187 -124.5t-59 -198.5q0 -89 41.5 -163t122.5 -118.5t198 -44.5zM490 162
q-85 0 -129.5 39t-44.5 98q0 53 34.5 86t96.5 56q57 19 137 33.5t209 34.5q-1 -38 -5 -84.5t-19 -83.5q-12 -37 -46.5 -79t-92.5 -71t-140 -29z" />
    <glyph glyph-name="uni1EAA" unicode="&#x1eaa;" horiz-adv-x="1341" 
d="M844 1933q117 0 159.5 84t13.5 204h-152q14 -48 2 -80.5t-44 -32.5q-29 0 -64 21t-74 48.5t-83 48.5t-91 21q-117 0 -159.5 -83.5t-13.5 -203.5h152q-13 47 -1.5 79.5t43.5 32.5q29 0 64 -21t74 -48.5t83 -48.5t91 -21zM417 1572l253 138l253 -138l88 153l-341 187
l-341 -187zM40 0h248l98 312h568l99 -312h248l-454 1440h-353zM457 537l211 670l214 -670h-425z" />
    <glyph glyph-name="uni1EAB" unicode="&#x1eab;" horiz-adv-x="1152" 
d="M754 1573q117 0 159.5 84t13.5 204h-152q14 -48 2 -80.5t-44 -32.5q-29 0 -64 21t-74 48.5t-83 48.5t-91 21q-117 0 -159.5 -83.5t-13.5 -203.5h152q-13 47 -1.5 79.5t43.5 32.5q29 0 64 -21t74 -48.5t83 -48.5t91 -21zM327 1212l253 138l253 -138l88 153l-341 187
l-341 -187zM442 -30q129 0 219.5 42.5t159.5 132.5v-145h211v663q0 70 -6 129.5t-35 116.5q-53 107 -162.5 154t-253.5 47q-190 0 -303 -83t-153 -220l220 -69q27 83 95 117t141 34q110 0 162 -44.5t59 -137.5q-142 -21 -263.5 -40.5t-206.5 -47.5q-128 -44 -187 -124.5
t-59 -198.5q0 -89 41.5 -163t122.5 -118.5t198 -44.5zM490 162q-85 0 -129.5 39t-44.5 98q0 53 34.5 86t96.5 56q57 19 137 33.5t209 34.5q-1 -38 -5 -84.5t-19 -83.5q-12 -37 -46.5 -79t-92.5 -71t-140 -29z" />
    <glyph glyph-name="uni1EAC" unicode="&#x1eac;" horiz-adv-x="1341" 
d="M419 1572l253 138l253 -138l88 153l-341 187l-341 -187zM40 0h248l98 312h568l99 -312h248l-454 1440h-353zM457 537l211 670l214 -670h-425zM547 -388h247v221h-247v-221z" />
    <glyph glyph-name="uni1EAD" unicode="&#x1ead;" horiz-adv-x="1152" 
d="M340 1212l253 138l253 -138l88 153l-341 187l-341 -187zM442 -30q129 0 219.5 42.5t159.5 132.5v-145h211v663q0 70 -6 129.5t-35 116.5q-53 107 -162.5 154t-253.5 47q-190 0 -303 -83t-153 -220l220 -69q27 83 95 117t141 34q110 0 162 -44.5t59 -137.5
q-142 -21 -263.5 -40.5t-206.5 -47.5q-128 -44 -187 -124.5t-59 -198.5q0 -89 41.5 -163t122.5 -118.5t198 -44.5zM490 162q-85 0 -129.5 39t-44.5 98q0 53 34.5 86t96.5 56q57 19 137 33.5t209 34.5q-1 -38 -5 -84.5t-19 -83.5q-12 -37 -46.5 -79t-92.5 -71t-140 -29z
M462 -388h247v221h-247v-221z" />
    <glyph glyph-name="uni1EAE" unicode="&#x1eae;" horiz-adv-x="1341" 
d="M788 1950l76 240h-238l-76 -240h238zM671 1562q84 0 153 41t109.5 109.5t40.5 152.5h-188q0 -48 -33.5 -81.5t-81.5 -33.5t-81.5 33.5t-33.5 81.5h-188q0 -84 40.5 -152.5t109.5 -109.5t153 -41zM40 0h248l98 312h568l99 -312h248l-454 1440h-353zM457 537l211 670
l214 -670h-425z" />
    <glyph glyph-name="uni1EAF" unicode="&#x1eaf;" horiz-adv-x="1152" 
d="M701 1590l76 240h-238l-76 -240h238zM584 1202q84 0 153 41t109.5 109.5t40.5 152.5h-188q0 -48 -33.5 -81.5t-81.5 -33.5t-81.5 33.5t-33.5 81.5h-188q0 -84 41 -152.5t109.5 -109.5t152.5 -41zM442 -30q129 0 219.5 42.5t159.5 132.5v-145h211v663q0 70 -6 129.5
t-35 116.5q-53 107 -162.5 154t-253.5 47q-190 0 -303 -83t-153 -220l220 -69q27 83 95 117t141 34q110 0 162 -44.5t59 -137.5q-142 -21 -263.5 -40.5t-206.5 -47.5q-128 -44 -187 -124.5t-59 -198.5q0 -89 41.5 -163t122.5 -118.5t198 -44.5zM490 162q-85 0 -129.5 39
t-44.5 98q0 53 34.5 86t96.5 56q57 19 137 33.5t209 34.5q-1 -38 -5 -84.5t-19 -83.5q-12 -37 -46.5 -79t-92.5 -71t-140 -29z" />
    <glyph glyph-name="uni1EB0" unicode="&#x1eb0;" horiz-adv-x="1341" 
d="M554 1950h238l-76 240h-238zM671 1562q84 0 153 41t109.5 109.5t40.5 152.5h-188q0 -48 -33.5 -81.5t-81.5 -33.5t-81.5 33.5t-33.5 81.5h-188q0 -84 40.5 -152.5t109.5 -109.5t153 -41zM40 0h248l98 312h568l99 -312h248l-454 1440h-353zM457 537l211 670l214 -670h-425
z" />
    <glyph glyph-name="uni1EB1" unicode="&#x1eb1;" horiz-adv-x="1152" 
d="M472 1590h238l-76 240h-238zM589 1202q84 0 153 41t109.5 109.5t40.5 152.5h-188q0 -48 -33.5 -81.5t-81.5 -33.5t-81.5 33.5t-33.5 81.5h-188q0 -84 41 -152.5t109.5 -109.5t152.5 -41zM442 -30q129 0 219.5 42.5t159.5 132.5v-145h211v663q0 70 -6 129.5t-35 116.5
q-53 107 -162.5 154t-253.5 47q-190 0 -303 -83t-153 -220l220 -69q27 83 95 117t141 34q110 0 162 -44.5t59 -137.5q-142 -21 -263.5 -40.5t-206.5 -47.5q-128 -44 -187 -124.5t-59 -198.5q0 -89 41.5 -163t122.5 -118.5t198 -44.5zM490 162q-85 0 -129.5 39t-44.5 98
q0 53 34.5 86t96.5 56q57 19 137 33.5t209 34.5q-1 -38 -5 -84.5t-19 -83.5q-12 -37 -46.5 -79t-92.5 -71t-140 -29z" />
    <glyph glyph-name="uni1EB2" unicode="&#x1eb2;" horiz-adv-x="1341" 
d="M504 2207q26 19 59 29.5t62.5 3t46.5 -43.5q26 -55 -8.5 -95t-90.5 -57l43 -99q65 9 124.5 51t85.5 111t-10 157q-33 82 -100.5 111.5t-142.5 15t-132 -64.5zM671 1562q84 0 153 41t109.5 109.5t40.5 152.5h-188q0 -48 -33.5 -81.5t-81.5 -33.5t-81.5 33.5t-33.5 81.5
h-188q0 -84 40.5 -152.5t109.5 -109.5t153 -41zM40 0h248l98 312h568l99 -312h248l-454 1440h-353zM457 537l211 670l214 -670h-425z" />
    <glyph glyph-name="uni1EB3" unicode="&#x1eb3;" horiz-adv-x="1152" 
d="M448 1847q26 19 59 29.5t62.5 3t46.5 -43.5q26 -55 -8.5 -95t-90.5 -57l43 -99q65 9 124.5 51t85.5 111t-10 157q-33 82 -100.5 111.5t-142.5 15t-132 -64.5zM615 1202q84 0 153 41t109.5 109.5t40.5 152.5h-188q0 -48 -33.5 -81.5t-81.5 -33.5t-81.5 33.5t-33.5 81.5
h-188q0 -84 41 -152.5t109.5 -109.5t152.5 -41zM442 -30q129 0 219.5 42.5t159.5 132.5v-145h211v663q0 70 -6 129.5t-35 116.5q-53 107 -162.5 154t-253.5 47q-190 0 -303 -83t-153 -220l220 -69q27 83 95 117t141 34q110 0 162 -44.5t59 -137.5q-142 -21 -263.5 -40.5
t-206.5 -47.5q-128 -44 -187 -124.5t-59 -198.5q0 -89 41.5 -163t122.5 -118.5t198 -44.5zM490 162q-85 0 -129.5 39t-44.5 98q0 53 34.5 86t96.5 56q57 19 137 33.5t209 34.5q-1 -38 -5 -84.5t-19 -83.5q-12 -37 -46.5 -79t-92.5 -71t-140 -29z" />
    <glyph glyph-name="uni1EB4" unicode="&#x1eb4;" horiz-adv-x="1341" 
d="M819 1933q117 0 159.5 84t13.5 204h-152q14 -48 2 -80.5t-44 -32.5q-29 0 -64 21t-74 48.5t-83 48.5t-91 21q-117 0 -159.5 -83.5t-13.5 -203.5h152q-13 47 -1.5 79.5t43.5 32.5q29 0 64 -21t74 -48.5t83 -48.5t91 -21zM649 1562q84 0 153 41t109.5 109.5t40.5 152.5
h-188q0 -48 -33.5 -81.5t-81.5 -33.5t-81.5 33.5t-33.5 81.5h-188q0 -84 41 -152.5t109.5 -109.5t152.5 -41zM40 0h248l98 312h568l99 -312h248l-454 1440h-353zM457 537l211 670l214 -670h-425z" />
    <glyph glyph-name="uni1EB5" unicode="&#x1eb5;" horiz-adv-x="1152" 
d="M751 1573q117 0 159.5 84t13.5 204h-152q14 -48 2 -80.5t-44 -32.5q-29 0 -64 21t-74 48.5t-83 48.5t-91 21q-117 0 -159.5 -83.5t-13.5 -203.5h152q-13 47 -1.5 79.5t43.5 32.5q29 0 64 -21t74 -48.5t83 -48.5t91 -21zM581 1202q84 0 153 41t109.5 109.5t40.5 152.5
h-188q0 -48 -33.5 -81.5t-81.5 -33.5t-81.5 33.5t-33.5 81.5h-188q0 -84 41 -152.5t109.5 -109.5t152.5 -41zM442 -30q129 0 219.5 42.5t159.5 132.5v-145h211v663q0 70 -6 129.5t-35 116.5q-53 107 -162.5 154t-253.5 47q-190 0 -303 -83t-153 -220l220 -69q27 83 95 117
t141 34q110 0 162 -44.5t59 -137.5q-142 -21 -263.5 -40.5t-206.5 -47.5q-128 -44 -187 -124.5t-59 -198.5q0 -89 41.5 -163t122.5 -118.5t198 -44.5zM490 162q-85 0 -129.5 39t-44.5 98q0 53 34.5 86t96.5 56q57 19 137 33.5t209 34.5q-1 -38 -5 -84.5t-19 -83.5
q-12 -37 -46.5 -79t-92.5 -71t-140 -29z" />
    <glyph glyph-name="uni1EB6" unicode="&#x1eb6;" horiz-adv-x="1341" 
d="M672 1562q84 0 153 41t109.5 109.5t40.5 152.5h-188q0 -48 -33.5 -81.5t-81.5 -33.5t-81.5 33.5t-33.5 81.5h-188q0 -84 40.5 -152.5t109.5 -109.5t153 -41zM40 0h248l98 312h568l99 -312h248l-454 1440h-353zM457 537l211 670l214 -670h-425zM547 -388h247v221h-247
v-221z" />
    <glyph glyph-name="uni1EB7" unicode="&#x1eb7;" horiz-adv-x="1152" 
d="M587 1202q84 0 153 41t109.5 109.5t40.5 152.5h-188q0 -48 -33.5 -81.5t-81.5 -33.5t-81.5 33.5t-33.5 81.5h-188q0 -84 41 -152.5t109.5 -109.5t152.5 -41zM442 -30q129 0 219.5 42.5t159.5 132.5v-145h211v663q0 70 -6 129.5t-35 116.5q-53 107 -162.5 154t-253.5 47
q-190 0 -303 -83t-153 -220l220 -69q27 83 95 117t141 34q110 0 162 -44.5t59 -137.5q-142 -21 -263.5 -40.5t-206.5 -47.5q-128 -44 -187 -124.5t-59 -198.5q0 -89 41.5 -163t122.5 -118.5t198 -44.5zM490 162q-85 0 -129.5 39t-44.5 98q0 53 34.5 86t96.5 56
q57 19 137 33.5t209 34.5q-1 -38 -5 -84.5t-19 -83.5q-12 -37 -46.5 -79t-92.5 -71t-140 -29zM462 -388h247v221h-247v-221z" />
    <glyph glyph-name="uni1EB8" unicode="&#x1eb8;" horiz-adv-x="1200" 
d="M140 0h930v226h-689v407h569v226h-569v355h689v226h-930v-1440zM482 -388h247v221h-247v-221z" />
    <glyph glyph-name="uni1EB9" unicode="&#x1eb9;" horiz-adv-x="1204" 
d="M631 -30q156 0 285.5 80.5t191.5 227.5l-238 72q-72 -154 -253 -154q-123 0 -194 71.5t-85 205.5h782q14 195 -43 338t-174.5 221t-285.5 78q-159 0 -280 -71.5t-189 -202.5t-68 -308q0 -164 69.5 -290t193.5 -197t288 -71zM627 899q112 0 172.5 -58.5t76.5 -185.5h-532
q43 244 283 244zM513 -388h247v221h-247v-221z" />
    <glyph glyph-name="uni1EBA" unicode="&#x1eba;" horiz-adv-x="1170" 
d="M488 1873q26 19 59 29.5t62.5 3t46.5 -43.5q26 -55 -8.5 -95t-90.5 -57l43 -99q65 9 124.5 51t85.5 111t-10 157q-33 82 -100.5 111.5t-142.5 15t-132 -64.5zM140 0h930v226h-689v407h569v226h-569v355h689v226h-930v-1440z" />
    <glyph glyph-name="uni1EBB" unicode="&#x1ebb;" horiz-adv-x="1200" 
d="M496 1520q26 19 59 29.5t62.5 3t46.5 -43.5q26 -55 -8.5 -95t-90.5 -57l43 -99q65 9 124.5 51t85.5 111t-10 157q-33 82 -100.5 111.5t-142.5 15t-132 -64.5zM631 -30q156 0 285.5 80.5t191.5 227.5l-238 72q-72 -154 -253 -154q-123 0 -194 71.5t-85 205.5h782
q14 195 -43 338t-174.5 221t-285.5 78q-159 0 -280 -71.5t-189 -202.5t-68 -308q0 -164 69.5 -290t193.5 -197t288 -71zM627 899q112 0 172.5 -58.5t76.5 -185.5h-532q43 244 283 244z" />
    <glyph glyph-name="uni1EBC" unicode="&#x1ebc;" horiz-adv-x="1170" 
d="M755 1600q117 0 159.5 84t13.5 204h-152q14 -48 2 -80.5t-44 -32.5q-29 0 -64 21t-74 48.5t-83 48.5t-91 21q-117 0 -159.5 -83.5t-13.5 -203.5h152q-13 47 -1.5 79.5t43.5 32.5q29 0 64 -21t74 -48.5t83 -48.5t91 -21zM140 0h930v226h-689v407h569v226h-569v355h689v226
h-930v-1440z" />
    <glyph glyph-name="uni1EBD" unicode="&#x1ebd;" horiz-adv-x="1204" 
d="M802 1240q117 0 159.5 84t13.5 204h-152q14 -48 2 -80.5t-44 -32.5q-29 0 -64 21t-74 48.5t-83 48.5t-91 21q-117 0 -159.5 -83.5t-13.5 -203.5h152q-13 47 -1.5 79.5t43.5 32.5q29 0 64 -21t74 -48.5t83 -48.5t91 -21zM631 -30q156 0 285.5 80.5t191.5 227.5l-238 72
q-72 -154 -253 -154q-123 0 -194 71.5t-85 205.5h782q14 195 -43 338t-174.5 221t-285.5 78q-159 0 -280 -71.5t-189 -202.5t-68 -308q0 -164 69.5 -290t193.5 -197t288 -71zM627 899q112 0 172.5 -58.5t76.5 -185.5h-532q43 244 283 244z" />
    <glyph glyph-name="uni1EBE" unicode="&#x1ebe;" horiz-adv-x="1170" 
d="M1211 1800l76 240h-238l-76 -240h238zM357 1572l253 138l253 -138l88 153l-341 187l-341 -187zM140 0h930v226h-689v407h569v226h-569v355h689v226h-930v-1440z" />
    <glyph glyph-name="uni1EBF" unicode="&#x1ebf;" horiz-adv-x="1204" 
d="M1227 1440l76 240h-238l-76 -240h238zM373 1212l253 138l253 -138l88 153l-341 187l-341 -187zM631 -30q156 0 285.5 80.5t191.5 227.5l-238 72q-72 -154 -253 -154q-123 0 -194 71.5t-85 205.5h782q14 195 -43 338t-174.5 221t-285.5 78q-159 0 -280 -71.5t-189 -202.5
t-68 -308q0 -164 69.5 -290t193.5 -197t288 -71zM627 899q112 0 172.5 -58.5t76.5 -185.5h-532q43 244 283 244z" />
    <glyph glyph-name="uni1EC0" unicode="&#x1ec0;" horiz-adv-x="1170" 
d="M996 1800h238l-76 240h-238zM384 1572l253 138l253 -138l88 153l-341 187l-341 -187zM140 0h930v226h-689v407h569v226h-569v355h689v226h-930v-1440z" />
    <glyph glyph-name="uni1EC1" unicode="&#x1ec1;" horiz-adv-x="1204" 
d="M960 1440h238l-76 240h-238zM348 1212l253 138l253 -138l88 153l-341 187l-341 -187zM631 -30q156 0 285.5 80.5t191.5 227.5l-238 72q-72 -154 -253 -154q-123 0 -194 71.5t-85 205.5h782q14 195 -43 338t-174.5 221t-285.5 78q-159 0 -280 -71.5t-189 -202.5t-68 -308
q0 -164 69.5 -290t193.5 -197t288 -71zM627 899q112 0 172.5 -58.5t76.5 -185.5h-532q43 244 283 244z" />
    <glyph glyph-name="uni1EC2" unicode="&#x1ec2;" horiz-adv-x="1200" 
d="M950 1873q26 19 59 29.5t62.5 3t46.5 -43.5q26 -55 -8.5 -95t-90.5 -57l43 -99q65 9 124.5 51t85.5 111t-10 157q-33 82 -100.5 111.5t-142.5 15t-132 -64.5zM362 1572l253 138l253 -138l88 153l-341 187l-341 -187zM140 0h930v226h-689v407h569v226h-569v355h689v226
h-930v-1440z" />
    <glyph glyph-name="uni1EC3" unicode="&#x1ec3;" horiz-adv-x="1204" 
d="M956 1513q26 19 59 29.5t62.5 3t46.5 -43.5q26 -55 -8.5 -95t-90.5 -57l43 -99q65 9 124.5 51t85.5 111t-10 157q-33 82 -100.5 111.5t-142.5 15t-132 -64.5zM368 1212l253 138l253 -138l88 153l-341 187l-341 -187zM631 -30q156 0 285.5 80.5t191.5 227.5l-238 72
q-72 -154 -253 -154q-123 0 -194 71.5t-85 205.5h782q14 195 -43 338t-174.5 221t-285.5 78q-159 0 -280 -71.5t-189 -202.5t-68 -308q0 -164 69.5 -290t193.5 -197t288 -71zM627 899q112 0 172.5 -58.5t76.5 -185.5h-532q43 244 283 244z" />
    <glyph glyph-name="uni1EC4" unicode="&#x1ec4;" horiz-adv-x="1170" 
d="M778 1933q117 0 159.5 84t13.5 204h-152q14 -48 2 -80.5t-44 -32.5q-29 0 -64 21t-74 48.5t-83 48.5t-91 21q-117 0 -159.5 -83.5t-13.5 -203.5h152q-13 47 -1.5 79.5t43.5 32.5q29 0 64 -21t74 -48.5t83 -48.5t91 -21zM351 1572l253 138l253 -138l88 153l-341 187
l-341 -187zM140 0h930v226h-689v407h569v226h-569v355h689v226h-930v-1440z" />
    <glyph glyph-name="uni1EC5" unicode="&#x1ec5;" horiz-adv-x="1204" 
d="M793 1573q117 0 159.5 84t13.5 204h-152q14 -48 2 -80.5t-44 -32.5q-29 0 -64 21t-74 48.5t-83 48.5t-91 21q-117 0 -159.5 -83.5t-13.5 -203.5h152q-13 47 -1.5 79.5t43.5 32.5q29 0 64 -21t74 -48.5t83 -48.5t91 -21zM366 1212l253 138l253 -138l88 153l-341 187
l-341 -187zM631 -30q156 0 285.5 80.5t191.5 227.5l-238 72q-72 -154 -253 -154q-123 0 -194 71.5t-85 205.5h782q14 195 -43 338t-174.5 221t-285.5 78q-159 0 -280 -71.5t-189 -202.5t-68 -308q0 -164 69.5 -290t193.5 -197t288 -71zM627 899q112 0 172.5 -58.5
t76.5 -185.5h-532q43 244 283 244z" />
    <glyph glyph-name="uni1EC6" unicode="&#x1ec6;" horiz-adv-x="1170" 
d="M342 1572l253 138l253 -138l88 153l-341 187l-341 -187zM140 0h930v226h-689v407h569v226h-569v355h689v226h-930v-1440zM482 -388h247v221h-247v-221z" />
    <glyph glyph-name="uni1EC7" unicode="&#x1ec7;" horiz-adv-x="1204" 
d="M364 1212l253 138l253 -138l88 153l-341 187l-341 -187zM631 -30q156 0 285.5 80.5t191.5 227.5l-238 72q-72 -154 -253 -154q-123 0 -194 71.5t-85 205.5h782q14 195 -43 338t-174.5 221t-285.5 78q-159 0 -280 -71.5t-189 -202.5t-68 -308q0 -164 69.5 -290t193.5 -197
t288 -71zM627 899q112 0 172.5 -58.5t76.5 -185.5h-532q43 244 283 244zM478 -388h247v221h-247v-221z" />
    <glyph glyph-name="uni1EC8" unicode="&#x1ec8;" horiz-adv-x="561" 
d="M123 1873q26 19 59 29.5t62.5 3t46.5 -43.5q26 -55 -8.5 -95t-90.5 -57l43 -99q65 9 124.5 51t85.5 111t-10 157q-33 82 -100.5 111.5t-142.5 15t-132 -64.5zM160 0h241v1440h-241v-1440z" />
    <glyph glyph-name="uni1EC9" unicode="&#x1ec9;" horiz-adv-x="561" 
d="M128 1520q26 19 59 29.5t62.5 3t46.5 -43.5q26 -55 -8.5 -95t-90.5 -57l43 -99q65 9 124.5 51t85.5 111t-10 157q-33 82 -100.5 111.5t-142.5 15t-132 -64.5zM160 0h241v1080h-241v-1080z" />
    <glyph glyph-name="uni1ECA" unicode="&#x1eca;" horiz-adv-x="561" 
d="M160 0h241v1440h-241v-1440zM157 -388h247v221h-247v-221z" />
    <glyph glyph-name="uni1ECB" unicode="&#x1ecb;" horiz-adv-x="561" 
d="M160 1244h241v221h-241v-221zM160 0h241v1080h-241v-1080zM157 -388h247v221h-247v-221z" />
    <glyph glyph-name="uni1ECC" unicode="&#x1ecc;" horiz-adv-x="1499" 
d="M749 -30q216 0 370.5 94.5t237 263.5t82.5 392q0 224 -82.5 392.5t-237 263t-370.5 94.5q-215 0 -369.5 -94.5t-237 -263t-82.5 -392.5q0 -223 82.5 -392t237 -263.5t369.5 -94.5zM749 197q-217 3 -326 145t-108 378q1 158 49 276t144 183.5t241 63.5q218 -3 326.5 -145
t108.5 -378q0 -157 -48.5 -275.5t-145 -183.5t-241.5 -64zM622 -388h247v221h-247v-221z" />
    <glyph glyph-name="uni1ECD" unicode="&#x1ecd;" horiz-adv-x="1236" 
d="M617 -30q162 0 283 72.5t188.5 201t67.5 296.5q0 167 -67 295.5t-188 201.5t-284 73q-159 0 -280 -72t-189 -200t-68 -298q0 -167 66.5 -295.5t187.5 -201.5t283 -73zM617 196q-139 0 -210.5 93.5t-71.5 250.5q0 153 68.5 248.5t213.5 95.5q142 0 213 -93.5t71 -250.5
q0 -152 -70.5 -248t-213.5 -96zM495 -388h247v221h-247v-221z" />
    <glyph glyph-name="uni1ECE" unicode="&#x1ece;" horiz-adv-x="1499" 
d="M652 1873q26 19 59 29.5t62.5 3t46.5 -43.5q26 -55 -8.5 -95t-90.5 -57l43 -99q65 9 124.5 51t85.5 111t-10 157q-33 82 -100.5 111.5t-142.5 15t-132 -64.5zM749 -30q216 0 370.5 94.5t237 263.5t82.5 392q0 224 -82.5 392.5t-237 263t-370.5 94.5q-215 0 -369.5 -94.5
t-237 -263t-82.5 -392.5q0 -223 82.5 -392t237 -263.5t369.5 -94.5zM749 197q-217 3 -326 145t-108 378q1 158 49 276t144 183.5t241 63.5q218 -3 326.5 -145t108.5 -378q0 -157 -48.5 -275.5t-145 -183.5t-241.5 -64z" />
    <glyph glyph-name="uni1ECF" unicode="&#x1ecf;" horiz-adv-x="1236" 
d="M496 1520q26 19 59 29.5t62.5 3t46.5 -43.5q26 -55 -8.5 -95t-90.5 -57l43 -99q65 9 124.5 51t85.5 111t-10 157q-33 82 -100.5 111.5t-142.5 15t-132 -64.5zM617 -30q162 0 283 72.5t188.5 201t67.5 296.5q0 167 -67 295.5t-188 201.5t-284 73q-159 0 -280 -72
t-189 -200t-68 -298q0 -167 66.5 -295.5t187.5 -201.5t283 -73zM617 196q-139 0 -210.5 93.5t-71.5 250.5q0 153 68.5 248.5t213.5 95.5q142 0 213 -93.5t71 -250.5q0 -152 -70.5 -248t-213.5 -96z" />
    <glyph glyph-name="uni1ED0" unicode="&#x1ed0;" horiz-adv-x="1499" 
d="M1369 1800l76 240h-238l-76 -240h238zM515 1572l253 138l253 -138l88 153l-341 187l-341 -187zM749 -30q216 0 370.5 94.5t237 263.5t82.5 392q0 224 -82.5 392.5t-237 263t-370.5 94.5q-215 0 -369.5 -94.5t-237 -263t-82.5 -392.5q0 -223 82.5 -392t237 -263.5
t369.5 -94.5zM749 197q-217 3 -326 145t-108 378q1 158 49 276t144 183.5t241 63.5q218 -3 326.5 -145t108.5 -378q0 -157 -48.5 -275.5t-145 -183.5t-241.5 -64z" />
    <glyph glyph-name="uni1ED1" unicode="&#x1ed1;" horiz-adv-x="1236" 
d="M1233 1440l76 240h-238l-76 -240h238zM379 1212l253 138l253 -138l88 153l-341 187l-341 -187zM617 -30q162 0 283 72.5t188.5 201t67.5 296.5q0 167 -67 295.5t-188 201.5t-284 73q-159 0 -280 -72t-189 -200t-68 -298q0 -167 66.5 -295.5t187.5 -201.5t283 -73z
M617 196q-139 0 -210.5 93.5t-71.5 250.5q0 153 68.5 248.5t213.5 95.5q142 0 213 -93.5t71 -250.5q0 -152 -70.5 -248t-213.5 -96z" />
    <glyph glyph-name="uni1ED2" unicode="&#x1ed2;" horiz-adv-x="1499" 
d="M1109 1800h238l-76 240h-238zM497 1572l253 138l253 -138l88 153l-341 187l-341 -187zM749 -30q216 0 370.5 94.5t237 263.5t82.5 392q0 224 -82.5 392.5t-237 263t-370.5 94.5q-215 0 -369.5 -94.5t-237 -263t-82.5 -392.5q0 -223 82.5 -392t237 -263.5t369.5 -94.5z
M749 197q-217 3 -326 145t-108 378q1 158 49 276t144 183.5t241 63.5q218 -3 326.5 -145t108.5 -378q0 -157 -48.5 -275.5t-145 -183.5t-241.5 -64z" />
    <glyph glyph-name="uni1ED3" unicode="&#x1ed3;" horiz-adv-x="1236" 
d="M994 1440h238l-76 240h-238zM382 1212l253 138l253 -138l88 153l-341 187l-341 -187zM617 -30q162 0 283 72.5t188.5 201t67.5 296.5q0 167 -67 295.5t-188 201.5t-284 73q-159 0 -280 -72t-189 -200t-68 -298q0 -167 66.5 -295.5t187.5 -201.5t283 -73zM617 196
q-139 0 -210.5 93.5t-71.5 250.5q0 153 68.5 248.5t213.5 95.5q142 0 213 -93.5t71 -250.5q0 -152 -70.5 -248t-213.5 -96z" />
    <glyph glyph-name="uni1ED4" unicode="&#x1ed4;" horiz-adv-x="1499" 
d="M1090 1873q26 19 59 29.5t62.5 3t46.5 -43.5q26 -55 -8.5 -95t-90.5 -57l43 -99q65 9 124.5 51t85.5 111t-10 157q-33 82 -100.5 111.5t-142.5 15t-132 -64.5zM502 1572l253 138l253 -138l88 153l-341 187l-341 -187zM749 -30q216 0 370.5 94.5t237 263.5t82.5 392
q0 224 -82.5 392.5t-237 263t-370.5 94.5q-215 0 -369.5 -94.5t-237 -263t-82.5 -392.5q0 -223 82.5 -392t237 -263.5t369.5 -94.5zM749 197q-217 3 -326 145t-108 378q1 158 49 276t144 183.5t241 63.5q218 -3 326.5 -145t108.5 -378q0 -157 -48.5 -275.5t-145 -183.5
t-241.5 -64z" />
    <glyph glyph-name="uni1ED5" unicode="&#x1ed5;" horiz-adv-x="1236" 
d="M953 1513q26 19 59 29.5t62.5 3t46.5 -43.5q26 -55 -8.5 -95t-90.5 -57l43 -99q65 9 124.5 51t85.5 111t-10 157q-33 82 -100.5 111.5t-142.5 15t-132 -64.5zM365 1212l253 138l253 -138l88 153l-341 187l-341 -187zM617 -30q162 0 283 72.5t188.5 201t67.5 296.5
q0 167 -67 295.5t-188 201.5t-284 73q-159 0 -280 -72t-189 -200t-68 -298q0 -167 66.5 -295.5t187.5 -201.5t283 -73zM617 196q-139 0 -210.5 93.5t-71.5 250.5q0 153 68.5 248.5t213.5 95.5q142 0 213 -93.5t71 -250.5q0 -152 -70.5 -248t-213.5 -96z" />
    <glyph glyph-name="uni1ED6" unicode="&#x1ed6;" horiz-adv-x="1499" 
d="M916 1933q117 0 159.5 84t13.5 204h-152q14 -48 2 -80.5t-44 -32.5q-29 0 -64 21t-74 48.5t-83 48.5t-91 21q-117 0 -159.5 -83.5t-13.5 -203.5h152q-13 47 -1.5 79.5t43.5 32.5q29 0 64 -21t74 -48.5t83 -48.5t91 -21zM489 1572l253 138l253 -138l88 153l-341 187
l-341 -187zM749 -30q216 0 370.5 94.5t237 263.5t82.5 392q0 224 -82.5 392.5t-237 263t-370.5 94.5q-215 0 -369.5 -94.5t-237 -263t-82.5 -392.5q0 -223 82.5 -392t237 -263.5t369.5 -94.5zM749 197q-217 3 -326 145t-108 378q1 158 49 276t144 183.5t241 63.5
q218 -3 326.5 -145t108.5 -378q0 -157 -48.5 -275.5t-145 -183.5t-241.5 -64z" />
    <glyph glyph-name="uni1ED7" unicode="&#x1ed7;" horiz-adv-x="1236" 
d="M820 1573q117 0 159.5 84t13.5 204h-152q14 -48 2 -80.5t-44 -32.5q-29 0 -64 21t-74 48.5t-83 48.5t-91 21q-117 0 -159.5 -83.5t-13.5 -203.5h152q-13 47 -1.5 79.5t43.5 32.5q29 0 64 -21t74 -48.5t83 -48.5t91 -21zM393 1212l253 138l253 -138l88 153l-341 187
l-341 -187zM617 -30q162 0 283 72.5t188.5 201t67.5 296.5q0 167 -67 295.5t-188 201.5t-284 73q-159 0 -280 -72t-189 -200t-68 -298q0 -167 66.5 -295.5t187.5 -201.5t283 -73zM617 196q-139 0 -210.5 93.5t-71.5 250.5q0 153 68.5 248.5t213.5 95.5q142 0 213 -93.5
t71 -250.5q0 -152 -70.5 -248t-213.5 -96z" />
    <glyph glyph-name="uni1ED8" unicode="&#x1ed8;" horiz-adv-x="1499" 
d="M496 1572l253 138l253 -138l88 153l-341 187l-341 -187zM749 -30q216 0 370.5 94.5t237 263.5t82.5 392q0 224 -82.5 392.5t-237 263t-370.5 94.5q-215 0 -369.5 -94.5t-237 -263t-82.5 -392.5q0 -223 82.5 -392t237 -263.5t369.5 -94.5zM749 197q-217 3 -326 145
t-108 378q1 158 49 276t144 183.5t241 63.5q218 -3 326.5 -145t108.5 -378q0 -157 -48.5 -275.5t-145 -183.5t-241.5 -64zM626 -388h247v221h-247v-221z" />
    <glyph glyph-name="uni1ED9" unicode="&#x1ed9;" horiz-adv-x="1236" 
d="M366 1212l253 138l253 -138l88 153l-341 187l-341 -187zM617 -30q162 0 283 72.5t188.5 201t67.5 296.5q0 167 -67 295.5t-188 201.5t-284 73q-159 0 -280 -72t-189 -200t-68 -298q0 -167 66.5 -295.5t187.5 -201.5t283 -73zM617 196q-139 0 -210.5 93.5t-71.5 250.5
q0 153 68.5 248.5t213.5 95.5q142 0 213 -93.5t71 -250.5q0 -152 -70.5 -248t-213.5 -96zM514 -388h247v221h-247v-221z" />
    <glyph glyph-name="uni1EDA" unicode="&#x1eda;" horiz-adv-x="1499" 
d="M873 1590l76 240h-238l-76 -240h238zM749 -30q216 0 370.5 94.5t237 263.5t82.5 392q0 196 -64 351t-183 253q11 4 21 9q130 64 101 286l-182 -1q1 -52 -6.5 -100.5t-58.5 -71.5q-28 -13 -60 -9.5t-78 14.5v0q-85 19 -180 19q-215 0 -369.5 -94.5t-237 -263t-82.5 -392.5
q0 -223 82.5 -392t237 -263.5t369.5 -94.5zM749 197q-217 3 -326 145t-108 378q1 158 49 276t144 183.5t241 63.5q218 -3 326.5 -145t108.5 -378q0 -157 -48.5 -275.5t-145 -183.5t-241.5 -64z" />
    <glyph glyph-name="uni1EDB" unicode="&#x1edb;" horiz-adv-x="1245" 
d="M734 1230l76 240h-238l-76 -240h238zM617 -30q162 0 283 72.5t188.5 201t67.5 296.5q0 128 -40 234.5t-113 182.5q25 6 47 17q130 64 101 286l-182 -1q1 -52 -6.5 -100.5t-58.5 -71.5q-27 -13 -59 -10t-76 14q-72 19 -152 19q-159 0 -280 -72t-189 -200t-68 -298
q0 -167 66.5 -295.5t187.5 -201.5t283 -73zM617 196q-139 0 -210.5 93.5t-71.5 250.5q0 153 68.5 248.5t213.5 95.5q142 0 213 -93.5t71 -250.5q0 -152 -70.5 -248t-213.5 -96z" />
    <glyph glyph-name="uni1EDC" unicode="&#x1edc;" horiz-adv-x="1499" 
d="M614 1590h238l-76 240h-238zM749 -30q216 0 370.5 94.5t237 263.5t82.5 392q0 196 -64 351t-183 253q11 4 21 9q130 64 101 286l-182 -1q1 -52 -6.5 -100.5t-58.5 -71.5q-28 -13 -60 -9.5t-78 14.5v0q-85 19 -180 19q-215 0 -369.5 -94.5t-237 -263t-82.5 -392.5
q0 -223 82.5 -392t237 -263.5t369.5 -94.5zM749 197q-217 3 -326 145t-108 378q1 158 49 276t144 183.5t241 63.5q218 -3 326.5 -145t108.5 -378q0 -157 -48.5 -275.5t-145 -183.5t-241.5 -64z" />
    <glyph glyph-name="uni1EDD" unicode="&#x1edd;" horiz-adv-x="1245" 
d="M493 1230h238l-76 240h-238zM617 -30q162 0 283 72.5t188.5 201t67.5 296.5q0 128 -40 234.5t-113 182.5q25 6 47 17q130 64 101 286l-182 -1q1 -52 -6.5 -100.5t-58.5 -71.5q-27 -13 -59 -10t-76 14q-72 19 -152 19q-159 0 -280 -72t-189 -200t-68 -298
q0 -167 66.5 -295.5t187.5 -201.5t283 -73zM617 196q-139 0 -210.5 93.5t-71.5 250.5q0 153 68.5 248.5t213.5 95.5q142 0 213 -93.5t71 -250.5q0 -152 -70.5 -248t-213.5 -96z" />
    <glyph glyph-name="uni1EDE" unicode="&#x1ede;" horiz-adv-x="1499" 
d="M652 1873q26 19 59 29.5t62.5 3t46.5 -43.5q26 -55 -8.5 -95t-90.5 -57l43 -99q65 9 124.5 51t85.5 111t-10 157q-33 82 -100.5 111.5t-142.5 15t-132 -64.5zM749 -30q216 0 370.5 94.5t237 263.5t82.5 392q0 196 -64 351t-183 253q11 4 21 9q130 64 101 286l-182 -1
q1 -52 -6.5 -100.5t-58.5 -71.5q-28 -13 -60 -9.5t-78 14.5v0q-85 19 -180 19q-215 0 -369.5 -94.5t-237 -263t-82.5 -392.5q0 -223 82.5 -392t237 -263.5t369.5 -94.5zM749 197q-217 3 -326 145t-108 378q1 158 49 276t144 183.5t241 63.5q218 -3 326.5 -145t108.5 -378
q0 -157 -48.5 -275.5t-145 -183.5t-241.5 -64z" />
    <glyph glyph-name="uni1EDF" unicode="&#x1edf;" horiz-adv-x="1236" 
d="M496 1520q26 19 59 29.5t62.5 3t46.5 -43.5q26 -55 -8.5 -95t-90.5 -57l43 -99q65 9 124.5 51t85.5 111t-10 157q-33 82 -100.5 111.5t-142.5 15t-132 -64.5zM617 -30q162 0 283 72.5t188.5 201t67.5 296.5q0 128 -40 234.5t-113 182.5q25 6 47 17q130 64 101 286
l-182 -1q1 -52 -6.5 -100.5t-58.5 -71.5q-27 -13 -59 -10t-76 14q-72 19 -152 19q-159 0 -280 -72t-189 -200t-68 -298q0 -167 66.5 -295.5t187.5 -201.5t283 -73zM617 196q-139 0 -210.5 93.5t-71.5 250.5q0 153 68.5 248.5t213.5 95.5q142 0 213 -93.5t71 -250.5
q0 -152 -70.5 -248t-213.5 -96z" />
    <glyph glyph-name="uni1EE0" unicode="&#x1ee0;" horiz-adv-x="1499" 
d="M935 1600q117 0 159.5 84t13.5 204h-152q14 -48 2 -80.5t-44 -32.5q-29 0 -64 21t-74 48.5t-83 48.5t-91 21q-117 0 -159.5 -83.5t-13.5 -203.5h152q-13 47 -1.5 79.5t43.5 32.5q29 0 64 -21t74 -48.5t83 -48.5t91 -21zM749 -30q216 0 370.5 94.5t237 263.5t82.5 392
q0 196 -64 351t-183 253q11 4 21 9q130 64 101 286l-182 -1q1 -52 -6.5 -100.5t-58.5 -71.5q-28 -13 -60 -9.5t-78 14.5v0q-85 19 -180 19q-215 0 -369.5 -94.5t-237 -263t-82.5 -392.5q0 -223 82.5 -392t237 -263.5t369.5 -94.5zM749 197q-217 3 -326 145t-108 378
q1 158 49 276t144 183.5t241 63.5q218 -3 326.5 -145t108.5 -378q0 -157 -48.5 -275.5t-145 -183.5t-241.5 -64z" />
    <glyph glyph-name="uni1EE1" unicode="&#x1ee1;" horiz-adv-x="1236" 
d="M802 1240q117 0 159.5 84t13.5 204h-152q14 -48 2 -80.5t-44 -32.5q-29 0 -64 21t-74 48.5t-83 48.5t-91 21q-117 0 -159.5 -83.5t-13.5 -203.5h152q-13 47 -1.5 79.5t43.5 32.5q29 0 64 -21t74 -48.5t83 -48.5t91 -21zM617 -30q162 0 283 72.5t188.5 201t67.5 296.5
q0 128 -40 234.5t-113 182.5q25 6 47 17q130 64 101 286l-182 -1q1 -52 -6.5 -100.5t-58.5 -71.5q-27 -13 -59 -10t-76 14q-72 19 -152 19q-159 0 -280 -72t-189 -200t-68 -298q0 -167 66.5 -295.5t187.5 -201.5t283 -73zM617 196q-139 0 -210.5 93.5t-71.5 250.5
q0 153 68.5 248.5t213.5 95.5q142 0 213 -93.5t71 -250.5q0 -152 -70.5 -248t-213.5 -96z" />
    <glyph glyph-name="uni1EE2" unicode="&#x1ee2;" horiz-adv-x="1499" 
d="M749 -30q216 0 370.5 94.5t237 263.5t82.5 392q0 196 -64 351t-183 253q11 4 21 9q130 64 101 286l-182 -1q1 -52 -6.5 -100.5t-58.5 -71.5q-28 -13 -60 -9.5t-78 14.5v0q-85 19 -180 19q-215 0 -369.5 -94.5t-237 -263t-82.5 -392.5q0 -223 82.5 -392t237 -263.5
t369.5 -94.5zM749 197q-217 3 -326 145t-108 378q1 158 49 276t144 183.5t241 63.5q218 -3 326.5 -145t108.5 -378q0 -157 -48.5 -275.5t-145 -183.5t-241.5 -64zM646 -388h247v221h-247v-221z" />
    <glyph glyph-name="uni1EE3" unicode="&#x1ee3;" horiz-adv-x="1236" 
d="M617 -30q162 0 283 72.5t188.5 201t67.5 296.5q0 128 -40 234.5t-113 182.5q25 6 47 17q130 64 101 286l-182 -1q1 -52 -6.5 -100.5t-58.5 -71.5q-27 -13 -59 -10t-76 14q-72 19 -152 19q-159 0 -280 -72t-189 -200t-68 -298q0 -167 66.5 -295.5t187.5 -201.5t283 -73z
M617 196q-139 0 -210.5 93.5t-71.5 250.5q0 153 68.5 248.5t213.5 95.5q142 0 213 -93.5t71 -250.5q0 -152 -70.5 -248t-213.5 -96zM513 -388h247v221h-247v-221z" />
    <glyph glyph-name="uni1EE4" unicode="&#x1ee4;" horiz-adv-x="1440" 
d="M720 -30q172 0 302.5 70t204 197t73.5 298v905h-244v-899q0 -107 -46.5 -184t-123 -118.5t-166.5 -41.5q-87 0 -164 41t-124.5 118t-47.5 185v899l-244 -2v-903q0 -171 73.5 -298t204.5 -197t302 -70zM630 -388h247v221h-247v-221z" />
    <glyph glyph-name="uni1EE5" unicode="&#x1ee5;" 
d="M545 -31q117 0 205.5 40.5t147.5 110.5v-120h213v1080h-242v-555q0 -131 -37.5 -202.5t-95.5 -99t-120 -27.5q-86 0 -137 37.5t-75.5 95t-32 119.5t-7.5 112v520h-244v-603q0 -38 6.5 -101t28.5 -133t68 -132.5t124.5 -102t197.5 -39.5zM503 -388h247v221h-247v-221z" />
    <glyph glyph-name="uni1EE6" unicode="&#x1ee6;" horiz-adv-x="1440" 
d="M611 1873q26 19 59 29.5t62.5 3t46.5 -43.5q26 -55 -8.5 -95t-90.5 -57l43 -99q65 9 124.5 51t85.5 111t-10 157q-33 82 -100.5 111.5t-142.5 15t-132 -64.5zM720 -30q172 0 302.5 70t204 197t73.5 298v905h-244v-899q0 -107 -46.5 -184t-123 -118.5t-166.5 -41.5
q-87 0 -164 41t-124.5 118t-47.5 185v899l-244 -2v-903q0 -171 73.5 -298t204.5 -197t302 -70z" />
    <glyph glyph-name="uni1EE7" unicode="&#x1ee7;" 
d="M496 1520q26 19 59 29.5t62.5 3t46.5 -43.5q26 -55 -8.5 -95t-90.5 -57l43 -99q65 9 124.5 51t85.5 111t-10 157q-33 82 -100.5 111.5t-142.5 15t-132 -64.5zM545 -31q117 0 205.5 40.5t147.5 110.5v-120h213v1080h-242v-555q0 -131 -37.5 -202.5t-95.5 -99t-120 -27.5
q-86 0 -137 37.5t-75.5 95t-32 119.5t-7.5 112v520h-244v-603q0 -38 6.5 -101t28.5 -133t68 -132.5t124.5 -102t197.5 -39.5z" />
    <glyph glyph-name="uni1EE8" unicode="&#x1ee8;" horiz-adv-x="1440" 
d="M828 1590l76 240h-238l-76 -240h238zM720 -30q172 0 302.5 70t204 197t73.5 298v767q38 1 74 9.5t68 26.5q62 36 88 104.5t12 177.5l-182 -1q1 -58 -16.5 -109.5t-93.5 -64.5q-19 -4 -40 -4.5t-43 -0.5h-111v-899q0 -107 -46.5 -184t-123 -118.5t-166.5 -41.5
q-87 0 -164 41t-124.5 118t-47.5 185v899l-244 -2v-903q0 -171 73.5 -298t204.5 -197t302 -70z" />
    <glyph glyph-name="uni1EE9" unicode="&#x1ee9;" 
d="M718 1230l76 240h-238l-76 -240h238zM545 -31q117 0 205.5 40.5t147.5 110.5v-120h213v947q53 8 92 31q62 36 88 104.5t12 177.5l-182 -1q1 -58 -16.5 -109.5t-93.5 -64.5q-19 -4 -40 -4.5t-43 -0.5h-59v-555q0 -131 -37.5 -202.5t-95.5 -99t-120 -27.5q-86 0 -137 37.5
t-75.5 95t-32 119.5t-7.5 112v520h-244v-603q0 -38 6.5 -101t28.5 -133t68 -132.5t124.5 -102t197.5 -39.5z" />
    <glyph glyph-name="uni1EEA" unicode="&#x1eea;" horiz-adv-x="1440" 
d="M624 1590h238l-76 240h-238zM720 -30q172 0 302.5 70t204 197t73.5 298v767q38 1 74 9.5t68 26.5q62 36 88 104.5t12 177.5l-182 -1q1 -58 -16.5 -109.5t-93.5 -64.5q-19 -4 -40 -4.5t-43 -0.5h-111v-899q0 -107 -46.5 -184t-123 -118.5t-166.5 -41.5q-87 0 -164 41
t-124.5 118t-47.5 185v899l-244 -2v-903q0 -171 73.5 -298t204.5 -197t302 -70z" />
    <glyph glyph-name="uni1EEB" unicode="&#x1eeb;" 
d="M504 1230h238l-76 240h-238zM545 -31q117 0 205.5 40.5t147.5 110.5v-120h213v945q53 8 92 31q62 36 88 104.5t12 177.5l-182 -1q1 -58 -16.5 -109.5t-93.5 -64.5q-10 -2 -21 -3h-121v-555q0 -131 -37.5 -202.5t-95.5 -99t-120 -27.5q-86 0 -137 37.5t-75.5 95t-32 119.5
t-7.5 112v520h-244v-603q0 -38 6.5 -101t28.5 -133t68 -132.5t124.5 -102t197.5 -39.5z" />
    <glyph glyph-name="uni1EEC" unicode="&#x1eec;" horiz-adv-x="1440" 
d="M611 1873q26 19 59 29.5t62.5 3t46.5 -43.5q26 -55 -8.5 -95t-90.5 -57l43 -99q65 9 124.5 51t85.5 111t-10 157q-33 82 -100.5 111.5t-142.5 15t-132 -64.5zM720 -30q172 0 302.5 70t204 197t73.5 298v767q38 1 74 9.5t68 26.5q62 36 88 104.5t12 177.5l-182 -1
q1 -58 -16.5 -109.5t-93.5 -64.5q-19 -4 -40 -4.5t-43 -0.5h-111v-899q0 -107 -46.5 -184t-123 -118.5t-166.5 -41.5q-87 0 -164 41t-124.5 118t-47.5 185v899l-244 -2v-903q0 -171 73.5 -298t204.5 -197t302 -70z" />
    <glyph glyph-name="uni1EED" unicode="&#x1eed;" 
d="M496 1520q26 19 59 29.5t62.5 3t46.5 -43.5q26 -55 -8.5 -95t-90.5 -57l43 -99q65 9 124.5 51t85.5 111t-10 157q-33 82 -100.5 111.5t-142.5 15t-132 -64.5zM545 -31q117 0 205.5 40.5t147.5 110.5v-120h213v947q53 8 92 31q62 36 88 104.5t12 177.5l-182 -1
q1 -58 -16.5 -109.5t-93.5 -64.5q-19 -4 -40 -4.5t-43 -0.5h-59v-555q0 -131 -37.5 -202.5t-95.5 -99t-120 -27.5q-86 0 -137 37.5t-75.5 95t-32 119.5t-7.5 112v520h-244v-603q0 -38 6.5 -101t28.5 -133t68 -132.5t124.5 -102t197.5 -39.5z" />
    <glyph glyph-name="uni1EEE" unicode="&#x1eee;" horiz-adv-x="1440" 
d="M912 1600q117 0 159.5 84t13.5 204h-152q14 -48 2 -80.5t-44 -32.5q-29 0 -64 21t-74 48.5t-83 48.5t-91 21q-117 0 -159.5 -83.5t-13.5 -203.5h152q-13 47 -1.5 79.5t43.5 32.5q29 0 64 -21t74 -48.5t83 -48.5t91 -21zM720 -30q172 0 302.5 70t204 197t73.5 298v767
q38 1 74 9.5t68 26.5q62 36 88 104.5t12 177.5l-182 -1q1 -58 -16.5 -109.5t-93.5 -64.5q-19 -4 -40 -4.5t-43 -0.5h-111v-899q0 -107 -46.5 -184t-123 -118.5t-166.5 -41.5q-87 0 -164 41t-124.5 118t-47.5 185v899l-244 -2v-903q0 -171 73.5 -298t204.5 -197t302 -70z" />
    <glyph glyph-name="uni1EEF" unicode="&#x1eef;" 
d="M802 1240q117 0 159.5 84t13.5 204h-152q14 -48 2 -80.5t-44 -32.5q-29 0 -64 21t-74 48.5t-83 48.5t-91 21q-117 0 -159.5 -83.5t-13.5 -203.5h152q-13 47 -1.5 79.5t43.5 32.5q29 0 64 -21t74 -48.5t83 -48.5t91 -21zM545 -31q117 0 205.5 40.5t147.5 110.5v-120h213
v947q53 8 92 31q62 36 88 104.5t12 177.5l-182 -1q1 -58 -16.5 -109.5t-93.5 -64.5q-19 -4 -40 -4.5t-43 -0.5h-59v-555q0 -131 -37.5 -202.5t-95.5 -99t-120 -27.5q-86 0 -137 37.5t-75.5 95t-32 119.5t-7.5 112v520h-244v-603q0 -38 6.5 -101t28.5 -133t68 -132.5
t124.5 -102t197.5 -39.5z" />
    <glyph glyph-name="uni1EF0" unicode="&#x1ef0;" horiz-adv-x="1440" 
d="M720 -30q172 0 302.5 70t204 197t73.5 298v767q38 1 74 9.5t68 26.5q62 36 88 104.5t12 177.5l-182 -1q1 -58 -16.5 -109.5t-93.5 -64.5q-19 -4 -40 -4.5t-43 -0.5h-111v-899q0 -107 -46.5 -184t-123 -118.5t-166.5 -41.5q-87 0 -164 41t-124.5 118t-47.5 185v899
l-244 -2v-903q0 -171 73.5 -298t204.5 -197t302 -70zM599 -388h247v221h-247v-221z" />
    <glyph glyph-name="uni1EF1" unicode="&#x1ef1;" 
d="M545 -31q117 0 205.5 40.5t147.5 110.5v-120h213v947q54 8 93 31q62 36 88 104.5t12 177.5l-182 -1q1 -58 -16.5 -109.5t-93.5 -64.5q-19 -4 -40 -4.5t-43 -0.5h-60v-555q0 -131 -37.5 -202.5t-95.5 -99t-120 -27.5q-86 0 -137 37.5t-75.5 95t-32 119.5t-7.5 112v520
h-244v-603q0 -38 6.5 -101t28.5 -133t68 -132.5t124.5 -102t197.5 -39.5zM513 -388h247v221h-247v-221z" />
    <glyph glyph-name="Ygrave" unicode="&#x1ef2;" horiz-adv-x="1223" 
d="M501 1590h238l-76 240h-238zM490 0h244v590l489 850h-281l-330 -574l-331 574h-281l490 -850v-590z" />
    <glyph glyph-name="ygrave" unicode="&#x1ef3;" horiz-adv-x="1119" 
d="M463 1230h238l-76 240h-238zM282 -480h226l602 1560h-241l-293 -773l-302 773h-251l437 -1072z" />
    <glyph glyph-name="uni1EF4" unicode="&#x1ef4;" horiz-adv-x="1223" 
d="M490 0h244v590l489 850h-281l-330 -574l-331 574h-281l490 -850v-590zM488 -388h247v221h-247v-221z" />
    <glyph glyph-name="uni1EF5" unicode="&#x1ef5;" horiz-adv-x="1119" 
d="M282 -480h226l602 1560h-241l-293 -773l-302 773h-251l437 -1072zM779 -388h247v221h-247v-221z" />
    <glyph glyph-name="uni1EF6" unicode="&#x1ef6;" horiz-adv-x="1223" 
d="M478 1873q26 19 59 29.5t62.5 3t46.5 -43.5q26 -55 -8.5 -95t-90.5 -57l43 -99q65 9 124.5 51t85.5 111t-10 157q-33 82 -100.5 111.5t-142.5 15t-132 -64.5zM490 0h244v590l489 850h-281l-330 -574l-331 574h-281l490 -850v-590z" />
    <glyph glyph-name="uni1EF7" unicode="&#x1ef7;" horiz-adv-x="1119" 
d="M436 1520q26 19 59 29.5t62.5 3t46.5 -43.5q26 -55 -8.5 -95t-90.5 -57l43 -99q65 9 124.5 51t85.5 111t-10 157q-33 82 -100.5 111.5t-142.5 15t-132 -64.5zM282 -480h226l602 1560h-241l-293 -773l-302 773h-251l437 -1072z" />
    <glyph glyph-name="uni1EF8" unicode="&#x1ef8;" horiz-adv-x="1223" 
d="M785 1600q117 0 159.5 84t13.5 204h-152q14 -48 2 -80.5t-44 -32.5q-29 0 -64 21t-74 48.5t-83 48.5t-91 21q-117 0 -159.5 -83.5t-13.5 -203.5h152q-13 47 -1.5 79.5t43.5 32.5q29 0 64 -21t74 -48.5t83 -48.5t91 -21zM490 0h244v590l489 850h-281l-330 -574l-331 574
h-281l490 -850v-590z" />
    <glyph glyph-name="uni1EF9" unicode="&#x1ef9;" horiz-adv-x="1119" 
d="M282 -480h226l602 1560h-241l-293 -773l-302 773h-251l437 -1072zM737 1240q117 0 159.5 84t13.5 204h-152q14 -48 2 -80.5t-44 -32.5q-29 0 -64 21t-74 48.5t-83 48.5t-91 21q-117 0 -159.5 -83.5t-13.5 -203.5h152q-13 47 -1.5 79.5t43.5 32.5q29 0 64 -21t74 -48.5
t83 -48.5t91 -21z" />
    <glyph glyph-name="uni2011" unicode="&#x2011;" horiz-adv-x="840" 
d="M120 536h600v189h-600v-189z" />
    <glyph glyph-name="endash" unicode="&#x2013;" horiz-adv-x="1080" 
d="M120 536h840v189h-840v-189z" />
    <glyph glyph-name="emdash" unicode="&#x2014;" horiz-adv-x="1560" 
d="M120 536h1320v189h-1320v-189z" />
    <glyph glyph-name="quoteleft" unicode="&#x2018;" horiz-adv-x="568" 
d="M398 928q-123 -20 -185 47t-62 198v267h247v-257h-128q-8 -68 18.5 -112t95.5 -39z" />
    <glyph glyph-name="quoteright" unicode="&#x2019;" horiz-adv-x="568" 
d="M170 928q123 -20 185 47t62 198v267h-247v-257h128q8 -68 -18.5 -112t-95.5 -39z" />
    <glyph glyph-name="quotesinglbase" unicode="&#x201a;" horiz-adv-x="607" 
d="M120 -255q123 -20 185 47t62 198v267h-247v-257h128q8 -68 -18.5 -112t-95.5 -39z" />
    <glyph glyph-name="quotedblleft" unicode="&#x201c;" horiz-adv-x="902" 
d="M742 1443q-123 20 -185 -47t-62 -198v-267h247v257h-128q-8 68 18.5 112t95.5 39zM407 1443q-123 20 -185 -47t-62 -198v-267h247v257h-128q-8 68 18.5 112t95.5 39z" />
    <glyph glyph-name="quotedblright" unicode="&#x201d;" horiz-adv-x="902" 
d="M160 932q123 -20 185 47t62 198v267h-247v-257h128q8 -68 -18.5 -112t-95.5 -39zM495 932q123 -20 185 47t62 198v267h-247v-257h128q8 -68 -18.5 -112t-95.5 -39z" />
    <glyph glyph-name="quotedblbase" unicode="&#x201e;" horiz-adv-x="902" 
d="M160 -255q123 -20 185 47t62 198v267h-247v-257h128q8 -68 -18.5 -112t-95.5 -39zM495 -255q123 -20 185 47t62 198v267h-247v-257h128q8 -68 -18.5 -112t-95.5 -39z" />
    <glyph glyph-name="uni201F" unicode="&#x201f;" horiz-adv-x="902" 
d="M742 932q-123 -20 -185 47t-62 198v267h247v-257h-128q-8 -68 18.5 -112t95.5 -39zM407 932q-123 -20 -185 47t-62 198v267h247v-257h-128q-8 -68 18.5 -112t95.5 -39z" />
    <glyph glyph-name="dagger" unicode="&#x2020;" horiz-adv-x="1080" 
d="M420 0h241v1440h-241v-1440zM120 891h840v189h-840v-189z" />
    <glyph glyph-name="daggerdbl" unicode="&#x2021;" horiz-adv-x="925" 
d="M342 0h241v437h222v189h-222v249h222v189h-222v376h-241v-376h-220v-189h220v-249h-220v-189h220v-437z" />
    <glyph glyph-name="bullet" unicode="&#x2022;" horiz-adv-x="1407" 
d="M709 347q76 0 139 37t101 101.5t38 144.5q0 81 -38 145t-101 101t-139 37q-80 0 -146 -37t-104.5 -101t-38.5 -145q0 -80 38.5 -144.5t104.5 -101.5t146 -37z" />
    <glyph glyph-name="ellipsis" unicode="&#x2026;" horiz-adv-x="1420" 
d="M160 0h247v247h-247v-247zM587 0h247v247h-247v-247zM1013 0h247v247h-247v-247z" />
    <glyph glyph-name="perthousand" unicode="&#x2030;" horiz-adv-x="2624" 
d="M480 750q99 0 180.5 48.5t130.5 130t49 181.5t-49 181.5t-130.5 130t-180.5 48.5q-96 0 -178 -49t-132 -131t-50 -180q0 -100 49 -181.5t130.5 -130t180.5 -48.5zM340 0l1281 1279l-160 161l-1281 -1280zM480 956q-62 0 -108 46t-46 108t46 108t108 46t108 -46t46 -108
t-46 -108t-108 -46zM1321 -30q99 0 180.5 48.5t130.5 130t49 181.5t-49 181.5t-130.5 130t-180.5 48.5q-96 0 -178 -49t-132 -131t-50 -180q0 -100 48.5 -181.5t130.5 -130t181 -48.5zM2144 -30q99 0 180.5 48.5t130.5 130t49 181.5t-49 181.5t-130.5 130t-180.5 48.5
q-96 0 -178 -49t-132 -131t-50 -180q0 -100 48.5 -181.5t130.5 -130t181 -48.5zM1321 176q-62 0 -108 46t-46 108t46 108t108 46t108 -46t46 -108t-46 -108t-108 -46zM2144 176q-62 0 -108 46t-46 108t46 108t108 46t108 -46t46 -108t-46 -108t-108 -46z" />
    <glyph glyph-name="guilsinglleft" unicode="&#x2039;" horiz-adv-x="1275" 
d="M760 150l150 149l-342 331l342 331l-150 149l-480 -480z" />
    <glyph glyph-name="guilsinglright" unicode="&#x203a;" horiz-adv-x="1275" 
d="M515 150l-150 149l342 331l-342 331l150 149l480 -480z" />
    <glyph glyph-name="fraction" unicode="&#x2044;" horiz-adv-x="516" 
d="M-164 0l985 1345l-140 107l-986 -1347z" />
    <glyph glyph-name="uni2060" unicode="&#x2060;" horiz-adv-x="0" 
 />
    <glyph glyph-name="uni2070" unicode="&#x2070;" horiz-adv-x="937" 
d="M468 518q155 0 242 93t87 253v247q0 162 -90 254.5t-239 92.5t-238.5 -94.5t-89.5 -252.5v-247q0 -161 89.5 -253.5t238.5 -92.5zM468 664q-82 0 -125 55.5t-43 144.5v248q0 93 45 146t123 53q82 0 126 -55t44 -144v-248q0 -94 -45 -147t-125 -53z" />
    </font>
</defs>
</svg>
